<svg id="Grupo_237776" data-name="Grupo 237776" xmlns="http://www.w3.org/2000/svg" xmlns:xlink="http://www.w3.org/1999/xlink" width="315.582" height="294.792" viewBox="0 0 315.582 294.792">
  <defs>
    <clipPath id="clip-path">
      <rect id="Rectángulo_33954" data-name="Rectángulo 33954" width="315.582" height="294.792" fill="none"/>
    </clipPath>
  </defs>
  <g id="Grupo_237775" data-name="Grupo 237775" clip-path="url(#clip-path)">
    <path id="Trazado_146199" data-name="Trazado 146199" d="M124.007,128.24q-1.878,1.881-3.788,3.725a.856.856,0,0,0-.053,1.036.64.64,0,0,0,.441.309.464.464,0,0,0,.39-.132c1.278-1.236,2.552-2.479,3.806-3.739a.86.86,0,0,0,.043-1.041.531.531,0,0,0-.839-.158" transform="translate(116.27 124.094)" fill="#286a84"/>
    <path id="Trazado_146200" data-name="Trazado 146200" d="M120.012,25.838a.462.462,0,0,0,.445.191.626.626,0,0,0,.38-.232.892.892,0,0,0,.061-1.047q-1.63-2.141-3.264-4.272a.5.5,0,0,0-.817.055.892.892,0,0,0-.059,1.04q1.633,2.129,3.254,4.266" transform="translate(112.976 19.654)" fill="#286a84"/>
    <path id="Trazado_146201" data-name="Trazado 146201" d="M120.149,131.97l-3.766,3.581a.853.853,0,0,0-.061,1.024.631.631,0,0,0,.437.315.444.444,0,0,0,.378-.124l3.774-3.579a.858.858,0,0,0,.061-1.03.527.527,0,0,0-.823-.187" transform="translate(112.554 127.721)" fill="#286a84"/>
    <path id="Trazado_146202" data-name="Trazado 146202" d="M126.96,35.353a.617.617,0,0,0,.366-.2.9.9,0,0,0,.114-1.061q-1.565-2.36-3.172-4.666a.514.514,0,0,0-.843-.014.9.9,0,0,0-.1,1.059q1.592,2.295,3.15,4.64a.492.492,0,0,0,.48.238" transform="translate(119.353 28.291)" fill="#286a84"/>
    <path id="Trazado_146203" data-name="Trazado 146203" d="M129.976,40.451a.585.585,0,0,0,.345-.167.908.908,0,0,0,.165-1.065q-1.48-2.519-3.012-4.961a.523.523,0,0,0-.851-.073.9.9,0,0,0-.138,1.065q1.515,2.427,2.983,4.926a.519.519,0,0,0,.508.276" transform="translate(122.424 32.939)" fill="#286a84"/>
    <path id="Trazado_146204" data-name="Trazado 146204" d="M127.713,124.242q-1.8,2.061-3.676,4.038a.874.874,0,0,0-.022,1.051.633.633,0,0,0,.435.284.483.483,0,0,0,.415-.156q1.884-1.993,3.709-4.069a.874.874,0,0,0,0-1.061.536.536,0,0,0-.858-.087" transform="translate(119.984 120.19)" fill="#286a84"/>
    <path id="Trazado_146205" data-name="Trazado 146205" d="M123.3,30.359a.476.476,0,0,0,.457.209.621.621,0,0,0,.378-.219.9.9,0,0,0,.081-1.057q-1.612-2.23-3.254-4.434a.5.5,0,0,0-.827.031.9.9,0,0,0-.075,1.049q1.633,2.194,3.241,4.42" transform="translate(116.18 23.886)" fill="#286a84"/>
    <path id="Trazado_146206" data-name="Trazado 146206" d="M138.776,70.383c.242,2.15.453,4.351.622,6.542a.7.7,0,0,0,.648.693c.018,0,.039,0,.059-.006a.765.765,0,0,0,.587-.852c-.173-2.217-.388-4.444-.634-6.615-.045-.421-.333-.725-.726-.646a.785.785,0,0,0-.555.884" transform="translate(134.436 67.317)" fill="#286a84"/>
    <path id="Trazado_146207" data-name="Trazado 146207" d="M139.3,77.013q.154,3.248.211,6.6a.717.717,0,0,0,.648.76h.012a.73.73,0,0,0,.638-.791q-.056-3.393-.211-6.67a.68.68,0,0,0-.685-.725.747.747,0,0,0-.612.823" transform="translate(134.949 73.81)" fill="#286a84"/>
    <path id="Trazado_146208" data-name="Trazado 146208" d="M138.88,70.277a.664.664,0,0,0,.636.618.877.877,0,0,0,.114-.016.8.8,0,0,0,.522-.915c-.325-2.175-.689-4.359-1.089-6.489a.632.632,0,0,0-.772-.553.823.823,0,0,0-.488.943c.4,2.1.756,4.262,1.077,6.412" transform="translate(133.485 60.936)" fill="#286a84"/>
    <path id="Trazado_146209" data-name="Trazado 146209" d="M140.145,89.671a.664.664,0,0,0-.7.685c-.163,2.2-.37,4.394-.614,6.534a.791.791,0,0,0,.553.888.457.457,0,0,0,.087.012.67.67,0,0,0,.642-.65c.246-2.168.459-4.392.626-6.613a.769.769,0,0,0-.589-.856" transform="translate(134.485 86.867)" fill="#286a84"/>
    <path id="Trazado_146210" data-name="Trazado 146210" d="M137.58,57a.587.587,0,0,0-.8-.451.849.849,0,0,0-.413.988c.553,2.053,1.071,4.142,1.542,6.21a.632.632,0,0,0,.62.539.574.574,0,0,0,.167-.033.839.839,0,0,0,.453-.969c-.478-2.093-1-4.207-1.565-6.284" transform="translate(132.075 54.734)" fill="#286a84"/>
    <path id="Trazado_146211" data-name="Trazado 146211" d="M131.12,119.812c-1.079,1.508-2.227,3.028-3.416,4.514a.888.888,0,0,0,.041,1.069.63.63,0,0,0,.411.238.505.505,0,0,0,.453-.2c1.207-1.508,2.372-3.046,3.463-4.571a.892.892,0,0,0-.085-1.073.536.536,0,0,0-.868.02" transform="translate(123.562 115.846)" fill="#286a84"/>
    <path id="Trazado_146212" data-name="Trazado 146212" d="M139.5,83.327l-.018,1.223q-.041,2.741-.154,5.371a.749.749,0,0,0,.616.823l.031,0a.7.7,0,0,0,.648-.728q.112-2.655.154-5.424l.02-1.232Z" transform="translate(134.978 80.725)" fill="#286a84"/>
    <path id="Trazado_146213" data-name="Trazado 146213" d="M139.711,96.327a.642.642,0,0,0-.754.589c-.345,2.189-.732,4.331-1.154,6.369a.83.83,0,0,0,.474.957.5.5,0,0,0,.152.03.64.64,0,0,0,.626-.557c.429-2.067.821-4.241,1.171-6.462a.81.81,0,0,0-.516-.925" transform="translate(133.482 93.303)" fill="#286a84"/>
    <path id="Trazado_146214" data-name="Trazado 146214" d="M135.627,50.788a.562.562,0,0,0-.831-.345.884.884,0,0,0-.337,1.028c.7,1.949,1.372,3.943,2,5.93a.6.6,0,0,0,.6.463.589.589,0,0,0,.222-.061.868.868,0,0,0,.374-1.012c-.63-2.012-1.313-4.032-2.022-6" transform="translate(130.213 48.79)" fill="#286a84"/>
    <path id="Trazado_146215" data-name="Trazado 146215" d="M138.749,102.811a.594.594,0,0,0-.8.465c-.539,2.057-1.13,4.1-1.768,6.076a.877.877,0,0,0,.372,1.016.58.58,0,0,0,.226.065.605.605,0,0,0,.6-.457c.646-2,1.25-4.085,1.8-6.176a.85.85,0,0,0-.425-.988" transform="translate(131.888 99.557)" fill="#286a84"/>
    <path id="Trazado_146216" data-name="Trazado 146216" d="M137.161,108.977a.565.565,0,0,0-.843.319c-.742,1.9-1.549,3.8-2.4,5.633a.9.9,0,0,0,.254,1.057.563.563,0,0,0,.3.116.57.57,0,0,0,.555-.356c.866-1.866,1.689-3.794,2.447-5.727a.891.891,0,0,0-.315-1.041" transform="translate(129.663 105.487)" fill="#286a84"/>
    <path id="Trazado_146217" data-name="Trazado 146217" d="M133.033,45.77a.906.906,0,0,0,.224-1.061q-1.347-2.7-2.764-5.3a.532.532,0,0,0-.852-.15.907.907,0,0,0-.191,1.063q1.4,2.581,2.731,5.257a.551.551,0,0,0,.539.327.6.6,0,0,0,.313-.132" transform="translate(125.315 37.883)" fill="#286a84"/>
    <path id="Trazado_146218" data-name="Trazado 146218" d="M134.9,114.672a.541.541,0,0,0-.864.163c-.933,1.711-1.935,3.42-2.981,5.079a.9.9,0,0,0,.14,1.073.6.6,0,0,0,.364.179.53.53,0,0,0,.5-.266c1.063-1.685,2.083-3.42,3.034-5.16a.9.9,0,0,0-.2-1.069" transform="translate(126.845 110.947)" fill="#286a84"/>
    <path id="Trazado_146219" data-name="Trazado 146219" d="M135.67,50.577c-.762-1.878-1.581-3.786-2.431-5.666a.547.547,0,0,0-.847-.242.9.9,0,0,0-.262,1.051c.841,1.862,1.65,3.749,2.4,5.605a.574.574,0,0,0,.569.39.548.548,0,0,0,.272-.1.887.887,0,0,0,.3-1.041" transform="translate(127.935 43.163)" fill="#286a84"/>
    <path id="Trazado_146220" data-name="Trazado 146220" d="M131.632,149.647l-18.6,2.522.537-1.347a.62.62,0,0,0,.4.282.431.431,0,0,0,.38-.128q1.819-1.816,3.648-3.579a.855.855,0,0,0,.055-1.02.517.517,0,0,0-.809-.185c-1,.973-2,1.963-3.006,2.957l9.379-23.491a.9.9,0,0,0-.272-1.01.492.492,0,0,0-.776.252l-11.061,27.756a.926.926,0,0,0,.067.774.644.644,0,0,0,.441.341.386.386,0,0,0,.126,0l19.753-2.64a.655.655,0,0,0,.447-.821.717.717,0,0,0-.709-.663" transform="translate(107.971 120.653)" fill="#286a84"/>
    <path id="Trazado_146221" data-name="Trazado 146221" d="M234.344,90.046l-.053-.122c-.841-1.8-1.742-3.587-2.68-5.341A117.046,117.046,0,0,0,129.182,22.358c-.305-.014-.612-.014-.915-.014s-.6,0-.91.014A117.033,117.033,0,0,0,24.926,84.583c-.935,1.754-1.837,3.538-2.678,5.341l-.053.122a116.892,116.892,0,0,0,1.028,100.669q1.353,2.776,2.857,5.463a117.047,117.047,0,0,0,101.278,60.087c.305.008.6.008.91.008s.61,0,.915-.008A117.047,117.047,0,0,0,230.46,196.179q1.494-2.684,2.853-5.463a116.874,116.874,0,0,0,1.032-100.669m5.381,46.532H200.357a179.287,179.287,0,0,0-6.621-46.532h34.542a110.414,110.414,0,0,1,11.446,46.532m-53.411-52H131.005V27.9c23.714,1.612,44.282,24.054,55.309,56.679m-60.774,0H70.225C81.245,51.958,101.816,29.51,125.534,27.9h.006Zm-.006,5.463h.006v46.532H61.65A173.52,173.52,0,0,1,68.5,90.046Zm.006,52v48.674H69.154a172.144,172.144,0,0,1-7.5-48.674Zm-.006,54.137h.006v54.537h-.006c-23.2-1.565-43.38-23.074-54.564-54.537Zm5.471,0h54.568c-11.189,31.463-31.368,52.972-54.568,54.537Zm0-5.463V142.041H194.9a172.214,172.214,0,0,1-7.5,48.674Zm0-54.137V90.046h57.043a173.519,173.519,0,0,1,6.847,46.532Zm94.385-52H192.083a131.473,131.473,0,0,0-12.425-27.464c-6.792-11.19-14.736-19.861-23.419-25.752A111.937,111.937,0,0,1,225.39,84.583M100.3,31.367c-8.684,5.891-16.634,14.561-23.428,25.752A131.237,131.237,0,0,0,64.463,84.583H31.141A111.963,111.963,0,0,1,100.3,31.367M16.807,136.578A110.65,110.65,0,0,1,28.253,90.046H62.8a180.049,180.049,0,0,0-6.607,46.532Zm0,5.463H56.188a178.643,178.643,0,0,0,7.229,48.674H29.338a110.629,110.629,0,0,1-12.531-48.674m15.575,54.137h32.8a129.331,129.331,0,0,0,11.691,25.33c6.794,11.191,14.744,19.859,23.428,25.742a111.976,111.976,0,0,1-67.919-51.072m123.857,51.072c8.682-5.883,16.626-14.551,23.419-25.742a129.7,129.7,0,0,0,11.7-25.33H224.15a111.949,111.949,0,0,1-67.911,51.072m70.955-56.535H193.112a178.113,178.113,0,0,0,7.245-48.674h39.368a110.629,110.629,0,0,1-12.531,48.674" transform="translate(10.957 21.646)" fill="#286a84"/>
    <path id="Trazado_146222" data-name="Trazado 146222" d="M56.887,53.419c.484-.5.953-.992,1.406-1.453-.453.461-.921.949-1.406,1.453" transform="translate(55.11 50.343)" fill="#2b2924"/>
    <path id="Trazado_146223" data-name="Trazado 146223" d="M122.925,86.422c-.124-2.333-.321-4.7-.644-7.044-2.713-19.721-19.514-36.385-40.632-32.4-5.264.994-13.207,2.428-15.534,8.2-9.423-.807-13.579,13.177-14.791,20.389-.248,1.467-.463,2.937-.628,4.418-.756,6.855-.4,13.774-.018,20.641.343,6.16,1.632,13.224,5.024,18.508,2.652,4.13,6.566,10.015,11,12.391,9.086,4.869,18.971,4.388,28.815,2.859,4.849-.754,9.925-.939,14.179-3.989,5.259-3.772,7.914-7.357,9.621-13.7a96.756,96.756,0,0,0,3.607-30.282" transform="translate(48.683 44.938)" fill="#333"/>
    <path id="Trazado_146224" data-name="Trazado 146224" d="M60.938,98.549c-1.451,7.07,16.9,20.615,16.9,20.615l12.222-6.231L60.938,83.391s1.453,8.088,0,15.158" transform="translate(58.956 80.787)" fill="#e6e6dc"/>
    <path id="Trazado_146225" data-name="Trazado 146225" d="M94.973,83.327C96.237,74.822,60.9,86.463,60.9,86.463L91.569,117.81,97.7,103.958a40.484,40.484,0,0,1-2.725-20.631" transform="translate(58.996 77.713)" fill="#ccc"/>
    <path id="Trazado_146226" data-name="Trazado 146226" d="M103.043,105.251c1.843-2.469,2.217-5.272,2.55-8.139.144-1.234,1.337-1.624,2.372-2.309,2.2-1.455,2.729-2.9,3.365-6.2,1.059-5.516,2.24-7.41-3.516-9.275C97.18,75.885,84.068,71.912,74.638,65.382c-2.055-1.427-10.1-5.2-9.793-8.017-.636,5.82-3.668,9.659-6.479,14.429-.012.024-.016.047-.026.071a26.568,26.568,0,0,1-2.965,5.184,39.251,39.251,0,0,0-2.051,4.382,8.7,8.7,0,0,0-.114,3.136c.238,1.731,1.418,10.082,5.17,10.308.89.053,1.38,1.1,1.53,1.981,1.146,6.676,5.686,11.336,10.769,15.908.335.3.667.6,1.006.9,3.9,3.461,7.749,5.036,11.567,4.786,3.815.25,7.668-1.325,11.567-4.786.719-.642,1.447-1.288,2.162-1.943a47.583,47.583,0,0,0,6.064-6.467" transform="translate(51.46 55.574)" fill="#fff"/>
    <path id="Trazado_146227" data-name="Trazado 146227" d="M105.347,154.908q-2.156-7-4.306-14.008-7.294-23.764-14.6-47.538c.209.681-9.562,6.769-10.688,7.218-6.58,2.609-11.281,2.79-18.115,4.566-5.646,1.465-13.6,3.308-17.178,8.161-5.625,7.623-4.432,18.441-6.4,27.64-3.325,15.526,18.123,21.089,30.992,25.064a233.4,233.4,0,0,0,37.57,8c.906.122,1.815.234,2.725.346l.234-.032-.13-19.761c-.037.114-.069.228-.1.343" transform="translate(32.662 90.446)" fill="#4db5ea"/>
    <path id="Trazado_146228" data-name="Trazado 146228" d="M141.334,140.944c-1.975-9.2-.78-20.017-6.4-27.638-3.581-4.855-11.531-6.7-17.178-8.163-6.836-1.774-11.537-1.957-18.115-4.566-1.126-.447-10.9-6.536-10.686-7.218Q81.68,117.119,74.35,140.9q-2.1,6.834-4.2,13.667l.128,19.761c.833-.1,1.662-.2,2.489-.317a233.483,233.483,0,0,0,37.57-8c12.872-3.975,34.318-9.539,30.994-25.064" transform="translate(67.962 90.445)" fill="#1893d1"/>
    <path id="Trazado_146229" data-name="Trazado 146229" d="M94.113,112.626c-3.615-4.719-8.95-9.74-14.951-11.651-.307-.473-.756-.91-1.256-.575a2.2,2.2,0,0,0-.522.516c-6.072,1.868-11.474,6.946-15.124,11.71a2.44,2.44,0,0,0-.315,2.449l8.391,19.763-.642,2.92a.621.621,0,0,0,.026.378l7.643,19.633a1.164,1.164,0,0,0,1.646,0l7.645-19.633a.652.652,0,0,0,.026-.378l-.644-2.92,8.391-19.763a2.444,2.444,0,0,0-.313-2.449" transform="translate(59.821 97.15)" fill="#e6e7e8"/>
    <path id="Trazado_146230" data-name="Trazado 146230" d="M103.4,103.078,99.268,91.25l-3.317,6.02C92.2,102.565,84,107.9,81.1,107.983c-2.91-.081-10.738-5.158-14.854-10.712l-3.319-6.02L58.8,103.078a.834.834,0,0,0-.01.528l7.558,24.47c.211.685,1.134,4.341,1.557.25l4.227-7.345a15.6,15.6,0,0,1,1.719-2.418l7.249-9.037,7.249,9.037a15.606,15.606,0,0,1,1.719,2.418l4.227,7.345c.423,4.091,1.349.435,1.559-.25l7.556-24.47a.848.848,0,0,0-.01-.528" transform="translate(56.913 88.4)" fill="#fff"/>
    <path id="Trazado_146231" data-name="Trazado 146231" d="M106.571,115.915l9.489,1.02c-.973-3.02-3.154-17.815-5.944-19.31l-5.359-4.312L93.349,127.307l-8.092,26.708-8.094-26.708L65.757,93.314,60.4,97.626c-2.79,1.494-4.973,16.29-5.946,19.31l9.491-1.02-6.971,12.47c-.585,1.041,25.82,37.214,28.285,45.534,3.717-9.352,28.868-44.492,28.285-45.534l-6.971-12.47" transform="translate(52.752 90.4)" fill="#138bba"/>
    <path id="Trazado_146232" data-name="Trazado 146232" d="M125.194,89.289c.847-9.966,0-23.023-7.7-32.8-5.621-7.137-17.333-12.862-29.114-12.862-11.537,0-23.493,5.725-29.112,12.862-7.7,9.781-8.552,22.838-7.706,32.8-4.4,2.25-5.562,7.893-4.711,14.051,1,7.249,4.4,9.174,11.049,8.647L54.19,88.416l-.03.008c-.7-9.474.2-21.576,7.188-30.451,5.121-6.5,16.36-11.474,27.027-11.84,11.925.366,21.908,5.337,27.027,11.84,6.989,8.875,7.895,20.977,7.19,30.451l-.03-.008-3.707,23.57c.053,0,.1,0,.15.008L107.5,125.229a1.806,1.806,0,0,0-2.386.02l-5.9,5.444a1.6,1.6,0,0,0-.037,2.339l1.209,1.187a1.809,1.809,0,0,0,2.457.035l5.9-5.444a1.594,1.594,0,0,0,.451-1.64l13.2-15.181c4.347-.437,6.706-2.821,7.511-8.649.849-6.158-.317-11.8-4.713-14.051" transform="translate(45.133 42.261)" fill="#ea5f21"/>
    <rect id="Rectángulo_33928" data-name="Rectángulo 33928" width="46.725" height="27.586" transform="translate(259.11 164.117)" fill="#eabe32"/>
    <rect id="Rectángulo_33929" data-name="Rectángulo 33929" width="46.725" height="1.731" transform="translate(259.11 158.315)" fill="#eabe32"/>
    <rect id="Rectángulo_33930" data-name="Rectángulo 33930" width="0.087" height="4.071" transform="translate(305.835 160.045)" fill="#bce2e8"/>
    <rect id="Rectángulo_33931" data-name="Rectángulo 33931" width="44.244" height="4.071" transform="translate(214.868 160.045)" fill="#d2f3f8"/>
    <rect id="Rectángulo_33932" data-name="Rectángulo 33932" width="46.725" height="4.071" transform="translate(259.11 160.045)" fill="#bce2e8"/>
    <rect id="Rectángulo_33933" data-name="Rectángulo 33933" width="0.087" height="4.071" transform="translate(305.835 154.241)" fill="#bce2e8"/>
    <rect id="Rectángulo_33934" data-name="Rectángulo 33934" width="46.725" height="4.071" transform="translate(259.11 154.243)" fill="#bce2e8"/>
    <rect id="Rectángulo_33935" data-name="Rectángulo 33935" width="44.244" height="4.071" transform="translate(214.868 154.243)" fill="#d2f3f8"/>
    <path id="Trazado_146233" data-name="Trazado 146233" d="M109.247,59.2l.126.224h.024Z" transform="translate(105.835 57.354)" fill="#58a39a"/>
    <path id="Trazado_146234" data-name="Trazado 146234" d="M155.223,59.428l.126-.224-.15.224Z" transform="translate(150.353 57.354)" fill="#4a938a"/>
    <path id="Trazado_146235" data-name="Trazado 146235" d="M178.077,59.317h-.024l-9.082,13.539H131.61V96.777h46.725V59.317Z" transform="translate(127.5 57.465)" fill="#eabe32"/>
    <path id="Trazado_146236" data-name="Trazado 146236" d="M118.628,72.856l-9.082-13.539h-.453v74.922h44.331V106.652H109.18v-4.073h44.244v-1.731H109.18V96.777h44.244V72.856Zm3.046,38h21.962v13.008H121.673Zm-2.217-26.789a.382.382,0,0,1-.148-.587l1.969-2.469a.544.544,0,0,1,.415-.191.591.591,0,0,1,.427.171l2.223,2.469a.378.378,0,0,1-.1.593.6.6,0,0,1-.721-.089l-1.3-1.441v9.726a.522.522,0,0,1-1.026,0v-9.59l-1.026,1.286a.544.544,0,0,1-.429.191.589.589,0,0,1-.282-.069m10.179,10.1h-9.267a.513.513,0,1,1,0-1.026h9.267a.513.513,0,1,1,0,1.026m.935-10.112a.591.591,0,0,1-.719-.089l-1.3-1.441v9.726a.522.522,0,0,1-1.026,0v-9.59L126.5,83.94a.554.554,0,0,1-.431.191.587.587,0,0,1-.28-.069.381.381,0,0,1-.148-.587l1.969-2.469a.54.54,0,0,1,.413-.191.578.578,0,0,1,.425.171l2.227,2.469a.378.378,0,0,1-.106.593m11.7,1.575a1.834,1.834,0,0,0-1.083.307,3.527,3.527,0,0,0-2.62,0v4.877a4.813,4.813,0,0,1-.508,2.981,2.947,2.947,0,0,1-2.225,1.034,2.1,2.1,0,0,1-.693-.112,2.863,2.863,0,0,1-1.063-.667c-.41-.4-.8-1.116-.2-1.526a1.14,1.14,0,0,1,.819-.159,2.831,2.831,0,0,0,.132.786,1.164,1.164,0,0,0,.549.642,1.416,1.416,0,0,0,1.7-.386,2.492,2.492,0,0,0,.445-1.41c.047-.549.063-3.851,0-6.119a4.252,4.252,0,0,0-1.7-.191,2.711,2.711,0,0,0-.917.252,2.282,2.282,0,0,0-2.292,0,5.174,5.174,0,0,1,4.566-4.294.819.819,0,0,1,1.467,0,5.4,5.4,0,0,1,4.564,4.292,1.8,1.8,0,0,0-.939-.307M135.992,80.5h.15a.445.445,0,0,1,0,.89h-.15a.445.445,0,0,1,0-.89m1.707-1.335a.445.445,0,0,1,0,.89.445.445,0,0,1,0-.89m1.038,1.7V80.8a.445.445,0,0,1,.89,0v.073a.445.445,0,0,1-.89,0m.963-1.7v-.073a.445.445,0,0,1,.89,0v.073a.445.445,0,0,1-.89,0m2.3.817a.444.444,0,0,1,0,.888.444.444,0,0,1,0-.888M152.1,92.839h-8.011c.258-.734,1.557-1.319,3.221-1.461v-5.67a4.846,4.846,0,0,1-3.308-4.908c0-.053,0-.1.006-.156h8.172c0,.051.008.1.008.156a4.849,4.849,0,0,1-3.311,4.908v5.67c1.666.142,2.963.726,3.223,1.461" transform="translate(105.686 57.465)" fill="#f7dc54"/>
    <path id="Trazado_146237" data-name="Trazado 146237" d="M178.053,59.428l.15-.224H131.61v.224Z" transform="translate(127.5 57.354)" fill="#ea5f21"/>
    <path id="Trazado_146238" data-name="Trazado 146238" d="M153.275,59.428V59.2H109.247l.15.224Z" transform="translate(105.836 57.354)" fill="#f9773d"/>
    <path id="Trazado_146239" data-name="Trazado 146239" d="M178.053,59.317H131.61V72.856h37.361Z" transform="translate(127.5 57.465)" fill="#ea5f21"/>
    <path id="Trazado_146240" data-name="Trazado 146240" d="M109.323,59.317l9.082,13.539h34.8V59.317Z" transform="translate(105.909 57.465)" fill="#f9773d"/>
    <path id="Trazado_146241" data-name="Trazado 146241" d="M115.483,98.5h21.962V85.494H115.483Zm1.3-1.266h-.744V86.453h.744Zm.811,0h-.744V86.453h.744Zm2.735,0H119V86.453h1.331Zm1.48,0h-.746V86.453h.746Zm1.256,0h-.744V86.453h.744Zm2.512,0H124.1V86.453h1.481Zm1.256,0h-.744V86.453h.744Zm1.7,0H127.8V86.453h.744Zm.809,0H128.6V86.453h.744Zm1.7,0h-.744V86.453h.744Zm.809,0h-.744V86.453h.744Zm.809,0h-.744V86.453h.744Zm1.925,0h-.744V86.453h.744Zm1.034,0h-.744V86.453h.744Zm1.256,0h-.744V86.453h.744Z" transform="translate(111.877 82.824)" fill="#dde5ed"/>
    <rect id="Rectángulo_33936" data-name="Rectángulo 33936" width="0.744" height="10.783" transform="translate(227.921 169.277)" fill="#545057"/>
    <rect id="Rectángulo_33937" data-name="Rectángulo 33937" width="0.744" height="10.783" transform="translate(228.73 169.277)" fill="#545057"/>
    <rect id="Rectángulo_33938" data-name="Rectángulo 33938" width="1.331" height="10.783" transform="translate(230.878 169.277)" fill="#545057"/>
    <rect id="Rectángulo_33939" data-name="Rectángulo 33939" width="0.746" height="10.783" transform="translate(232.943 169.277)" fill="#545057"/>
    <rect id="Rectángulo_33940" data-name="Rectángulo 33940" width="0.744" height="10.783" transform="translate(234.201 169.277)" fill="#545057"/>
    <rect id="Rectángulo_33941" data-name="Rectángulo 33941" width="1.481" height="10.783" transform="translate(235.977 169.277)" fill="#545057"/>
    <rect id="Rectángulo_33942" data-name="Rectángulo 33942" width="0.744" height="10.783" transform="translate(237.969 169.277)" fill="#545057"/>
    <rect id="Rectángulo_33943" data-name="Rectángulo 33943" width="0.744" height="10.783" transform="translate(239.672 169.277)" fill="#545057"/>
    <rect id="Rectángulo_33944" data-name="Rectángulo 33944" width="0.744" height="10.783" transform="translate(240.481 169.277)" fill="#545057"/>
    <rect id="Rectángulo_33945" data-name="Rectángulo 33945" width="0.744" height="10.783" transform="translate(242.186 169.277)" fill="#545057"/>
    <rect id="Rectángulo_33946" data-name="Rectángulo 33946" width="0.744" height="10.783" transform="translate(242.996 169.277)" fill="#545057"/>
    <rect id="Rectángulo_33947" data-name="Rectángulo 33947" width="0.744" height="10.783" transform="translate(243.805 169.277)" fill="#545057"/>
    <rect id="Rectángulo_33948" data-name="Rectángulo 33948" width="0.744" height="10.783" transform="translate(245.73 169.277)" fill="#545057"/>
    <rect id="Rectángulo_33949" data-name="Rectángulo 33949" width="0.744" height="10.783" transform="translate(246.764 169.277)" fill="#545057"/>
    <rect id="Rectángulo_33950" data-name="Rectángulo 33950" width="0.744" height="10.783" transform="translate(248.02 169.277)" fill="#545057"/>
    <path id="Trazado_146242" data-name="Trazado 146242" d="M130.136,75.216v5.668c-1.666.144-2.963.728-3.223,1.463h8.013c-.26-.734-1.557-1.319-3.223-1.463V75.216a4.848,4.848,0,0,0,3.31-4.908c0-.053,0-.1-.006-.158h-8.174c0,.053-.006.1-.006.158a4.848,4.848,0,0,0,3.309,4.908" transform="translate(122.866 67.959)" fill="#f9773d"/>
    <path id="Trazado_146243" data-name="Trazado 146243" d="M123.33,75.171a2.744,2.744,0,0,1,.917-.25,4.253,4.253,0,0,1,1.7.189c.063,2.268.049,5.57,0,6.121a2.488,2.488,0,0,1-.443,1.408,1.422,1.422,0,0,1-1.7.388,1.176,1.176,0,0,1-.549-.644,2.746,2.746,0,0,1-.13-.786,1.146,1.146,0,0,0-.819.159c-.6.411-.211,1.122.2,1.526a2.883,2.883,0,0,0,1.063.669,2.167,2.167,0,0,0,.695.11,2.949,2.949,0,0,0,2.225-1.032,4.828,4.828,0,0,0,.506-2.981V75.171a3.553,3.553,0,0,1,2.62,0,1.814,1.814,0,0,1,2.024,0,5.408,5.408,0,0,0-4.566-4.292.819.819,0,0,0-1.467,0,5.176,5.176,0,0,0-4.566,4.294,2.282,2.282,0,0,1,2.292,0" transform="translate(117.258 68.225)" fill="#f9773d"/>
    <path id="Trazado_146244" data-name="Trazado 146244" d="M122.968,70.966h.148a.445.445,0,0,0,0-.89h-.148a.445.445,0,0,0,0,.89" transform="translate(118.712 67.888)" fill="#f9773d"/>
    <path id="Trazado_146245" data-name="Trazado 146245" d="M123.834,70.289a.445.445,0,0,0,0-.89.445.445,0,0,0,0,.89" transform="translate(119.551 67.232)" fill="#f9773d"/>
    <path id="Trazado_146246" data-name="Trazado 146246" d="M125.04,70.513v-.075a.445.445,0,0,0-.89,0v.075a.445.445,0,0,0,.89,0" transform="translate(120.273 67.822)" fill="#f9773d"/>
    <path id="Trazado_146247" data-name="Trazado 146247" d="M125.53,69.647v-.075a.445.445,0,0,0-.89,0v.075a.445.445,0,0,0,.89,0" transform="translate(120.748 66.984)" fill="#f9773d"/>
    <path id="Trazado_146248" data-name="Trazado 146248" d="M126.018,70.7a.445.445,0,0,0,0-.89.445.445,0,0,0,0,.89" transform="translate(121.667 67.633)" fill="#f9773d"/>
    <path id="Trazado_146249" data-name="Trazado 146249" d="M117.688,73.483a.592.592,0,0,0,.282.071.553.553,0,0,0,.429-.191l1.026-1.288v9.59a.522.522,0,0,0,1.026,0V71.939l1.3,1.443a.591.591,0,0,0,.721.087.379.379,0,0,0,.1-.593l-2.225-2.469a.586.586,0,0,0-.427-.169.543.543,0,0,0-.413.191L117.541,72.9a.379.379,0,0,0,.148.585" transform="translate(113.788 68.044)" fill="#f9773d"/>
    <path id="Trazado_146250" data-name="Trazado 146250" d="M114.471,73.483a.591.591,0,0,0,.282.071.553.553,0,0,0,.429-.191l1.026-1.288v9.59a.522.522,0,0,0,1.026,0V71.939l1.3,1.443a.592.592,0,0,0,.721.087.378.378,0,0,0,.1-.593l-2.223-2.469a.589.589,0,0,0-.427-.169.544.544,0,0,0-.415.191L114.323,72.9a.38.38,0,0,0,.148.585" transform="translate(110.672 68.044)" fill="#f9773d"/>
    <path id="Trazado_146251" data-name="Trazado 146251" d="M124.34,76.494h-9.267a.513.513,0,1,0,0,1.026h9.267a.513.513,0,1,0,0-1.026" transform="translate(110.981 74.105)" fill="#f9773d"/>
    <path id="Trazado_146252" data-name="Trazado 146252" d="M140.044,82.785l-1.526-2.128c-.03.022-.051.047-.079.069l-3.764,2.764,1.8,2.512a28.494,28.494,0,0,1,3.565-3.217" transform="translate(130.469 78.138)" fill="#333"/>
    <path id="Trazado_146253" data-name="Trazado 146253" d="M140.187,82.3l.614.852a2.79,2.79,0,1,0-3.374-4.42l-3.78,2.776a2.8,2.8,0,1,0,3.3,4.489l.014-.012-.646-.9Z" transform="translate(128.186 75.647)" fill="#ea5f21"/>
    <path id="Trazado_146254" data-name="Trazado 146254" d="M138.836,81.076l-.614-.852-3.875,2.784.646.9,3.764-2.764c.03-.022.049-.047.079-.069" transform="translate(130.152 77.719)" fill="#ea5f21"/>
    <path id="Trazado_146255" data-name="Trazado 146255" d="M158.2,86,160,83.489l-3.764-2.764c-.03-.02-.049-.047-.077-.067l-1.528,2.128A28.185,28.185,0,0,1,158.2,86" transform="translate(149.805 78.139)" fill="#4d4d4d"/>
    <path id="Trazado_146256" data-name="Trazado 146256" d="M160.513,85.08l-.648.9.018.012a2.8,2.8,0,1,0,3.3-4.489L159.4,78.728a2.79,2.79,0,1,0-3.372,4.42l.61-.852Z" transform="translate(149.942 75.647)" fill="#4db5ea"/>
    <path id="Trazado_146257" data-name="Trazado 146257" d="M159.251,83.91l.648-.9-3.878-2.784-.61.852c.028.022.047.049.077.069Z" transform="translate(150.557 77.719)" fill="#4db5ea"/>
    <path id="Trazado_146258" data-name="Trazado 146258" d="M146.1,70.482a8.737,8.737,0,0,1,3.581,16.709V88.7c.13.016.256.039.386.059A10.332,10.332,0,0,0,146.1,68.891c-.055,0-.11.008-.165.008V70.49c.055,0,.11-.008.165-.008" transform="translate(141.377 66.74)" fill="#4d4d4d"/>
    <path id="Trazado_146259" data-name="Trazado 146259" d="M147.522,87.188a8.733,8.733,0,0,1,3.416-16.7V68.9a10.327,10.327,0,0,0-3.8,19.863c.128-.018.256-.041.386-.057Z" transform="translate(136.373 66.744)" fill="#333"/>
    <path id="Trazado_146260" data-name="Trazado 146260" d="M147.615,77.056H144.2v2.227a8.643,8.643,0,0,0,3.416.766Z" transform="translate(139.696 74.65)" fill="#333"/>
    <path id="Trazado_146261" data-name="Trazado 146261" d="M145.934,77.056v2.993c.055,0,.11.01.165.01a8.681,8.681,0,0,0,3.581-.776V77.056Z" transform="translate(141.377 74.65)" fill="#4d4d4d"/>
    <path id="Trazado_146262" data-name="Trazado 146262" d="M147.615,78.954a8.645,8.645,0,0,1-3.416-.768V79.7a28.287,28.287,0,0,1,3.416-.246Z" transform="translate(139.696 75.744)" fill="#333"/>
    <path id="Trazado_146263" data-name="Trazado 146263" d="M145.934,78.954v.5c.055,0,.11-.008.165-.008a28.284,28.284,0,0,1,3.581.254V78.186a8.681,8.681,0,0,1-3.581.776c-.055,0-.11-.006-.165-.008" transform="translate(141.377 75.744)" fill="#4d4d4d"/>
    <path id="Trazado_146264" data-name="Trazado 146264" d="M145.569,74.14a2.87,2.87,0,0,0,0,5.741h3.5V74.14Z" transform="translate(138.243 71.825)" fill="#dde5ed"/>
    <path id="Trazado_146265" data-name="Trazado 146265" d="M149.762,79.881a2.87,2.87,0,1,0,0-5.741h-3.827v5.741h3.827Z" transform="translate(141.378 71.825)" fill="#c0d1e1"/>
    <path id="Trazado_146266" data-name="Trazado 146266" d="M144.389,78.955c-.13.016-.258.039-.386.059.126.053.258.094.386.142Z" transform="translate(139.506 76.489)" fill="#c7d3d6"/>
    <path id="Trazado_146267" data-name="Trazado 146267" d="M147.838,79.156c.128-.047.26-.089.384-.142-.128-.018-.256-.041-.384-.059Z" transform="translate(143.221 76.489)" fill="#a2b8bd"/>
    <path id="Trazado_146268" data-name="Trazado 146268" d="M166.626,87.777a28.076,28.076,0,0,0-16.559-8.639c-.126.053-.256.094-.384.142v-.2a27.98,27.98,0,0,0-3.583-.254c-.055,0-.108.008-.165.008v4.243c.055,0,.108-.008.163-.008a23.731,23.731,0,0,1,0,47.461c-.055,0-.108-.008-.163-.01v4.508c.057,0,.11.01.165.01a28.075,28.075,0,0,0,20.526-47.262" transform="translate(141.377 76.365)" fill="#c0d1e1"/>
    <path id="Trazado_146269" data-name="Trazado 146269" d="M156.267,79.076v.2c-.128-.047-.26-.089-.386-.142a27.933,27.933,0,0,0-13,5.42,28.34,28.34,0,0,0-3.563,3.217,28.07,28.07,0,0,0,20.361,47.254v-4.508a23.723,23.723,0,0,1,0-47.443V78.83a28.287,28.287,0,0,0-3.416.246" transform="translate(127.628 76.368)" fill="#dde5ed"/>
    <path id="Trazado_146270" data-name="Trazado 146270" d="M134.021,104.708a23.671,23.671,0,0,0,23.454,23.722v-2.107a21.483,21.483,0,0,1,0-42.964V80.986a23.668,23.668,0,0,0-23.454,23.722" transform="translate(129.836 78.457)" fill="#f7dc54"/>
    <path id="Trazado_146271" data-name="Trazado 146271" d="M146.1,83.355a21.49,21.49,0,0,1,0,42.98c-.055,0-.11-.008-.165-.008v2.107c.053,0,.108.008.163.008a23.731,23.731,0,0,0,0-47.461c-.055,0-.11.01-.163.01v2.372c.055,0,.11-.008.165-.008" transform="translate(141.377 78.452)" fill="#eabe32"/>
    <path id="Trazado_146272" data-name="Trazado 146272" d="M167.59,103.677A21.49,21.49,0,0,0,146.1,82.188c-.055,0-.11.006-.165.006v42.964c.055,0,.11.01.165.01a21.493,21.493,0,0,0,21.491-21.491" transform="translate(141.377 79.621)" fill="#c0d1e1"/>
    <path id="Trazado_146273" data-name="Trazado 146273" d="M135.1,103.674a21.487,21.487,0,0,0,21.326,21.481V82.191A21.488,21.488,0,0,0,135.1,103.674" transform="translate(130.883 79.624)" fill="#dde5ed"/>
    <path id="Trazado_146274" data-name="Trazado 146274" d="M144.415,113.76l1.5.4,3.39-10.127,4.507-19.444-1.494-.4-5.79,19.1Z" transform="translate(139.905 81.558)" fill="#333"/>
    <path id="Trazado_146275" data-name="Trazado 146275" d="M150.676,95.31a2.9,2.9,0,1,1-2.055-3.552,2.9,2.9,0,0,1,2.055,3.552" transform="translate(140.443 88.797)" fill="#c7d3d6"/>
    <path id="Trazado_146276" data-name="Trazado 146276" d="M149.264,94.584a1.934,1.934,0,1,1-1.37-2.366,1.937,1.937,0,0,1,1.37,2.366" transform="translate(140.919 89.274)" fill="#ea5f21"/>
    <path id="Trazado_146277" data-name="Trazado 146277" d="M145.979,87.332h.868a.336.336,0,0,0,.335-.335v-3.4a.336.336,0,0,0-.335-.335h-.868a.334.334,0,0,0-.335.335V87a.334.334,0,0,0,.335.335" transform="translate(141.096 80.659)" fill="#ea5f21"/>
    <path id="Trazado_146278" data-name="Trazado 146278" d="M143.543,88.115l.077-.043a.729.729,0,0,0,.266-.99l-1.313-2.274a.728.728,0,0,0-.99-.266l-.077.045a.726.726,0,0,0-.266.988l1.313,2.274a.727.727,0,0,0,.99.266" transform="translate(136.735 81.808)" fill="#ea5f21"/>
    <path id="Trazado_146279" data-name="Trazado 146279" d="M141.352,90.61l.435-.752a.337.337,0,0,0-.124-.457l-2.949-1.7a.333.333,0,0,0-.455.122l-.437.752a.335.335,0,0,0,.124.457l2.947,1.7a.336.336,0,0,0,.459-.122" transform="translate(133.475 84.916)" fill="#ea5f21"/>
    <path id="Trazado_146280" data-name="Trazado 146280" d="M140.722,93.426v-.868a.336.336,0,0,0-.335-.335h-3.406a.336.336,0,0,0-.335.335v.868a.336.336,0,0,0,.335.335h3.406a.336.336,0,0,0,.335-.335" transform="translate(132.38 89.343)" fill="#ea5f21"/>
    <path id="Trazado_146281" data-name="Trazado 146281" d="M141.769,96.909l-.435-.752a.335.335,0,0,0-.457-.122l-2.947,1.7a.336.336,0,0,0-.124.457l.433.754a.335.335,0,0,0,.457.122l2.951-1.7a.334.334,0,0,0,.122-.457" transform="translate(133.459 92.993)" fill="#ea5f21"/>
    <path id="Trazado_146282" data-name="Trazado 146282" d="M144,99.291l-.752-.435a.335.335,0,0,0-.457.122l-1.7,2.949a.336.336,0,0,0,.122.457l.752.435a.333.333,0,0,0,.457-.122l1.7-2.949a.335.335,0,0,0-.122-.457" transform="translate(136.638 95.725)" fill="#ea5f21"/>
    <path id="Trazado_146283" data-name="Trazado 146283" d="M146.815,99.931h-.868a.336.336,0,0,0-.335.335v3.406a.336.336,0,0,0,.335.335h.868a.337.337,0,0,0,.335-.335v-3.406a.337.337,0,0,0-.335-.335" transform="translate(141.065 96.81)" fill="#ea5f21"/>
    <path id="Trazado_146284" data-name="Trazado 146284" d="M150.3,98.873l-.752.435a.337.337,0,0,0-.122.459l1.7,2.949a.335.335,0,0,0,.455.122l.754-.435a.335.335,0,0,0,.122-.457L150.755,99a.334.334,0,0,0-.457-.122" transform="translate(144.714 95.742)" fill="#ea5f21"/>
    <path id="Trazado_146285" data-name="Trazado 146285" d="M152.681,96.186l-.437.752a.337.337,0,0,0,.124.457l2.949,1.7a.335.335,0,0,0,.457-.122l.435-.752a.335.335,0,0,0-.122-.457l-2.947-1.7a.338.338,0,0,0-.459.122" transform="translate(147.447 93.021)" fill="#ea5f21"/>
    <path id="Trazado_146286" data-name="Trazado 146286" d="M153.32,92.59v.868a.334.334,0,0,0,.335.335h3.4a.334.334,0,0,0,.335-.335V92.59a.336.336,0,0,0-.335-.335h-3.4a.336.336,0,0,0-.335.335" transform="translate(148.532 89.374)" fill="#ea5f21"/>
    <path id="Trazado_146287" data-name="Trazado 146287" d="M152.262,89.886l.433.754a.336.336,0,0,0,.457.122l2.949-1.7a.335.335,0,0,0,.124-.457l-.435-.754a.336.336,0,0,0-.457-.122l-2.949,1.7a.334.334,0,0,0-.122.457" transform="translate(147.464 84.944)" fill="#ea5f21"/>
    <path id="Trazado_146288" data-name="Trazado 146288" d="M149.842,88.087l.077.043a.726.726,0,0,0,.99-.264l1.313-2.274a.727.727,0,0,0-.268-.99l-.075-.043a.726.726,0,0,0-.99.264L149.576,87.1a.727.727,0,0,0,.266.99" transform="translate(144.812 81.824)" fill="#ea5f21"/>
    <path id="Trazado_146289" data-name="Trazado 146289" d="M85.062,42.694a12.4,12.4,0,0,0,2.727,1.457C94.29,41,97.955,31.937,97.959,31.935a4.784,4.784,0,0,0-1.851-2.449C90.925,40.411,85.07,42.693,85.062,42.694" transform="translate(82.406 28.565)" fill="#ccc"/>
    <path id="Trazado_146290" data-name="Trazado 146290" d="M102.907,22.217a4.9,4.9,0,0,0,2.658,1.595c0-.006,8.85-4.487,11.466-11.265a12.026,12.026,0,0,0-1.74-2.573c.006.008-1.794,6.06-12.384,12.244" transform="translate(99.693 9.662)" fill="#ccc"/>
    <path id="Trazado_146291" data-name="Trazado 146291" d="M126.451,7.614c.049.012-12.114-2.557-30.642,16.549C78.417,44.469,82.425,55.652,82.374,55.638c.317,5.261,5.646,8.352,5.644,8.353,6.1-3.369,9.795-10.155,11.049-13.208-3.191-4.335-6.613-5.318-9.476-4.707,1.069-7.19,5.633-13.49,10.029-18.56,5.566-5.806,12.677-10.224,17.811-11.781-.331,2.886,1.018,6.143,5.719,8.873,2.977-1.536,9.523-5.847,12.386-12.242,0,0-3.666-4.993-9.086-4.753" transform="translate(79.449 7.27)" fill="#eabe32"/>
    <path id="Trazado_146292" data-name="Trazado 146292" d="M124.818,63.917a40.188,40.188,0,0,1-7.4-1.356A38.673,38.673,0,0,1,92.251,40.814l-5.44-1.534C91.2,52.168,102.439,62.7,116.289,66.607a45.653,45.653,0,0,0,8.389,1.534c1.138.1,2.286.15,3.422.163V64.067c-1.091-.006-2.191-.053-3.282-.15" transform="translate(84.1 38.053)" fill="#1893d1"/>
    <path id="Trazado_146293" data-name="Trazado 146293" d="M126.524,20.85l-4.339-2.327,11.647-3.146a1.135,1.135,0,0,0,.774-.565,1.423,1.423,0,0,0,.033-1.177,2.312,2.312,0,0,0-1.758-1.437,2.156,2.156,0,0,0-.3-.024,1.675,1.675,0,0,0-.341.035l-19.52,4.453a1.861,1.861,0,0,0-1.39,1.132,1.77,1.77,0,0,0,.3,1.7L124.7,36.309a2.352,2.352,0,0,0,1.51.87,2.508,2.508,0,0,0,.427.03,2.185,2.185,0,0,0,1.3-.459,1.966,1.966,0,0,0,.01-2.687c-1.473-1.894-7.706-11.356-7.706-11.356.356.154.713.311,1.069.469,13.691,6.072,23.655,19.652,22.739,35.038a33.053,33.053,0,0,1-12.519,23.991,37.022,37.022,0,0,1-23.5,8.127c-.085,0-.171,0-.256-.006v4.237c.2,0,.4.014.595.012a41.715,41.715,0,0,0,26.48-9.141A36.782,36.782,0,0,0,148.8,58.741c.912-15.274-7.834-30.148-22.281-37.891" transform="translate(104.417 11.794)" fill="#1281ad"/>
    <path id="Trazado_146294" data-name="Trazado 146294" d="M100.156,51.512c6.091-6.43,11.167-12.037,11.167-17.5,0-5.7-3.819-9.425-9.716-9.425-4.205,0-7.009,1.74-9.812,4.737l3.093,3.093c1.644-1.837,3.626-3.432,5.995-3.432,3.286,0,5.074,2.079,5.074,5.318,0,4.688-5.363,10.1-13.919,18.369V55.91h20.786V51.173h-7.544c-1.5,0-3.526.193-5.123.339" transform="translate(88.928 23.819)" fill="#ea5f21"/>
    <path id="Trazado_146295" data-name="Trazado 146295" d="M122.825,24.881H116.2L104.021,43.927V47.7h13.585v7.928h5.219V47.7h3.867V43.4h-3.867Zm-5.219,11.553V43.4h-8.074l5.607-8.556c.87-1.644,1.74-3.191,2.514-4.786h.193c-.1,1.79-.24,4.593-.24,6.381" transform="translate(100.773 24.104)" fill="#ea5f21"/>
    <path id="Trazado_146296" data-name="Trazado 146296" d="M125.646,34.4c-2.4,0-4.154,1.358-5.621,2.872l.142-3.688V26.522H116.05v27.4h4.117V40.611c1.467-1.551,2.471-2.366,4.01-2.366,1.935,0,2.756,1.166,2.756,4.308V53.923h4.119V41.971c0-4.814-1.648-7.57-5.406-7.57" transform="translate(112.426 25.694)" fill="#ea5f21"/>
    <path id="Trazado_146297" data-name="Trazado 146297" d="M66.465,24.744H56.426a2.446,2.446,0,0,1-2.455,2.095H26.725a2.448,2.448,0,0,1-2.455-2.095H14.232a5.444,5.444,0,0,0-5.57,5.316V96.21a5.446,5.446,0,0,0,5.57,5.318H66.465a5.457,5.457,0,0,0,5.581-5.318V30.06a5.456,5.456,0,0,0-5.581-5.316" transform="translate(8.391 23.971)" fill="#e4f4ff"/>
    <path id="Trazado_146298" data-name="Trazado 146298" d="M68.3,22.936H58.264a2.047,2.047,0,0,1,.03.272v3.01a1.928,1.928,0,0,1-.032.28H68.3a5.456,5.456,0,0,1,5.581,5.316V97.964a5.457,5.457,0,0,1-5.581,5.318H16.067a5.446,5.446,0,0,1-5.57-5.318V31.813a5.444,5.444,0,0,1,5.57-5.316H26.106a1.925,1.925,0,0,1-.03-.28v-3.01a2.048,2.048,0,0,1,.028-.272H16.067a9.1,9.1,0,0,0-9.3,8.877V97.964a9.1,9.1,0,0,0,9.3,8.877H68.3a9.107,9.107,0,0,0,9.31-8.877V31.813a9.108,9.108,0,0,0-9.31-8.877" transform="translate(6.556 22.22)" fill="#4d4d4d"/>
    <path id="Trazado_146299" data-name="Trazado 146299" d="M46.307,23.776H43.882V22.27A2.439,2.439,0,0,0,41.4,19.9H23.974a2.439,2.439,0,0,0-2.487,2.372v1.506H19.062a2.447,2.447,0,0,0-2.457,2.1,2.048,2.048,0,0,0-.03.272v3.008a1.869,1.869,0,0,0,.031.28,2.446,2.446,0,0,0,2.455,2.095H46.307a2.448,2.448,0,0,0,2.455-2.095,1.868,1.868,0,0,0,.032-.28V26.151a2.047,2.047,0,0,0-.03-.272,2.447,2.447,0,0,0-2.457-2.1" transform="translate(16.057 19.277)" fill="#4d4d4d"/>
    <path id="Trazado_146300" data-name="Trazado 146300" d="M44.513,22.838H19.345a1.99,1.99,0,0,0-1.985,1.985v.1a1.99,1.99,0,0,0,1.985,1.985H44.513A1.99,1.99,0,0,0,46.5,24.921v-.1a1.99,1.99,0,0,0-1.985-1.985" transform="translate(16.818 22.125)" fill="#d0d5d8"/>
    <path id="Trazado_146301" data-name="Trazado 146301" d="M37.338,20.362H21.352a1.329,1.329,0,0,0-1.325,1.323v.067a1.328,1.328,0,0,0,1.325,1.323H37.338a1.327,1.327,0,0,0,1.323-1.323v-.067a1.328,1.328,0,0,0-1.323-1.323" transform="translate(19.402 19.726)" fill="#d0d5d8"/>
    <path id="Trazado_146302" data-name="Trazado 146302" d="M52.35,37.3h-31.4a1,1,0,0,0-1,1v.049a1,1,0,0,0,1,1h31.4a1,1,0,0,0,1-1V38.3a1,1,0,0,0-1-1" transform="translate(19.323 36.131)" fill="#1893d1"/>
    <path id="Trazado_146303" data-name="Trazado 146303" d="M12.606,43.494h10.21v-10H12.606Zm1.229-8.777h7.753v7.546H13.835Z" transform="translate(12.212 32.445)" fill="#455256"/>
    <path id="Trazado_146304" data-name="Trazado 146304" d="M52.35,45.8h-31.4a1,1,0,0,0-1,1v.049a1,1,0,0,0,1,1h31.4a1,1,0,0,0,1-1V46.8a1,1,0,0,0-1-1" transform="translate(19.323 44.367)" fill="#1893d1"/>
    <path id="Trazado_146305" data-name="Trazado 146305" d="M12.606,52h10.21V41.99H12.606Zm1.229-8.775h7.753v7.546H13.835Z" transform="translate(12.212 40.679)" fill="#455256"/>
    <path id="Trazado_146306" data-name="Trazado 146306" d="M52.35,54.3h-31.4a1,1,0,0,0-1,1v.049a1,1,0,0,0,1,1h31.4a1,1,0,0,0,1-1V55.3a1,1,0,0,0-1-1" transform="translate(19.323 52.601)" fill="#1893d1"/>
    <path id="Trazado_146307" data-name="Trazado 146307" d="M12.606,60.5h10.21v-10H12.606Zm1.229-8.775h7.753v7.546H13.835Z" transform="translate(12.212 48.915)" fill="#455256"/>
    <path id="Trazado_146308" data-name="Trazado 146308" d="M23.676,47.5a1.03,1.03,0,0,0-1.319.6l-4.3,11.533-4.038-7.81a1.025,1.025,0,0,0-1.821.943l5.105,9.864a1.025,1.025,0,0,0,.91.553c.02,0,.041,0,.061,0a1.028,1.028,0,0,0,.9-.665l5.105-13.7a1.027,1.027,0,0,0-.6-1.317" transform="translate(11.708 45.952)" fill="#ea5f21"/>
    <path id="Trazado_146309" data-name="Trazado 146309" d="M23.676,40.584a1.029,1.029,0,0,0-1.319.6l-4.3,11.535-4.038-7.81a1.025,1.025,0,1,0-1.821.943l5.105,9.862a1.021,1.021,0,0,0,.91.553h.061a1.027,1.027,0,0,0,.9-.667l5.105-13.7a1.026,1.026,0,0,0-.6-1.317" transform="translate(11.708 39.254)" fill="#ea5f21"/>
    <path id="Trazado_146310" data-name="Trazado 146310" d="M23.676,31.078a1.029,1.029,0,0,0-1.319.6l-4.3,11.535-4.038-7.81a1.025,1.025,0,1,0-1.821.943l5.105,9.862a1.023,1.023,0,0,0,.91.555c.02,0,.041,0,.061,0a1.028,1.028,0,0,0,.9-.665l5.105-13.7a1.027,1.027,0,0,0-.6-1.317" transform="translate(11.708 30.045)" fill="#ea5f21"/>
    <path id="Trazado_146311" data-name="Trazado 146311" d="M48.9,17.39l-2.843-1.116a1.974,1.974,0,0,0-2.618.939l-.945,2.4,4.788,1.925Z" transform="translate(41.169 15.606)" fill="#f7dc54"/>
    <path id="Trazado_146312" data-name="Trazado 146312" d="M50.186,20.19a2.038,2.038,0,0,0-1.335-2.526l-2.305-.9-1.618,4.15,4.308,1.731Z" transform="translate(43.524 16.237)" fill="#eabe32"/>
    <path id="Trazado_146313" data-name="Trazado 146313" d="M27.088,57.33l-.142.364.128.077Z" transform="translate(26.105 55.539)" fill="#ea5f21"/>
    <path id="Trazado_146314" data-name="Trazado 146314" d="M31.623,60l-.278.291.136.081Z" transform="translate(30.366 58.131)" fill="#f9773d"/>
    <path id="Trazado_146315" data-name="Trazado 146315" d="M58.544,27.682l2.37-6.076-4.78-1.961-1.683,4.292-27.433,69.9,4.631,2.772Z" transform="translate(26.174 19.032)" fill="#f7dc54"/>
    <path id="Trazado_146316" data-name="Trazado 146316" d="M61.237,26.784l1.7-4.379-4.3-1.764-2.37,6.076L29.37,95.644l4.166,2.5Z" transform="translate(28.453 19.997)" fill="#eabe32"/>
    <path id="Trazado_146317" data-name="Trazado 146317" d="M49.614,21.344,49.9,20.6,45.6,18.868l-.289.738L44.236,22.36l4.3,1.764Z" transform="translate(42.854 18.278)" fill="#e4f4ff"/>
    <path id="Trazado_146318" data-name="Trazado 146318" d="M47.662,20.554l.287-.738L43.164,17.89l-.287.73-1.069,2.725,4.78,1.961Z" transform="translate(40.502 17.331)" fill="#dde5ed"/>
    <path id="Trazado_146319" data-name="Trazado 146319" d="M30.149,61.907l-3.067-1.872-.3,9.635.573-.6Z" transform="translate(25.946 58.16)" fill="#a4b5bc"/>
    <path id="Trazado_146320" data-name="Trazado 146320" d="M29.867,60.986,27.073,68.15l5.351-5.6Z" transform="translate(26.228 59.081)" fill="#58595b"/>
    <path id="Trazado_146321" data-name="Trazado 146321" d="M31.585,60.47l.144-.368L27.1,57.33l-.014.441-.152,4.885L30,64.527Z" transform="translate(26.094 55.539)" fill="#dde5ed"/>
    <path id="Trazado_146322" data-name="Trazado 146322" d="M34.11,61.523l.278-.291L30.22,58.737l-.144.368-1.585,4.058,2.557,1.563Z" transform="translate(27.602 56.903)" fill="#a9a9a9"/>
    <path id="Trazado_146323" data-name="Trazado 146323" d="M10.793,95.317a11.97,11.97,0,0,1,7.914-14.963l-3.016-9.789A22.219,22.219,0,0,0,.989,98.337c4.445,14.431,34.493,36.471,34.493,36.471l-9.726-31.575a11.97,11.97,0,0,1-14.963-7.916" transform="translate(0 68.362)" fill="#9487b9"/>
    <path id="Trazado_146324" data-name="Trazado 146324" d="M35.2,84.257a22.2,22.2,0,0,0-27.226-13.2l3.016,9.791a11.969,11.969,0,0,1,7.046,22.877L27.761,135.3S39.7,103.435,36.146,87.308c-.118-.539-.252-1.063-.41-1.567s-.35-1-.539-1.484" transform="translate(7.722 67.876)" fill="#5b4794"/>
    <path id="Trazado_146325" data-name="Trazado 146325" d="M3.937,159.031H9.914c-2.884-24.446,15.223-47.315,41.531-47.38l0-8.367c-30.916.069-51.552,27.344-47.5,55.748" transform="translate(3.324 100.058)" fill="#a9a9a9"/>
    <path id="Trazado_146326" data-name="Trazado 146326" d="M27.927,103.282l-.11,0,0,8.367c.035,0,.071,0,.106,0,26.362,0,44.522,22.9,41.636,47.382H75.54c4.052-28.439-16.64-55.748-47.613-55.748" transform="translate(26.948 100.057)" fill="#8f8f8f"/>
    <path id="Trazado_146327" data-name="Trazado 146327" d="M37.675,109.4,35.4,153.109H39.26l2.719-41.46a41.713,41.713,0,0,0-4.3-2.252" transform="translate(34.295 105.98)" fill="#1281ad"/>
    <path id="Trazado_146328" data-name="Trazado 146328" d="M6.872,137.558H8.852l-1.689-12.11a42.7,42.7,0,0,0-.291,12.11" transform="translate(6.368 121.53)" fill="#1893d1"/>
    <path id="Trazado_146329" data-name="Trazado 146329" d="M27.854,107.549c-.252,0-.5.016-.75.028-.108,0-.217.006-.325.01l.305,47.327h1.758l-.016-47.38c-.329,0-.654.006-.973.016" transform="translate(25.943 104.175)" fill="#1893d1"/>
    <path id="Trazado_146330" data-name="Trazado 146330" d="M30.268,107.6c-.776-.045-1.559-.067-2.345-.067l-.1,0,.016,47.38h2.1Z" transform="translate(26.95 104.174)" fill="#1281ad"/>
    <path id="Trazado_146331" data-name="Trazado 146331" d="M36.683,108.957l-1.658,45.618H31.168l1.063-46.693c.039.006.077.016.116.022.333.061.66.126.986.195.033.006.067.018.1.024.347.075.7.152,1.043.238.746.179,1.477.374,2.2.6" transform="translate(30.195 104.513)" fill="#1281ad"/>
    <path id="Trazado_146332" data-name="Trazado 146332" d="M8.566,122.994l2.827,22.9h3.859l-3.2-29.051a42.681,42.681,0,0,0-3.491,6.152" transform="translate(8.298 113.193)" fill="#1893d1"/>
    <path id="Trazado_146333" data-name="Trazado 146333" d="M12.584,115.89l3.25,34.5h3.859l-3.081-38.2a42.652,42.652,0,0,0-4.028,3.693" transform="translate(12.191 108.693)" fill="#1893d1"/>
    <path id="Trazado_146334" data-name="Trazado 146334" d="M26.324,107.862l1.038,46.731H23.505l-1.632-45.677c.1-.03.2-.053.307-.081.567-.165,1.136-.319,1.711-.455q.679-.171,1.366-.311c.352-.071.709-.142,1.067-.207" transform="translate(21.19 104.494)" fill="#1893d1"/>
    <path id="Trazado_146335" data-name="Trazado 146335" d="M17.1,111.581l2.7,41.567h3.859L21.4,109.354a41.4,41.4,0,0,0-4.308,2.227" transform="translate(16.563 105.939)" fill="#1893d1"/>
    <path id="Trazado_146336" data-name="Trazado 146336" d="M47.051,116.959l-3.185,28.823h3.859l2.8-22.592a42.683,42.683,0,0,0-3.477-6.231" transform="translate(42.496 113.307)" fill="#1281ad"/>
    <path id="Trazado_146337" data-name="Trazado 146337" d="M42.726,112.27l-3.093,38.054h3.859L46.746,116a42.421,42.421,0,0,0-4.02-3.727" transform="translate(38.395 108.764)" fill="#1281ad"/>
    <path id="Trazado_146338" data-name="Trazado 146338" d="M49.913,137.281a42.788,42.788,0,0,0-.2-11.547L48.1,137.281Z" transform="translate(46.596 121.807)" fill="#1281ad"/>
    <path id="Trazado_146339" data-name="Trazado 146339" d="M6.874,130.757l1.685,12.11h4.475l-2.829-22.9a42.505,42.505,0,0,0-3.331,10.789" transform="translate(6.659 116.222)" fill="#4db5ea"/>
    <path id="Trazado_146340" data-name="Trazado 146340" d="M10.34,119.525l3.2,29.053H18.01l-3.252-34.5a42.61,42.61,0,0,0-4.418,5.452" transform="translate(10.017 110.511)" fill="#4db5ea"/>
    <path id="Trazado_146341" data-name="Trazado 146341" d="M14.63,113.855l3.081,38.2h4.477l-2.7-41.567a41.9,41.9,0,0,0-4.857,3.369" transform="translate(14.173 107.036)" fill="#4db5ea"/>
    <path id="Trazado_146342" data-name="Trazado 146342" d="M24.38,108.4l1.632,45.677H21.539l-2.254-43.793.043-.018c.354-.159.717-.315,1.081-.467.093-.037.185-.075.276-.106.313-.13.626-.252.945-.366.071-.032.138-.059.2-.081.3-.112.6-.22.9-.317.152-.055.307-.108.461-.158.372-.124.746-.242,1.122-.35a.266.266,0,0,1,.063-.022" transform="translate(18.683 105.013)" fill="#4db5ea"/>
    <path id="Trazado_146343" data-name="Trazado 146343" d="M29.341,107.56l.305,47.327H25.172l-1.038-46.733c.033,0,.069-.01.1-.016q1.326-.236,2.678-.382c.341-.037.687-.071,1.034-.1l.474-.031c.262-.022.524-.039.786-.049a1.025,1.025,0,0,1,.136-.012" transform="translate(23.38 104.201)" fill="#4db5ea"/>
    <path id="Trazado_146344" data-name="Trazado 146344" d="M34.434,108.188l-1.063,46.693H28.894l.333-47.315c1.282.071,2.542.2,3.788.388.179.022.358.049.543.087.28.039.561.089.837.142.014,0,.026.006.039.006" transform="translate(27.992 104.207)" fill="#21a0cc"/>
    <path id="Trazado_146345" data-name="Trazado 146345" d="M39.879,110.332,37.6,154.046H33.126l1.658-45.618c.329.1.656.2.984.307.756.248,1.5.52,2.24.809.313.124.62.246.927.38.108.043.219.087.327.134.2.093.41.183.616.274" transform="translate(32.092 105.042)" fill="#21a0cc"/>
    <path id="Trazado_146346" data-name="Trazado 146346" d="M40.079,110.54,37.36,152h4.475l3.093-38.054a42.509,42.509,0,0,0-4.849-3.406" transform="translate(36.193 107.088)" fill="#21a0cc"/>
    <path id="Trazado_146347" data-name="Trazado 146347" d="M44.847,114.164,41.593,148.49h4.475l3.185-28.823a42.492,42.492,0,0,0-4.406-5.5" transform="translate(40.294 110.599)" fill="#21a0cc"/>
    <path id="Trazado_146348" data-name="Trazado 146348" d="M51.915,131.169a42.589,42.589,0,0,0-3.286-11.045l-2.8,22.592H50.3Z" transform="translate(44.395 116.373)" fill="#21a0cc"/>
    <path id="Trazado_146349" data-name="Trazado 146349" d="M19.2,119.968l1.268,22.9H36.18l-.008-22.9Z" transform="translate(18.605 116.222)" fill="#a9a9a9"/>
    <path id="Trazado_146350" data-name="Trazado 146350" d="M44.985,119.968H27.823l.008,22.9H43.713Z" transform="translate(26.954 116.222)" fill="#8f8f8f"/>
    <rect id="Rectángulo_33951" data-name="Rectángulo 33951" width="35.154" height="54.045" transform="translate(163.445 217.134)" fill="#f7dc54"/>
    <rect id="Rectángulo_33952" data-name="Rectángulo 33952" width="35.154" height="54.045" transform="translate(198.6 217.134)" fill="#eabe32"/>
    <path id="Trazado_146351" data-name="Trazado 146351" d="M63.4,134.144h.169V140.5a.76.76,0,0,0,.02.165H63.4a1.187,1.187,0,0,1-1.183-1.183v-4.158a1.186,1.186,0,0,1,1.183-1.181" transform="translate(60.269 129.955)" fill="#ea5f21"/>
    <path id="Trazado_146352" data-name="Trazado 146352" d="M63.252,137.74h.03c-.01.022-.018.02-.03,0" transform="translate(61.277 133.439)" fill="#4db5ea"/>
    <path id="Trazado_146353" data-name="Trazado 146353" d="M63.291,148.165H99.06v-29.23H86.072c-10.706,0-22.151,27.38-22.489,28.228a6.267,6.267,0,0,0-.291,1m24.887-5.14H95.8v2.1H88.178Zm-16.7-3.359a48.28,48.28,0,0,1,4.205-7.96c2.687-4.048,6.483-8.094,10.872-7.954h8.5v15.914Z" transform="translate(61.315 115.221)" fill="#ea5f21"/>
    <path id="Trazado_146354" data-name="Trazado 146354" d="M62.9,134.495v-.467l.347-.246H99.439v7.792H63.576a.686.686,0,0,1-.658-.557.76.76,0,0,1-.02-.165Z" transform="translate(60.935 129.604)" fill="#4db5ea"/>
    <path id="Trazado_146355" data-name="Trazado 146355" d="M80.46,121.383h8.5v7.954H69.586c2.689-4.046,6.483-8.094,10.874-7.954" transform="translate(67.413 117.589)" fill="#dde5ed"/>
    <path id="Trazado_146356" data-name="Trazado 146356" d="M115.077,141.789v-1.963h7.5v6.71h-7.5v-4.747Z" transform="translate(111.483 135.459)" fill="#333"/>
    <path id="Trazado_146357" data-name="Trazado 146357" d="M102.659,142.031a8.824,8.824,0,0,0-1.53,2.047,8.824,8.824,0,0,1,1.53-2.047" transform="translate(97.971 137.596)" fill="#4890ac"/>
    <path id="Trazado_146358" data-name="Trazado 146358" d="M100.984,143.88a8.877,8.877,0,0,0-.4,2.642,8.877,8.877,0,0,1,.4-2.642" transform="translate(97.443 139.387)" fill="#4890ac"/>
    <path id="Trazado_146359" data-name="Trazado 146359" d="M109.8,146.522h0a8.876,8.876,0,0,0-.4-2.642,8.876,8.876,0,0,1,.4,2.642" transform="translate(105.989 139.387)" fill="#4890ac"/>
    <path id="Trazado_146360" data-name="Trazado 146360" d="M109.817,144.079a8.979,8.979,0,0,0-1.53-2.047,8.979,8.979,0,0,1,1.53,2.047" transform="translate(104.905 137.596)" fill="#4890ac"/>
    <path id="Trazado_146361" data-name="Trazado 146361" d="M74.831,146.873H62.469V142.38H76.361a10.542,10.542,0,0,0-1.53,4.493" transform="translate(60.518 137.934)" fill="#ea5f21"/>
    <path id="Trazado_146362" data-name="Trazado 146362" d="M119.973,146.873H80.295a10.566,10.566,0,0,0-1.528-4.493H121.5a10.649,10.649,0,0,0-1.53,4.493" transform="translate(76.307 137.934)" fill="#ea5f21"/>
    <path id="Trazado_146363" data-name="Trazado 146363" d="M166.042,141v1.963H152.637a10.635,10.635,0,0,0-12.488,0H91.7a10.635,10.635,0,0,0-12.488,0H62.469v-4.339H166.042Z" transform="translate(60.518 134.29)" fill="#ea5f21"/>
    <path id="Trazado_146364" data-name="Trazado 146364" d="M120.269,142.38v4.493h-9.021a10.649,10.649,0,0,0-1.53-4.493Z" transform="translate(106.292 137.934)" fill="#ea5f21"/>
    <path id="Trazado_146365" data-name="Trazado 146365" d="M70.033,146.951a8.809,8.809,0,1,0,.671-1.593,8.877,8.877,0,0,0-.671,1.593M84.113,149.6a5.591,5.591,0,0,1-9.551,3.953,5.535,5.535,0,0,1-1.644-3.953,5.6,5.6,0,0,1,11.194,0" transform="translate(67.458 136.316)" fill="#333"/>
    <path id="Trazado_146366" data-name="Trazado 146366" d="M76.09,152.767a5.584,5.584,0,0,1-3.953-1.644l7.907-7.907a5.591,5.591,0,0,1-3.953,9.551" transform="translate(69.884 138.744)" fill="#f7dc54"/>
    <path id="Trazado_146367" data-name="Trazado 146367" d="M71.3,147.978a5.591,5.591,0,0,1,9.551-3.953l-7.907,7.907a5.535,5.535,0,0,1-1.644-3.953" transform="translate(69.076 137.935)" fill="#eabe32"/>
    <rect id="Rectángulo_33953" data-name="Rectángulo 33953" width="7.621" height="2.101" transform="translate(149.495 258.246)" fill="#333"/>
    <path id="Trazado_146368" data-name="Trazado 146368" d="M91.027,125.422v7.96H67.451a48.194,48.194,0,0,1,4.205-7.96Z" transform="translate(65.345 121.505)" fill="#e4f4ff"/>
    <path id="Trazado_146369" data-name="Trazado 146369" d="M121.673,140.823v3.065H111.123a10.6,10.6,0,0,0-2.855-3.065Z" transform="translate(104.887 136.425)" fill="#4db5ea"/>
    <path id="Trazado_146370" data-name="Trazado 146370" d="M122.909,143.888H80.173a10.6,10.6,0,0,0-2.855-3.065h48.444a10.571,10.571,0,0,0-2.853,3.065" transform="translate(74.903 136.425)" fill="#4db5ea"/>
    <path id="Trazado_146371" data-name="Trazado 146371" d="M76.362,143.888H62.468v-3.065H79.214a10.571,10.571,0,0,0-2.853,3.065" transform="translate(60.517 136.425)" fill="#4db5ea"/>
    <path id="Trazado_146372" data-name="Trazado 146372" d="M100.984,146.951a8.809,8.809,0,1,0,.671-1.593,8.877,8.877,0,0,0-.671,1.593m14.081,2.646a5.591,5.591,0,0,1-9.551,3.953,5.535,5.535,0,0,1-1.644-3.953,5.6,5.6,0,0,1,11.194,0" transform="translate(97.443 136.316)" fill="#333"/>
    <path id="Trazado_146373" data-name="Trazado 146373" d="M107.042,152.767a5.584,5.584,0,0,1-3.953-1.644L111,143.216a5.591,5.591,0,0,1-3.953,9.551" transform="translate(99.87 138.744)" fill="#f7dc54"/>
    <path id="Trazado_146374" data-name="Trazado 146374" d="M102.254,147.978a5.591,5.591,0,0,1,9.551-3.953l-7.907,7.907a5.527,5.527,0,0,1-1.644-3.953" transform="translate(99.061 137.935)" fill="#eabe32"/>
    <path id="Trazado_146375" data-name="Trazado 146375" d="M113,138.675a11.174,11.174,0,0,1-2.061-.193,10.28,10.28,0,0,1-6.532-4.109,8.981,8.981,0,0,1-1.508-7.2,9.908,9.908,0,0,1,7.156-7.261l-1.675,1.234a1.118,1.118,0,0,0-.333,1.53,1.185,1.185,0,0,0,.608.439,1.322,1.322,0,0,0,.232.051,1.247,1.247,0,0,0,.89-.23l4.951-3.65a1.079,1.079,0,0,0,.447-.951,1.107,1.107,0,0,0-.6-.876l-5.072-2.766a1.1,1.1,0,0,0-.384-.116,1.223,1.223,0,0,0-1.122.49.915.915,0,0,0,.272,1.374l1.754,1.047a12.327,12.327,0,0,0-9.6,9.218,11.185,11.185,0,0,0,1.874,8.962,12.8,12.8,0,0,0,8.131,5.111,13.82,13.82,0,0,0,2.557.242,13.042,13.042,0,0,0,11.356-6.414H121.42A10.549,10.549,0,0,1,113,138.675" transform="translate(97.04 110.987)" fill="#ea5f21"/>
    <path id="Trazado_146376" data-name="Trazado 146376" d="M103.019,127.947v1h6.43v-1.465h-2.333c-.463,0-1.093.059-1.587.1,1.884-1.988,3.455-3.725,3.455-5.414a2.778,2.778,0,0,0-3-2.916,3.89,3.89,0,0,0-3.036,1.465l.957.957a2.632,2.632,0,0,1,1.855-1.061,1.477,1.477,0,0,1,1.571,1.646c0,1.451-1.662,3.124-4.308,5.682" transform="translate(99.729 115.535)" fill="#ea5f21"/>
    <path id="Trazado_146377" data-name="Trazado 146377" d="M106.727,126.409h4.2v2.451h1.614v-2.451h1.2v-1.331h-1.2v-5.727H110.5l-3.768,5.891Zm3.439-3.979c.268-.508.536-.986.776-1.481H111c-.03.553-.075,1.421-.075,1.975v2.154h-2.5Z" transform="translate(103.394 115.624)" fill="#ea5f21"/>
    <path id="Trazado_146378" data-name="Trazado 146378" d="M113.416,122.3a2.422,2.422,0,0,0-1.738.89l.045-1.142v-2.185h-1.276v8.478h1.276v-4.119c.453-.48.762-.732,1.24-.732.6,0,.852.36.852,1.333v3.518h1.274v-3.7c0-1.486-.51-2.341-1.673-2.341" transform="translate(106.998 116.115)" fill="#ea5f21"/>
    <path id="Trazado_146379" data-name="Trazado 146379" d="M45.9,144.057a31.543,31.543,0,0,1-4.52,1.128c2.256,3.78,10.143,10.31,19.564,13.433,9.271,3.471,20.076,3.534,24.753,2.469A42.894,42.894,0,0,1,70.042,164.1a44.672,44.672,0,0,1-33.849-15.156q-.989,2.262-1.823,4.65a46.844,46.844,0,0,1-2.546-22.539,30.9,30.9,0,0,0,14.073,13" transform="translate(30.436 126.962)" fill="#eabe32"/>
    <path id="Trazado_146380" data-name="Trazado 146380" d="M97.041,19.881a44.38,44.38,0,0,1,4.585-4.67c-5.475-2.87-19.715-4.894-33.284-1.717C54.693,16.146,41.713,24,36.893,28.713c.2.284,4.822-7.887,16.528-15.1a62.743,62.743,0,0,1,51.653-6.708c-.317-2.288-.723-4.593-1.232-6.906a65.806,65.806,0,0,1,19.6,25.116c-9.043-4.861-18.371-6.367-26.4-5.235" transform="translate(35.741)" fill="#286a84"/>
  </g>
</svg>
