<svg id="Grupo_237818" data-name="Grupo 237818" xmlns="http://www.w3.org/2000/svg" xmlns:xlink="http://www.w3.org/1999/xlink" width="210" height="196.415" viewBox="0 0 210 196.415">
  <defs>
    <clipPath id="clip-path">
      <rect id="Rectángulo_34208" data-name="Rectángulo 34208" width="210" height="196.415" fill="none"/>
    </clipPath>
  </defs>
  <g id="Grupo_237817" data-name="Grupo 237817" clip-path="url(#clip-path)">
    <path id="Trazado_147219" data-name="Trazado 147219" d="M106.5,189.606H106.5c-2.268-.024-4.559-.13-6.811-.316a.475.475,0,1,1,.078-.946c2.229.183,4.5.289,6.742.315a.474.474,0,0,1,0,.948m6.783-.165a.475.475,0,0,1-.028-.949c2.247-.135,4.509-.352,6.72-.644a.475.475,0,1,1,.125.941c-2.234.3-4.518.515-6.788.652Zm-20.3-.949a.469.469,0,0,1-.074,0c-2.238-.348-4.492-.78-6.7-1.289a.476.476,0,0,1-.357-.569.483.483,0,0,1,.571-.356c2.182.5,4.412.932,6.629,1.276a.474.474,0,0,1-.072.942m33.74-.827a.475.475,0,0,1-.094-.94c2.185-.45,4.391-.989,6.556-1.6a.476.476,0,0,1,.259.916c-2.187.619-4.416,1.163-6.623,1.618a.6.6,0,0,1-.1.008m-46.956-2.214a.46.46,0,0,1-.139-.02c-2.174-.67-4.344-1.424-6.45-2.246a.476.476,0,0,1,.345-.887c2.084.812,4.232,1.56,6.385,2.223a.475.475,0,0,1-.141.929m60.005-1.48a.475.475,0,0,1-.162-.921c2.1-.761,4.2-1.613,6.25-2.527a.475.475,0,0,1,.388.867c-2.068.925-4.193,1.785-6.314,2.555a.493.493,0,0,1-.162.027m-72.657-3.443a.488.488,0,0,1-.2-.046c-2.044-.972-4.08-2.032-6.054-3.15a.476.476,0,0,1,.469-.828c1.954,1.107,3.97,2.157,5.994,3.119a.476.476,0,0,1-.2.905m85.026-2.088a.476.476,0,0,1-.226-.895c1.976-1.061,3.936-2.207,5.824-3.4a.476.476,0,1,1,.51.8c-1.909,1.209-3.888,2.367-5.885,3.44a.467.467,0,0,1-.223.056m-96.832-4.606a.476.476,0,0,1-.264-.08c-1.887-1.258-3.75-2.6-5.538-3.985a.475.475,0,1,1,.583-.75c1.768,1.371,3.614,2.7,5.483,3.944a.476.476,0,0,1-.264.871M163.6,171.186a.474.474,0,0,1-.284-.855c1.8-1.331,3.579-2.746,5.283-4.205a.474.474,0,1,1,.617.721c-1.72,1.475-3.515,2.9-5.335,4.247a.463.463,0,0,1-.281.092m-119-5.661a.477.477,0,0,1-.317-.121c-1.679-1.509-3.333-3.1-4.911-4.732a.476.476,0,0,1,.684-.662c1.562,1.615,3.2,3.194,4.863,4.685a.476.476,0,0,1-.319.83m129.3-3.156a.475.475,0,0,1-.334-.812c1.593-1.573,3.15-3.227,4.63-4.916a.475.475,0,1,1,.715.626c-1.5,1.706-3.069,3.377-4.678,4.966a.469.469,0,0,1-.333.137m-138.73-6.6a.473.473,0,0,1-.364-.17c-1.459-1.741-2.867-3.553-4.185-5.382a.475.475,0,1,1,.77-.556c1.306,1.812,2.7,3.6,4.144,5.329a.474.474,0,0,1-.06.669.463.463,0,0,1-.305.11m147.672-3.6a.474.474,0,0,1-.378-.761c1.355-1.792,2.663-3.652,3.881-5.528a.475.475,0,0,1,.8.518c-1.233,1.9-2.551,3.774-3.921,5.584a.474.474,0,0,1-.38.187m-155.6-7.389a.474.474,0,0,1-.4-.226c-1.192-1.929-2.327-3.921-3.37-5.923a.474.474,0,0,1,.2-.641.479.479,0,0,1,.641.2c1.034,1.98,2.157,3.954,3.337,5.864a.474.474,0,0,1-.4.723m163-3.987a.473.473,0,0,1-.415-.7c1.087-1.972,2.113-4,3.049-6.03a.475.475,0,1,1,.863.4c-.945,2.049-1.982,4.1-3.079,6.09a.471.471,0,0,1-.417.246M20.961,132.764a.475.475,0,0,1-.437-.285c-.9-2.076-1.735-4.21-2.482-6.345a.475.475,0,0,1,.9-.312c.739,2.11,1.566,4.224,2.457,6.277a.476.476,0,0,1-.247.627.47.47,0,0,1-.188.038m174.96-4.3a.49.49,0,0,1-.167-.031.475.475,0,0,1-.279-.612c.791-2.105,1.513-4.259,2.146-6.4a.475.475,0,1,1,.911.268c-.638,2.165-1.368,4.342-2.166,6.467a.475.475,0,0,1-.445.309M16.481,119.973a.476.476,0,0,1-.459-.349c-.591-2.185-1.11-4.417-1.542-6.643a.474.474,0,0,1,.376-.556.482.482,0,0,1,.557.376c.429,2.2.942,4.412,1.528,6.574a.478.478,0,0,1-.336.584.49.49,0,0,1-.123.015m183.279-4.516a.445.445,0,0,1-.1-.011.474.474,0,0,1-.362-.565c.478-2.191.881-4.427,1.2-6.643a.475.475,0,1,1,.941.135c-.323,2.239-.73,4.5-1.213,6.711a.475.475,0,0,1-.463.373M13.893,106.662a.474.474,0,0,1-.471-.417c-.269-2.245-.463-4.529-.573-6.795a.475.475,0,1,1,.949-.045c.11,2.243.3,4.506.568,6.726a.475.475,0,0,1-.414.528.441.441,0,0,1-.058,0m187.8-4.628h-.035a.475.475,0,0,1-.441-.507c.159-2.23.239-4.5.239-6.746a.476.476,0,0,1,.952,0c0,2.268-.082,4.561-.243,6.813a.474.474,0,0,1-.473.441M13.234,93.117h-.011a.475.475,0,0,1-.465-.484c.05-2.267.183-4.558.393-6.807a.479.479,0,0,1,.518-.429.473.473,0,0,1,.429.516c-.208,2.227-.338,4.494-.389,6.739a.474.474,0,0,1-.475.465m188.66-.368a.477.477,0,0,1-.475-.463c-.058-2.247-.2-4.514-.415-6.738a.479.479,0,0,1,.427-.52.474.474,0,0,1,.519.429c.219,2.245.36,4.534.419,6.8a.475.475,0,0,1-.462.488ZM14.5,79.616a.535.535,0,0,1-.08-.005.476.476,0,0,1-.39-.547c.372-2.234.831-4.482,1.363-6.681a.475.475,0,1,1,.924.223c-.527,2.178-.982,4.4-1.35,6.613a.475.475,0,0,1-.467.4m186.075-.361a.475.475,0,0,1-.469-.4c-.378-2.213-.842-4.437-1.376-6.609a.476.476,0,0,1,.924-.228c.54,2.2,1.007,4.443,1.391,6.678a.477.477,0,0,1-.389.548.425.425,0,0,1-.081.007M17.691,66.435a.455.455,0,0,1-.145-.021.475.475,0,0,1-.308-.6c.69-2.154,1.471-4.317,2.318-6.424a.482.482,0,0,1,.619-.264.476.476,0,0,1,.264.619c-.84,2.087-1.611,4.226-2.295,6.358a.474.474,0,0,1-.453.329m179.641-.349a.475.475,0,0,1-.451-.327c-.692-2.132-1.471-4.265-2.316-6.343a.475.475,0,1,1,.88-.357c.855,2.1,1.642,4.254,2.34,6.406a.473.473,0,0,1-.453.621M22.759,53.841a.463.463,0,0,1-.207-.048.474.474,0,0,1-.219-.636c.993-2.03,2.076-4.055,3.219-6.019a.475.475,0,1,1,.822.478c-1.131,1.946-2.2,3.95-3.186,5.96a.477.477,0,0,1-.429.265m169.467-.309a.475.475,0,0,1-.427-.264c-.99-2.008-2.068-4-3.2-5.94a.474.474,0,1,1,.819-.479c1.147,1.953,2.234,3.971,3.235,6a.476.476,0,0,1-.425.686M29.587,42.111a.473.473,0,0,1-.393-.741c1.276-1.87,2.637-3.718,4.047-5.5a.475.475,0,1,1,.745.591c-1.4,1.76-2.744,3.589-4.006,5.439a.473.473,0,0,1-.393.206m155.778-.269a.48.48,0,0,1-.393-.206c-1.265-1.842-2.618-3.666-4.021-5.421a.475.475,0,0,1,.742-.593c1.416,1.773,2.783,3.616,4.063,5.477a.474.474,0,0,1-.123.66.467.467,0,0,1-.268.084M38.02,31.484a.474.474,0,0,1-.35-.8c1.53-1.67,3.14-3.305,4.788-4.858a.475.475,0,0,1,.652.692c-1.63,1.538-3.224,3.156-4.739,4.808a.474.474,0,0,1-.35.154M176.9,31.249a.47.47,0,0,1-.35-.154c-1.52-1.645-3.119-3.257-4.756-4.793a.475.475,0,0,1,.652-.692c1.651,1.55,3.268,3.178,4.8,4.841a.476.476,0,0,1-.349.8M47.879,22.172a.475.475,0,0,1-.3-.843c1.741-1.424,3.568-2.811,5.429-4.125a.475.475,0,1,1,.547.778c-1.841,1.3-3.65,2.673-5.373,4.083a.479.479,0,0,1-.3.108m119.13-.206a.473.473,0,0,1-.3-.1c-1.739-1.412-3.553-2.779-5.393-4.067a.476.476,0,0,1,.546-.779c1.858,1.3,3.69,2.683,5.447,4.109a.473.473,0,0,1-.3.842m-108.048-7.6a.475.475,0,0,1-.246-.881c1.931-1.163,3.937-2.275,5.961-3.3a.474.474,0,1,1,.43.844c-2,1.021-3.989,2.122-5.9,3.273a.473.473,0,0,1-.246.068m96.929-.171a.48.48,0,0,1-.244-.066c-1.929-1.152-3.921-2.247-5.92-3.253a.474.474,0,0,1-.211-.637.479.479,0,0,1,.637-.212c2.022,1.017,4.032,2.122,5.982,3.286a.475.475,0,0,1,.163.652.47.47,0,0,1-.407.231M71.043,8.227a.475.475,0,0,1-.185-.913c2.089-.879,4.233-1.688,6.37-2.41a.476.476,0,0,1,.3.9c-2.116.714-4.237,1.517-6.3,2.387a.506.506,0,0,1-.184.036m72.724-.139a.44.44,0,0,1-.182-.036c-2.076-.861-4.206-1.658-6.331-2.367a.475.475,0,1,1,.3-.9c2.146.715,4.3,1.52,6.394,2.391a.475.475,0,0,1-.182.913M83.883,3.893a.474.474,0,0,1-.118-.934C85.959,2.39,88.2,1.9,90.423,1.492a.476.476,0,0,1,.171.936c-2.2.4-4.419.889-6.593,1.452a.512.512,0,0,1-.118.013M130.892,3.8a.46.46,0,0,1-.119-.015c-2.166-.552-4.386-1.031-6.6-1.426a.478.478,0,0,1-.385-.552.472.472,0,0,1,.552-.384c2.233.4,4.476.883,6.666,1.441a.475.475,0,0,1-.117.934M97.222,1.456a.474.474,0,0,1-.05-.946c2.246-.244,4.533-.411,6.8-.5a.488.488,0,0,1,.492.458.476.476,0,0,1-.457.492c-2.245.084-4.51.25-6.734.491a.338.338,0,0,1-.052,0m20.322-.037a.33.33,0,0,1-.05,0c-2.218-.234-4.484-.39-6.734-.465a.475.475,0,1,1,.032-.95c2.272.074,4.561.232,6.8.47a.475.475,0,0,1-.049.948" transform="translate(4.177 0)" fill="#fff"/>
    <path id="Trazado_147220" data-name="Trazado 147220" d="M83.059,44.786A32.165,32.165,0,0,1,92.5,54.665a51.745,51.745,0,0,1,5.142,10.663L110.722,65A43.965,43.965,0,0,0,83.059,44.786" transform="translate(27.189 14.66)" fill="#c0d1e1"/>
    <path id="Trazado_147221" data-name="Trazado 147221" d="M95.127,96.469l13.378-.329a43.471,43.471,0,0,0,4.451-19.231L97.5,77.29a69.934,69.934,0,0,1-2.371,19.179" transform="translate(31.139 25.175)" fill="#c0d1e1"/>
    <path id="Trazado_147222" data-name="Trazado 147222" d="M76.4,77.855l.471,19.108,22.137-.546a67.581,67.581,0,0,0,2.473-19.181Z" transform="translate(25.009 25.283)" fill="#c0d1e1"/>
    <path id="Trazado_147223" data-name="Trazado 147223" d="M79.172,43.984c-9.294.86-17.153,9.871-21.164,22.785l21.714-.535-.548-22.25Z" transform="translate(18.988 14.398)" fill="#c0d1e1"/>
    <path id="Trazado_147224" data-name="Trazado 147224" d="M75.569,43.945l.548,22.249,21.715-.536c-4.644-12.7-12.938-21.31-22.264-21.713" transform="translate(24.737 14.385)" fill="#c0d1e1"/>
    <path id="Trazado_147225" data-name="Trazado 147225" d="M97.626,80.152h0l15.457-.38a43.451,43.451,0,0,0-4.946-18.159l-13.56.334a70.432,70.432,0,0,1,3.049,18.2" transform="translate(30.959 20.168)" fill="#c0d1e1"/>
    <path id="Trazado_147226" data-name="Trazado 147226" d="M55.851,81.25l25.081-.619-.451-18.27-22.394.552a68.132,68.132,0,0,0-2.237,18.335Z" transform="translate(18.281 20.414)" fill="#c0d1e1"/>
    <path id="Trazado_147227" data-name="Trazado 147227" d="M101.555,80.109h0a68.1,68.1,0,0,0-3.138-18.2l-22.395.552.45,18.27Z" transform="translate(24.885 20.265)" fill="#c0d1e1"/>
    <path id="Trazado_147228" data-name="Trazado 147228" d="M58.047,81.152A70.563,70.563,0,0,1,60.192,62.82l-13.56.333a43.422,43.422,0,0,0-4.044,18.38l15.461-.381Z" transform="translate(13.94 20.564)" fill="#c0d1e1"/>
    <path id="Trazado_147229" data-name="Trazado 147229" d="M42.627,78.629a43.467,43.467,0,0,0,5.39,18.988l13.381-.33a70.032,70.032,0,0,1-3.312-19.038Z" transform="translate(13.954 25.614)" fill="#dde5ed"/>
    <path id="Trazado_147230" data-name="Trazado 147230" d="M55.89,78.36A67.682,67.682,0,0,0,59.305,97.4l22.136-.546h0l-.471-19.11Z" transform="translate(18.295 25.448)" fill="#c0d1e1"/>
    <path id="Trazado_147231" data-name="Trazado 147231" d="M80.99,115.163h0l-.527-21.41h0l-21.421.53c4.693,12.241,12.825,20.489,21.949,20.88" transform="translate(19.327 30.689)" fill="#dde5ed"/>
    <path id="Trazado_147232" data-name="Trazado 147232" d="M74.784,113.9a32.2,32.2,0,0,1-9.444-9.881A50.8,50.8,0,0,1,60.5,94.193l-12.874.319A43.967,43.967,0,0,0,74.784,113.9" transform="translate(15.591 30.833)" fill="#dde5ed"/>
    <path id="Trazado_147233" data-name="Trazado 147233" d="M98.22,93.316,76.8,93.843l.527,21.41c9.094-.84,16.808-9.479,20.9-21.937" transform="translate(25.139 30.546)" fill="#dde5ed"/>
    <path id="Trazado_147234" data-name="Trazado 147234" d="M84.632,113.741A43.96,43.96,0,0,0,110.8,93.034l-12.874.319a50.907,50.907,0,0,1-4.347,10.055,32.165,32.165,0,0,1-8.946,10.333" transform="translate(27.704 30.454)" fill="#dde5ed"/>
    <path id="Trazado_147235" data-name="Trazado 147235" d="M73.2,45.046A32.175,32.175,0,0,0,64.186,55.32,51.633,51.633,0,0,0,59.5,66.191l-13.078.234A43.964,43.964,0,0,1,73.2,45.046" transform="translate(15.196 14.745)" fill="#c0d1e1"/>
    <path id="Trazado_147236" data-name="Trazado 147236" d="M141.587,48.813,119.533,57.3l.637,1.655,21.417-8.236Z" transform="translate(39.128 15.978)" fill="#bdc3c7"/>
    <path id="Trazado_147237" data-name="Trazado 147237" d="M133.806,50.671c-.029-.17.041-.81-.154-.9-.165-.073-.3.406-.342.524a2.675,2.675,0,0,0-.005,1.525,3.762,3.762,0,0,0,.656,1.282,3.59,3.59,0,0,0,1.353,1.061,3.931,3.931,0,0,0,1.006.309V52.81a2.987,2.987,0,0,1-2.513-2.138" transform="translate(43.6 16.29)" fill="#185377"/>
    <path id="Trazado_147238" data-name="Trazado 147238" d="M133.764,43.53a3.041,3.041,0,0,1,3.041-3.041v-2.06a5.1,5.1,0,0,0-1.411,10c.028.419.073.859.086,1.24A2.011,2.011,0,0,0,136.8,51.4V46.571a3.041,3.041,0,0,1-3.041-3.041" transform="translate(43.112 12.579)" fill="#185377"/>
    <path id="Trazado_147239" data-name="Trazado 147239" d="M138.351,50.718c-.548-.222-1.163-.151-1.684-.487a1.186,1.186,0,0,1-.519-1.639,5.1,5.1,0,0,0-.6-10.162v2.06a3.041,3.041,0,0,1,0,6.082V51.4a3.386,3.386,0,0,0,.709.23c1.041.218,2.307,1.1,2.364,2.214a2.653,2.653,0,0,1-2.318,2.7,2.787,2.787,0,0,1-.755-.021v1.664a3.919,3.919,0,0,0,.924.052,4.388,4.388,0,0,0,4.147-4.19,3.529,3.529,0,0,0-2.267-3.329" transform="translate(44.37 12.579)" fill="#074b68"/>
    <path id="Trazado_147240" data-name="Trazado 147240" d="M136.148,48.813,158.2,57.3l-.636,1.655-21.417-8.236Z" transform="translate(44.567 15.978)" fill="#b0b4b7"/>
    <path id="Trazado_147241" data-name="Trazado 147241" d="M168.479,54.825h-50.7a3.827,3.827,0,0,0-3.823,3.831V88.371a3.827,3.827,0,0,0,3.823,3.831h50.7a4.225,4.225,0,0,0,4.221-4.228V59.054a4.226,4.226,0,0,0-4.221-4.229" transform="translate(37.301 17.946)" fill="#b0b4b7"/>
    <path id="Trazado_147242" data-name="Trazado 147242" d="M141.556,87.24V57.892h1.418V54.825H118.667a3.635,3.635,0,0,0-3.637,3.636V86.672a3.635,3.635,0,0,0,3.637,3.636h24.306V87.24Zm-20.229,0h-2.835V57.894h2.835Zm5.766,0h-2.835V57.894h2.835Zm5.766,0h-2.835V57.894h2.835Zm5.766,0H135.79V57.894h2.835Z" transform="translate(37.654 17.946)" fill="#4db5ea"/>
    <path id="Trazado_147243" data-name="Trazado 147243" d="M160.009,54.825H136.082v3.067H137.5V87.24h-1.416v3.067h23.927a4.015,4.015,0,0,0,4.015-4.015V58.84a4.015,4.015,0,0,0-4.015-4.015M143.264,87.24h-2.835V57.894h2.835Zm5.766,0H146.2V57.894h2.835Zm5.766,0h-2.835V57.894H154.8Zm5.766,0h-2.835V57.894h2.835Z" transform="translate(44.545 17.946)" fill="#21a0cc"/>
    <rect id="Rectángulo_34139" data-name="Rectángulo 34139" width="2.835" height="29.346" transform="translate(156.146 75.84)" fill="#1893d1"/>
    <rect id="Rectángulo_34140" data-name="Rectángulo 34140" width="2.835" height="29.346" transform="translate(161.912 75.84)" fill="#1893d1"/>
    <rect id="Rectángulo_34141" data-name="Rectángulo 34141" width="2.835" height="29.346" transform="translate(167.678 75.84)" fill="#1893d1"/>
    <rect id="Rectángulo_34142" data-name="Rectángulo 34142" width="2.835" height="29.346" transform="translate(173.442 75.84)" fill="#1893d1"/>
    <rect id="Rectángulo_34143" data-name="Rectángulo 34143" width="1.418" height="29.346" transform="translate(180.626 75.839)" fill="#1281ad"/>
    <rect id="Rectángulo_34144" data-name="Rectángulo 34144" width="1.418" height="29.346" transform="translate(179.21 75.84)" fill="#1893d1"/>
    <rect id="Rectángulo_34145" data-name="Rectángulo 34145" width="2.835" height="29.346" transform="translate(184.974 75.84)" fill="#1281ad"/>
    <rect id="Rectángulo_34146" data-name="Rectángulo 34146" width="2.835" height="29.346" transform="translate(190.74 75.84)" fill="#1281ad"/>
    <rect id="Rectángulo_34147" data-name="Rectángulo 34147" width="2.835" height="29.346" transform="translate(196.506 75.84)" fill="#1281ad"/>
    <rect id="Rectángulo_34148" data-name="Rectángulo 34148" width="2.835" height="29.346" transform="translate(202.272 75.84)" fill="#1281ad"/>
    <path id="Trazado_147244" data-name="Trazado 147244" d="M91.562,16.535c-.02.016-.035.033-.056.048L88.86,18.527l1.27,1.767a19.872,19.872,0,0,1,2.506-2.262Z" transform="translate(29.088 5.413)" fill="#333"/>
    <path id="Trazado_147245" data-name="Trazado 147245" d="M92.367,17.413A2.062,2.062,0,0,0,92.9,14.6a2.075,2.075,0,0,0-2.9-.3l-2.659,1.953a2.075,2.075,0,0,0-.587,2.859,2.076,2.076,0,0,0,2.9.3l.011-.008,2.647-1.945c.021-.015.036-.032.056-.048" transform="translate(28.283 4.535)" fill="#eabe32"/>
    <path id="Trazado_147246" data-name="Trazado 147246" d="M113.453,18.527l-2.647-1.945c-.02-.015-.036-.032-.054-.048l-1.075,1.5a19.975,19.975,0,0,1,2.507,2.262Z" transform="translate(35.902 5.413)" fill="#4d4d4d"/>
    <path id="Trazado_147247" data-name="Trazado 147247" d="M113.4,19.405l.012.008a2.074,2.074,0,0,0,2.9-.3,2.075,2.075,0,0,0-.587-2.859L113.074,14.3a2.074,2.074,0,0,0-2.9.3,2.063,2.063,0,0,0,.532,2.81c.019.016.035.033.054.048Z" transform="translate(35.95 4.535)" fill="#1893d1"/>
    <path id="Trazado_147248" data-name="Trazado 147248" d="M100.719,5.382a6.144,6.144,0,0,1,2.518,11.75V15.567H100.6v2.456c.038,0,.076,0,.115,0a19.916,19.916,0,0,1,2.518.177c.092.012.182.029.272.042a7.266,7.266,0,0,0-2.79-13.974c-.04,0-.077.005-.115.005V5.387c.038,0,.076-.005.115-.005" transform="translate(32.932 1.395)" fill="#4d4d4d"/>
    <path id="Trazado_147249" data-name="Trazado 147249" d="M102.367,18.021V15.565h-2.4V17.13a6.142,6.142,0,0,1,2.4-11.746V4.267a7.262,7.262,0,0,0-2.675,13.968c.092-.013.181-.029.272-.041a20.183,20.183,0,0,1,2.4-.173" transform="translate(31.168 1.397)" fill="#333"/>
    <path id="Trazado_147250" data-name="Trazado 147250" d="M99.249,9.738a2.018,2.018,0,1,0,0,4.036h2.46V9.738Z" transform="translate(31.827 3.188)" fill="#dde5ed"/>
    <path id="Trazado_147251" data-name="Trazado 147251" d="M103.3,13.774a2.018,2.018,0,1,0,0-4.036H100.6v4.036H103.3Z" transform="translate(32.932 3.188)" fill="#c0d1e1"/>
    <path id="Trazado_147252" data-name="Trazado 147252" d="M98.861,14.759c-.092.012-.181.028-.272.041.089.038.182.066.272.1Z" transform="translate(32.272 4.831)" fill="#c7d3d6"/>
    <path id="Trazado_147253" data-name="Trazado 147253" d="M102.589,14.9c.09-.033.183-.062.272-.1-.092-.013-.181-.031-.272-.042Z" transform="translate(33.582 4.831)" fill="#a2b8bd"/>
    <path id="Trazado_147254" data-name="Trazado 147254" d="M115.154,20.919a19.974,19.974,0,0,0-2.507-2.262,19.626,19.626,0,0,0-9.137-3.812c-.089.037-.181.066-.272.1V14.8a19.915,19.915,0,0,0-2.518-.178c-.04,0-.077.005-.115.005v2.984c.037,0,.076-.005.114-.005a16.686,16.686,0,0,1,0,33.372c-.038,0-.077,0-.114,0v3.17c.038,0,.076.005.115.005a19.742,19.742,0,0,0,14.435-33.234" transform="translate(32.932 4.788)" fill="#c0d1e1"/>
    <path id="Trazado_147255" data-name="Trazado 147255" d="M88.957,34.295a16.644,16.644,0,0,1,16.492-16.681V14.629a20.183,20.183,0,0,0-2.4.173v.142c-.09-.035-.182-.062-.271-.1a19.637,19.637,0,0,0-9.139,3.812,19.954,19.954,0,0,0-2.506,2.262,19.739,19.739,0,0,0,14.318,33.229V50.976A16.644,16.644,0,0,1,88.957,34.295" transform="translate(28.087 4.789)" fill="#dde5ed"/>
    <path id="Trazado_147256" data-name="Trazado 147256" d="M88.179,33.559a16.644,16.644,0,0,0,16.492,16.681V48.758a15.107,15.107,0,0,1,0-30.213V16.878A16.644,16.644,0,0,0,88.179,33.559" transform="translate(28.865 5.525)" fill="#f9773d"/>
    <path id="Trazado_147257" data-name="Trazado 147257" d="M100.719,18.541a15.112,15.112,0,0,1,0,30.224c-.04,0-.077-.005-.115-.005v1.481c.037,0,.076.005.114.005a16.687,16.687,0,0,0,0-33.373c-.038,0-.077.005-.114.005v1.668c.038,0,.076-.005.115-.005" transform="translate(32.932 5.523)" fill="#ea5f21"/>
    <path id="Trazado_147258" data-name="Trazado 147258" d="M115.831,33.242A15.112,15.112,0,0,0,100.719,18.13c-.04,0-.077.005-.115.005v1.536c.049-.016.085-.058.139-.058a.543.543,0,0,1,.54.54v1.784a.543.543,0,0,1-.54.542c-.054,0-.09-.042-.139-.058v8.99a1.9,1.9,0,0,1,.3-.1L104.054,20.9l1.053.281-2.456,10.595a1.994,1.994,0,0,1-.84,3.456l-1.207,3.6v3.9c.033-.008.057-.038.093-.038a.541.541,0,0,1,.54.54v1.784a.542.542,0,0,1-.54.54c-.036,0-.06-.032-.093-.038v2.826c.038,0,.076,0,.115,0a15.11,15.11,0,0,0,15.112-15.11m-2.138-.632a.542.542,0,0,1-.54.54h-1.784a.54.54,0,0,1,0-1.08h1.784a.542.542,0,0,1,.54.54m-4.01-5.8,1.545-.892a.541.541,0,1,1,.54.937l-1.545.892a.541.541,0,0,1-.54-.937m-.22,10.848a.544.544,0,0,1,.739-.2l1.544.892a.541.541,0,1,1-.542.936l-1.545-.892a.539.539,0,0,1-.2-.737M105.58,23.133l.923-1.6a.512.512,0,0,1,.7-.186l.053.031a.512.512,0,0,1,.187.7l-.923,1.6a.511.511,0,0,1-.7.186l-.054-.031a.511.511,0,0,1-.186-.7m.174,18.219a.542.542,0,0,1,.738.2l.893,1.546a.541.541,0,0,1-.937.54l-.892-1.544a.544.544,0,0,1,.2-.741" transform="translate(32.932 5.935)" fill="#c0d1e1"/>
    <path id="Trazado_147259" data-name="Trazado 147259" d="M103.855,45.019V43.237a.523.523,0,0,1,.447-.5v-3.9l-1.051,3.14-1.053-.281,1.4-6.971a1.968,1.968,0,0,1,.7-3.312V22.42a.519.519,0,0,1-.4-.483V20.153a.518.518,0,0,1,.4-.482V18.134a15.107,15.107,0,0,0,0,30.213V45.521a.524.524,0,0,1-.447-.5M91.444,32.564h0a.544.544,0,0,1,.542-.542h1.783a.541.541,0,1,1,0,1.082H91.984a.542.542,0,0,1-.54-.54m4.01,5.8-1.545.892a.541.541,0,0,1-.54-.937l1.545-.892a.541.541,0,0,1,.54.937m.222-10.847a.543.543,0,0,1-.739.2l-1.545-.891a.541.541,0,1,1,.542-.937l1.545.892a.543.543,0,0,1,.2.739m3.867,14.556-.892,1.545a.541.541,0,0,1-.937-.542l.892-1.545a.541.541,0,1,1,.937.542m-.131-18.263-.054.031a.51.51,0,0,1-.7-.187l-.923-1.6a.511.511,0,0,1,.186-.7l.053-.031a.512.512,0,0,1,.7.186l.924,1.6a.513.513,0,0,1-.187.7" transform="translate(29.234 5.936)" fill="#dde5ed"/>
    <path id="Trazado_147260" data-name="Trazado 147260" d="M101.763,30.632a2,2,0,0,1,.815.462l2.456-10.6-1.053-.281-3.154,10.409a1.993,1.993,0,0,1,.936.007" transform="translate(33.005 6.618)" fill="#333"/>
    <path id="Trazado_147261" data-name="Trazado 147261" d="M101.3,31.166a1.991,1.991,0,0,1-.879-.535l-1.4,6.971,1.053.281,1.051-3.14,1.207-3.6a1.992,1.992,0,0,1-1.027.027" transform="translate(32.413 10.027)" fill="#333"/>
    <path id="Trazado_147262" data-name="Trazado 147262" d="M99.666,29.522a2.016,2.016,0,0,0,.567,1.964,1.818,1.818,0,0,0,1.906.508,2.014,2.014,0,0,0-.911-3.924,1.971,1.971,0,0,0-.3.1,2,2,0,0,0-1.265,1.347m.658.177a1.359,1.359,0,1,1,.962,1.664,1.359,1.359,0,0,1-.962-1.664" transform="translate(32.603 9.172)" fill="#1893d1"/>
    <path id="Trazado_147263" data-name="Trazado 147263" d="M101.12,31.2a1.36,1.36,0,1,0-.964-1.663,1.358,1.358,0,0,0,.964,1.663" transform="translate(32.77 9.337)" fill="#ea5f21"/>
    <path id="Trazado_147264" data-name="Trazado 147264" d="M100.3,19.788v1.784a.518.518,0,0,0,.4.483c.049.016.085.058.139.058a.544.544,0,0,0,.54-.542V19.788a.542.542,0,0,0-.54-.54c-.054,0-.09.042-.139.058a.516.516,0,0,0-.4.482" transform="translate(32.833 6.301)" fill="#1893d1"/>
    <path id="Trazado_147265" data-name="Trazado 147265" d="M96.612,20.74a.513.513,0,0,0-.7-.187l-.053.032a.511.511,0,0,0-.187.7l.922,1.6a.512.512,0,0,0,.7.188l.054-.031a.514.514,0,0,0,.186-.7Z" transform="translate(31.296 6.706)" fill="#1893d1"/>
    <path id="Trazado_147266" data-name="Trazado 147266" d="M92.992,23.989a.541.541,0,1,0-.542.936L94,25.817a.541.541,0,0,0,.542-.936Z" transform="translate(30.175 7.829)" fill="#1893d1"/>
    <path id="Trazado_147267" data-name="Trazado 147267" d="M93.783,29.137a.542.542,0,0,0-.54-.54H91.459a.54.54,0,1,0,0,1.08h1.784a.541.541,0,0,0,.54-.54" transform="translate(29.761 9.361)" fill="#1893d1"/>
    <path id="Trazado_147268" data-name="Trazado 147268" d="M93.978,32.683l-1.545.893a.541.541,0,0,0,.54.937l1.545-.893a.541.541,0,1,0-.54-.937" transform="translate(30.169 10.675)" fill="#1893d1"/>
    <path id="Trazado_147269" data-name="Trazado 147269" d="M97.289,35.627a.544.544,0,0,0-.739.2l-.892,1.545a.542.542,0,0,0,.937.543l.892-1.545a.543.543,0,0,0-.2-.739" transform="translate(31.289 11.639)" fill="#1893d1"/>
    <path id="Trazado_147270" data-name="Trazado 147270" d="M100.267,37.178v1.784a.526.526,0,0,0,.447.5c.035.007.057.038.094.038a.542.542,0,0,0,.54-.54V37.178a.541.541,0,0,0-.54-.54c-.037,0-.06.031-.094.038a.524.524,0,0,0-.447.5" transform="translate(32.822 11.993)" fill="#1893d1"/>
    <path id="Trazado_147271" data-name="Trazado 147271" d="M105.245,37.927a.541.541,0,0,0,.937-.54l-.893-1.545a.541.541,0,1,0-.936.542Z" transform="translate(34.135 11.644)" fill="#1893d1"/>
    <path id="Trazado_147272" data-name="Trazado 147272" d="M109.039,34.541a.541.541,0,1,0,.542-.936l-1.545-.892a.541.541,0,1,0-.542.936Z" transform="translate(35.099 10.685)" fill="#1893d1"/>
    <path id="Trazado_147273" data-name="Trazado 147273" d="M108.307,29.172a.542.542,0,0,0,.54.542h1.784a.541.541,0,1,0,0-1.082h-1.784a.541.541,0,0,0-.54.54" transform="translate(35.453 9.372)" fill="#1893d1"/>
    <path id="Trazado_147274" data-name="Trazado 147274" d="M108.052,25.847l1.545-.892a.541.541,0,0,0-.54-.937l-1.545.892a.541.541,0,0,0,.54.937" transform="translate(35.105 7.838)" fill="#1893d1"/>
    <path id="Trazado_147275" data-name="Trazado 147275" d="M104.611,23.083a.51.51,0,0,0,.7-.187l.924-1.6a.511.511,0,0,0-.187-.7l-.053-.032a.514.514,0,0,0-.7.187l-.923,1.6a.511.511,0,0,0,.186.7Z" transform="translate(34.143 6.712)" fill="#1893d1"/>
    <path id="Trazado_147276" data-name="Trazado 147276" d="M84.726,113.012a43.15,43.15,0,0,1-8.016-1.491A42.074,42.074,0,0,1,49.47,87.607l-5.888-1.686c4.749,14.171,16.917,25.75,31.911,30.047a48.587,48.587,0,0,0,9.08,1.687c1.233.11,2.475.163,3.706.181v-4.659c-1.18-.008-2.373-.06-3.553-.165" transform="translate(14.266 28.125)" fill="#185377"/>
    <path id="Trazado_147277" data-name="Trazado 147277" d="M97.544,51.252l-4.7-2.558,12.61-3.46a1.237,1.237,0,0,0,.838-.621,1.6,1.6,0,0,0,.037-1.3,2.516,2.516,0,0,0-1.906-1.577,1.839,1.839,0,0,0-.317-.027,1.672,1.672,0,0,0-.368.038l-21.134,4.9A2.021,2.021,0,0,0,81.1,47.892a1.969,1.969,0,0,0,.331,1.869l14.14,18.49a2.545,2.545,0,0,0,1.634.957,2.861,2.861,0,0,0,.462.032,2.351,2.351,0,0,0,1.411-.5,2.187,2.187,0,0,0,.012-2.956C97.5,63.7,90.747,53.293,90.747,53.293q.579.253,1.155.515c14.822,6.677,25.611,21.61,24.62,38.529a36.523,36.523,0,0,1-13.554,26.381,39.687,39.687,0,0,1-25.436,8.937c-.092,0-.185,0-.276-.005v4.658c.214,0,.431.015.644.015a44.71,44.71,0,0,0,28.667-10.053,40.65,40.65,0,0,0,15.1-29.352c.986-16.8-8.482-33.15-24.122-41.665" transform="translate(25.289 13.654)" fill="#074b68"/>
    <path id="Trazado_147278" data-name="Trazado 147278" d="M52.2,92.522C59.218,85,65.069,78.431,65.069,72.035c0-6.678-4.4-11.037-11.2-11.037-4.847,0-8.08,2.039-11.31,5.547l3.565,3.622c1.9-2.152,4.18-4.018,6.91-4.018,3.788,0,5.85,2.434,5.85,6.224,0,5.49-6.184,11.828-16.046,21.507v3.792H66.8V92.125H58.1c-1.728,0-4.068.226-5.907.4" transform="translate(13.931 19.967)" fill="#074b68"/>
    <path id="Trazado_147279" data-name="Trazado 147279" d="M85.137,61.511H77.5l-14.041,22.3v4.415H79.119v9.282h6.018V88.224h4.457V83.186H85.137ZM79.119,75.037v8.15H69.813l6.464-10.017c1-1.923,2.006-3.735,2.9-5.6H79.4c-.11,2.093-.277,5.377-.277,7.47" transform="translate(20.774 20.135)" fill="#074b68"/>
    <path id="Trazado_147280" data-name="Trazado 147280" d="M95.088,73.584c-2.766,0-4.789,1.59-6.48,3.362l.165-4.318V64.359H84.027V96.441h4.745V80.855c1.691-1.818,2.847-2.771,4.622-2.771,2.231,0,3.179,1.363,3.179,5.041V96.441h4.747v-14c0-5.635-1.9-8.861-6.232-8.861" transform="translate(27.506 21.067)" fill="#074b68"/>
    <path id="Trazado_147281" data-name="Trazado 147281" d="M77.221,6.807h-5.9a1.438,1.438,0,0,1-1.443,1.232H53.868a1.438,1.438,0,0,1-1.443-1.232h-5.9a3.2,3.2,0,0,0-3.272,3.125V48.807a3.2,3.2,0,0,0,3.272,3.123h30.7a3.206,3.206,0,0,0,3.28-3.123V9.932a3.207,3.207,0,0,0-3.28-3.125" transform="translate(14.158 2.228)" fill="#dde5ed"/>
    <path id="Trazado_147282" data-name="Trazado 147282" d="M77.762,5.231h-5.9a1.269,1.269,0,0,1,.016.159V7.16a1.116,1.116,0,0,1-.017.163h5.9a3.208,3.208,0,0,1,3.28,3.126V49.323a3.205,3.205,0,0,1-3.28,3.123h-30.7a3.2,3.2,0,0,1-3.272-3.123V10.449a3.2,3.2,0,0,1,3.272-3.126h5.9a1.335,1.335,0,0,1-.017-.163V5.39a1.579,1.579,0,0,1,.016-.159h-5.9A5.347,5.347,0,0,0,41.6,10.449V49.323a5.345,5.345,0,0,0,5.465,5.215h30.7a5.351,5.351,0,0,0,5.471-5.215V10.449a5.353,5.353,0,0,0-5.471-5.218" transform="translate(13.618 1.712)" fill="#4d4d4d"/>
    <path id="Trazado_147283" data-name="Trazado 147283" d="M67.622,4.862H66.2V3.978a1.433,1.433,0,0,0-1.46-1.4H54.5a1.434,1.434,0,0,0-1.461,1.4v.884H51.61A1.437,1.437,0,0,0,50.167,6.1a1.27,1.27,0,0,0-.017.159V8.026a1.334,1.334,0,0,0,.017.163A1.44,1.44,0,0,0,51.61,9.421H67.622A1.439,1.439,0,0,0,69.065,8.19a1.119,1.119,0,0,0,.019-.163V6.257a1.27,1.27,0,0,0-.017-.159,1.439,1.439,0,0,0-1.444-1.236" transform="translate(16.416 0.846)" fill="#4d4d4d"/>
    <path id="Trazado_147284" data-name="Trazado 147284" d="M66.791,5.146H52a1.17,1.17,0,0,0-1.165,1.167v.058A1.17,1.17,0,0,0,52,7.537H66.791a1.17,1.17,0,0,0,1.165-1.165V6.313a1.17,1.17,0,0,0-1.165-1.167" transform="translate(16.64 1.684)" fill="#d0d5d8"/>
    <path id="Trazado_147285" data-name="Trazado 147285" d="M63.332,2.988H53.937a.781.781,0,0,0-.778.778V3.8a.782.782,0,0,0,.778.779h9.395A.782.782,0,0,0,64.11,3.8V3.766a.781.781,0,0,0-.778-.778" transform="translate(17.401 0.978)" fill="#d0d5d8"/>
    <path id="Trazado_147286" data-name="Trazado 147286" d="M72.131,17.749H53.676a.589.589,0,0,0-.588.587v.031a.589.589,0,0,0,.588.587H72.131a.589.589,0,0,0,.587-.587v-.031a.589.589,0,0,0-.587-.587" transform="translate(17.378 5.81)" fill="#1893d1"/>
    <path id="Trazado_147287" data-name="Trazado 147287" d="M46.691,20.31h6V14.431h-6Zm.722-5.157h4.555v4.435H47.413Z" transform="translate(15.284 4.724)" fill="#455256"/>
    <path id="Trazado_147288" data-name="Trazado 147288" d="M72.131,25.158H53.676a.589.589,0,0,0-.588.587v.031a.589.589,0,0,0,.588.587H72.131a.589.589,0,0,0,.587-.587v-.031a.589.589,0,0,0-.587-.587" transform="translate(17.378 8.235)" fill="#1893d1"/>
    <path id="Trazado_147289" data-name="Trazado 147289" d="M46.691,27.72h6V21.84h-6Zm.722-5.158h4.555V27H47.413Z" transform="translate(15.284 7.149)" fill="#455256"/>
    <path id="Trazado_147290" data-name="Trazado 147290" d="M72.131,32.568H53.676a.589.589,0,0,0-.588.587v.029a.589.589,0,0,0,.588.588H72.131a.589.589,0,0,0,.587-.588v-.029a.589.589,0,0,0-.587-.587" transform="translate(17.378 10.661)" fill="#1893d1"/>
    <path id="Trazado_147291" data-name="Trazado 147291" d="M46.691,35.129h6V29.25h-6Zm.722-5.157h4.555v4.435H47.413Z" transform="translate(15.284 9.575)" fill="#455256"/>
    <path id="Trazado_147292" data-name="Trazado 147292" d="M53.049,26.622a.6.6,0,0,0-.774.354l-2.526,6.779-2.375-4.59a.6.6,0,0,0-1.07.554l3,5.8a.6.6,0,0,0,.535.327h.036a.6.6,0,0,0,.528-.39l3-8.052a.6.6,0,0,0-.354-.775" transform="translate(15.135 8.702)" fill="#ea5f21"/>
    <path id="Trazado_147293" data-name="Trazado 147293" d="M53.049,20.6a.6.6,0,0,0-.774.354l-2.526,6.777-2.375-4.589a.6.6,0,0,0-1.07.554l3,5.8a.6.6,0,0,0,.535.325h.036a.6.6,0,0,0,.528-.39l3-8.052a.6.6,0,0,0-.354-.774" transform="translate(15.135 6.729)" fill="#ea5f21"/>
    <path id="Trazado_147294" data-name="Trazado 147294" d="M53.049,12.309a.6.6,0,0,0-.774.356l-2.526,6.777-2.375-4.59a.6.6,0,0,0-1.07.554l3,5.8a.6.6,0,0,0,.535.325h.036a.6.6,0,0,0,.528-.39l3-8.052a.6.6,0,0,0-.354-.775" transform="translate(15.135 4.017)" fill="#ea5f21"/>
    <path id="Trazado_147295" data-name="Trazado 147295" d="M13.787,79.158H30.724a1.75,1.75,0,0,0,1.751-1.749V68.124H13.787Z" transform="translate(4.513 22.3)" fill="#b0b4b7"/>
    <rect id="Rectángulo_34149" data-name="Rectángulo 34149" width="18.688" height="0.692" transform="translate(18.3 88.105)" fill="#b0b4b7"/>
    <rect id="Rectángulo_34150" data-name="Rectángulo 34150" width="0.033" height="1.629" transform="translate(36.988 88.796)" fill="#bce2e8"/>
    <rect id="Rectángulo_34151" data-name="Rectángulo 34151" width="17.695" height="1.629" transform="translate(0.605 88.795)" fill="#d2f3f8"/>
    <rect id="Rectángulo_34152" data-name="Rectángulo 34152" width="18.688" height="1.629" transform="translate(18.3 88.795)" fill="#bce2e8"/>
    <rect id="Rectángulo_34153" data-name="Rectángulo 34153" width="0.033" height="1.63" transform="translate(36.988 86.475)" fill="#bce2e8"/>
    <rect id="Rectángulo_34154" data-name="Rectángulo 34154" width="18.688" height="1.63" transform="translate(18.3 86.474)" fill="#bce2e8"/>
    <rect id="Rectángulo_34155" data-name="Rectángulo 34155" width="17.695" height="1.63" transform="translate(0.605 86.474)" fill="#d2f3f8"/>
    <path id="Trazado_147296" data-name="Trazado 147296" d="M.521,53.794l.05.089H.581Z" transform="translate(0.171 17.609)" fill="#58a39a"/>
    <path id="Trazado_147297" data-name="Trazado 147297" d="M27.79,53.884l.05-.089-.06.089Z" transform="translate(9.094 17.609)" fill="#4a938a"/>
    <rect id="Rectángulo_34156" data-name="Rectángulo 34156" width="18.685" height="14.982" transform="translate(18.301 71.493)" fill="#b0b4b7"/>
    <path id="Trazado_147298" data-name="Trazado 147298" d="M.43,53.862V82.079a1.75,1.75,0,0,0,1.749,1.749h15.98V72.793H.465V71.167H18.159v-.693H.465v-1.63H18.159V53.862Z" transform="translate(0.141 17.631)" fill="#bdc3c7"/>
    <path id="Trazado_147299" data-name="Trazado 147299" d="M32.363,54.179H13.788V51.352H28.728Z" transform="translate(4.513 16.81)" fill="#b0b4b7"/>
    <path id="Trazado_147300" data-name="Trazado 147300" d="M18.116,51.352v2.827H.566L4.2,51.352Z" transform="translate(0.185 16.81)" fill="#bdc3c7"/>
    <path id="Trazado_147301" data-name="Trazado 147301" d="M17.018,75.948H27.1V69.979H17.018Zm.6-.581h-.341V70.418h.341Zm.372,0h-.341V70.418h.341Zm1.254,0h-.611V70.418h.611Zm.68,0h-.341V70.418h.341Zm.576,0h-.341V70.418H20.5Zm1.153,0h-.678V70.418h.678Zm.576,0h-.341V70.418h.341Zm.782,0h-.341V70.418h.341Zm.372,0H23.04V70.418h.341Zm.782,0h-.341V70.418h.341Zm.372,0h-.341V70.418h.341Zm.37,0h-.341V70.418h.341Zm.885,0h-.341V70.418h.341Zm.473,0h-.341V70.418h.341Zm.577,0H26.5V70.418h.341Z" transform="translate(5.571 22.907)" fill="#dde5ed"/>
    <rect id="Rectángulo_34157" data-name="Rectángulo 34157" width="0.341" height="4.948" transform="translate(22.845 93.325)" fill="#545057"/>
    <rect id="Rectángulo_34158" data-name="Rectángulo 34158" width="0.341" height="4.948" transform="translate(23.217 93.325)" fill="#545057"/>
    <rect id="Rectángulo_34159" data-name="Rectángulo 34159" width="0.611" height="4.948" transform="translate(24.203 93.325)" fill="#545057"/>
    <rect id="Rectángulo_34160" data-name="Rectángulo 34160" width="0.341" height="4.948" transform="translate(25.152 93.325)" fill="#545057"/>
    <rect id="Rectángulo_34161" data-name="Rectángulo 34161" width="0.341" height="4.948" transform="translate(25.728 93.325)" fill="#545057"/>
    <rect id="Rectángulo_34162" data-name="Rectángulo 34162" width="0.678" height="4.948" transform="translate(26.544 93.325)" fill="#545057"/>
    <rect id="Rectángulo_34163" data-name="Rectángulo 34163" width="0.341" height="4.948" transform="translate(27.457 93.325)" fill="#545057"/>
    <rect id="Rectángulo_34164" data-name="Rectángulo 34164" width="0.341" height="4.948" transform="translate(28.239 93.325)" fill="#545057"/>
    <rect id="Rectángulo_34165" data-name="Rectángulo 34165" width="0.341" height="4.948" transform="translate(28.611 93.325)" fill="#545057"/>
    <rect id="Rectángulo_34166" data-name="Rectángulo 34166" width="0.341" height="4.948" transform="translate(29.393 93.325)" fill="#545057"/>
    <rect id="Rectángulo_34167" data-name="Rectángulo 34167" width="0.341" height="4.948" transform="translate(29.763 93.325)" fill="#545057"/>
    <rect id="Rectángulo_34168" data-name="Rectángulo 34168" width="0.341" height="4.948" transform="translate(30.135 93.325)" fill="#545057"/>
    <rect id="Rectángulo_34169" data-name="Rectángulo 34169" width="0.341" height="4.948" transform="translate(31.019 93.325)" fill="#545057"/>
    <rect id="Rectángulo_34170" data-name="Rectángulo 34170" width="0.341" height="4.948" transform="translate(31.492 93.325)" fill="#545057"/>
    <rect id="Rectángulo_34171" data-name="Rectángulo 34171" width="0.341" height="4.948" transform="translate(32.07 93.325)" fill="#545057"/>
    <path id="Trazado_147302" data-name="Trazado 147302" d="M24.134,60.7v2.267c-.666.057-1.185.291-1.289.584h3.2c-.1-.293-.623-.527-1.289-.584V60.7a1.938,1.938,0,0,0,1.323-1.963c0-.021,0-.042,0-.062H22.814c0,.02,0,.041,0,.062A1.94,1.94,0,0,0,24.134,60.7" transform="translate(7.467 19.207)" fill="#ea5f21"/>
    <path id="Trazado_147303" data-name="Trazado 147303" d="M20.293,60.736a1.128,1.128,0,0,1,.366-.1,1.7,1.7,0,0,1,.678.076c.027.907.02,2.227,0,2.448a.987.987,0,0,1-.178.563.567.567,0,0,1-.678.155.478.478,0,0,1-.219-.258,1.048,1.048,0,0,1-.052-.315.462.462,0,0,0-.328.064c-.24.165-.084.45.08.611a1.141,1.141,0,0,0,.425.267.857.857,0,0,0,.277.046,1.186,1.186,0,0,0,.891-.414,1.933,1.933,0,0,0,.2-1.192V60.736a1.409,1.409,0,0,1,.5-.1,1.427,1.427,0,0,1,.546.1.729.729,0,0,1,.81,0,2.162,2.162,0,0,0-1.826-1.716.326.326,0,0,0-.585,0,2.071,2.071,0,0,0-1.826,1.718.916.916,0,0,1,.916,0" transform="translate(6.343 19.26)" fill="#ea5f21"/>
    <path id="Trazado_147304" data-name="Trazado 147304" d="M20.438,58.988h.06a.178.178,0,0,0,0-.356h-.06a.178.178,0,0,0,0,.356" transform="translate(6.634 19.193)" fill="#ea5f21"/>
    <path id="Trazado_147305" data-name="Trazado 147305" d="M20.953,58.585a.178.178,0,0,0,0-.356.178.178,0,0,0,0,.356" transform="translate(6.803 19.061)" fill="#ea5f21"/>
    <path id="Trazado_147306" data-name="Trazado 147306" d="M21.579,58.794v-.031a.178.178,0,0,0-.356,0v.031a.178.178,0,0,0,.356,0" transform="translate(6.947 19.18)" fill="#ea5f21"/>
    <path id="Trazado_147307" data-name="Trazado 147307" d="M21.87,58.28V58.25a.178.178,0,0,0-.356,0v.029a.178.178,0,0,0,.356,0" transform="translate(7.042 19.011)" fill="#ea5f21"/>
    <path id="Trazado_147308" data-name="Trazado 147308" d="M22.248,58.832a.179.179,0,0,0,0-.357.179.179,0,0,0,0,.357" transform="translate(7.227 19.141)" fill="#ea5f21"/>
    <path id="Trazado_147309" data-name="Trazado 147309" d="M17.345,60.025a.226.226,0,0,0,.113.028.214.214,0,0,0,.171-.076l.41-.515V63.3a.21.21,0,0,0,.411,0V59.409l.519.575a.237.237,0,0,0,.288.036.153.153,0,0,0,.042-.238l-.891-.986a.238.238,0,0,0-.17-.069.217.217,0,0,0-.166.077l-.787.988a.151.151,0,0,0,.058.234" transform="translate(5.647 19.224)" fill="#ea5f21"/>
    <path id="Trazado_147310" data-name="Trazado 147310" d="M15.437,60.025a.224.224,0,0,0,.111.028.217.217,0,0,0,.173-.076l.41-.515V63.3a.21.21,0,0,0,.411,0V59.409l.519.575a.236.236,0,0,0,.287.036.151.151,0,0,0,.042-.238L16.5,58.8a.239.239,0,0,0-.171-.069.219.219,0,0,0-.166.077l-.786.988a.151.151,0,0,0,.058.234" transform="translate(5.023 19.224)" fill="#ea5f21"/>
    <path id="Trazado_147311" data-name="Trazado 147311" d="M19.445,62.439H15.739a.206.206,0,1,0,0,.411h3.706a.206.206,0,1,0,0-.411" transform="translate(5.085 20.439)" fill="#ea5f21"/>
    <rect id="Rectángulo_34172" data-name="Rectángulo 34172" width="36.124" height="0.504" transform="translate(0.751 70.989)" fill="#ea5f21"/>
    <rect id="Rectángulo_34173" data-name="Rectángulo 34173" width="1.467" height="2.827" transform="translate(16.868 68.143)" fill="#d2f3f8"/>
    <path id="Trazado_147312" data-name="Trazado 147312" d="M15.3,51.338H13.813v2.827h1.56Z" transform="translate(4.522 16.805)" fill="#bce2e8"/>
    <path id="Trazado_147313" data-name="Trazado 147313" d="M12.675,53.848v2.421l.434-.477.581.477.494-.6V53.848Z" transform="translate(4.149 17.627)" fill="#d2f3f8"/>
    <path id="Trazado_147314" data-name="Trazado 147314" d="M13.813,53.848v1.825l.486.88.684-.446.514.446V53.848Z" transform="translate(4.522 17.627)" fill="#bce2e8"/>
    <path id="Trazado_147315" data-name="Trazado 147315" d="M.429,70.8v2.513H1.972V70.8Z" transform="translate(0.14 23.176)" fill="#d2f3f8"/>
    <path id="Trazado_147316" data-name="Trazado 147316" d="M3.215,72.127l.385-.376-.238-.544.045-.4H1.591v2.513H3.215L2.9,72.974l.7-.458Z" transform="translate(0.521 23.176)" fill="#bce2e8"/>
    <rect id="Rectángulo_34174" data-name="Rectángulo 34174" width="10.4" height="0.331" transform="translate(4.79 77.189)" fill="#545057"/>
    <rect id="Rectángulo_34175" data-name="Rectángulo 34175" width="10.4" height="0.332" transform="translate(4.79 78.245)" fill="#545057"/>
    <rect id="Rectángulo_34176" data-name="Rectángulo 34176" width="10.4" height="0.332" transform="translate(4.79 79.302)" fill="#545057"/>
    <rect id="Rectángulo_34177" data-name="Rectángulo 34177" width="10.4" height="0.331" transform="translate(4.79 80.359)" fill="#545057"/>
    <rect id="Rectángulo_34178" data-name="Rectángulo 34178" width="10.4" height="0.332" transform="translate(4.79 81.415)" fill="#545057"/>
    <path id="Trazado_147317" data-name="Trazado 147317" d="M40.343,49.733H34.751V41.992l-2.1-2.1a1.213,1.213,0,0,0-.478.965v10.06a1.218,1.218,0,0,0,1.219,1.217h6.949V89.767H0V93.3H4.627V96.44H9.436V93.3H32.667V96.44h4.808V93.3h7.188V52.135h.232l-2.4-2.4Z" transform="translate(0 13.059)" fill="#185377"/>
    <path id="Trazado_147318" data-name="Trazado 147318" d="M46.254,39.7H25.342a1.205,1.205,0,0,0-.741.252l2.1,2.1v-.232H44.9V49.8H34.439l2.4,2.4h9.412a1.216,1.216,0,0,0,1.217-1.217V40.921A1.217,1.217,0,0,0,46.254,39.7" transform="translate(8.053 12.996)" fill="#074b68"/>
    <path id="Trazado_147319" data-name="Trazado 147319" d="M43.689,42.781v1.076H28.508l1.427,1.428H43.689v1.076H31.013l2.91,2.911H44.379V41.3h-18.2v.234l1.249,1.249Z" transform="translate(8.57 13.519)" fill="#eabe32"/>
    <path id="Trazado_147320" data-name="Trazado 147320" d="M31.773,49.215h2.149l-2.91-2.91h-3.94V45.228h2.862L28.508,43.8H27.073V42.723h.358l-1.25-1.249v7.741Z" transform="translate(8.57 13.576)" fill="#f7dc54"/>
    <path id="Trazado_147321" data-name="Trazado 147321" d="M26.853,42.415v1.076h1.434l-1.076-1.076Z" transform="translate(8.79 13.884)" fill="#f9773d"/>
    <path id="Trazado_147322" data-name="Trazado 147322" d="M43.381,42.415H27.122L28.2,43.492H43.381Z" transform="translate(8.878 13.884)" fill="#ea5f21"/>
    <path id="Trazado_147323" data-name="Trazado 147323" d="M26.853,44.3V45.38h3.938L29.715,44.3Z" transform="translate(8.79 14.502)" fill="#f9773d"/>
    <path id="Trazado_147324" data-name="Trazado 147324" d="M35.167,45.379h7.6V44.3H29.009l1.078,1.078h5.08Z" transform="translate(9.496 14.502)" fill="#ea5f21"/>
    <path id="Trazado_147325" data-name="Trazado 147325" d="M42.3,136.245l-25.636-5.933,3.268-16.22,25.638,5.932Z" transform="translate(5.456 37.347)" fill="#f7dc54"/>
    <path id="Trazado_147326" data-name="Trazado 147326" d="M45.335,117.454l-.206,1.018-25.636-5.933.2-1.018Z" transform="translate(6.381 36.505)" fill="#f7dc54"/>
    <path id="Trazado_147327" data-name="Trazado 147327" d="M19.094,114.673l.482-2.394.048.012-.483,2.395Z" transform="translate(6.25 36.753)" fill="#bce2e8"/>
    <path id="Trazado_147328" data-name="Trazado 147328" d="M62.721,124.769l-24.277-5.617.482-2.395L63.2,122.375Z" transform="translate(12.584 38.22)" fill="#bce2e8"/>
    <path id="Trazado_147329" data-name="Trazado 147329" d="M44.767,120.614l-25.638-5.933.483-2.393,25.636,5.932Z" transform="translate(6.262 36.757)" fill="#d2f3f8"/>
    <path id="Trazado_147330" data-name="Trazado 147330" d="M19.612,112.1l.482-2.395.046.012-.482,2.395Z" transform="translate(6.42 35.912)" fill="#bce2e8"/>
    <path id="Trazado_147331" data-name="Trazado 147331" d="M45.285,118.044l-25.638-5.933.482-2.393,25.638,5.932Z" transform="translate(6.431 35.915)" fill="#d2f3f8"/>
    <path id="Trazado_147332" data-name="Trazado 147332" d="M63.722,119.8,63.24,122.2l-24.277-5.619.482-2.393Z" transform="translate(12.754 37.378)" fill="#bce2e8"/>
    <path id="Trazado_147333" data-name="Trazado 147333" d="M60.918,101.7l-.1.115-.013,0Z" transform="translate(19.905 33.292)" fill="#58a39a"/>
    <path id="Trazado_147334" data-name="Trazado 147334" d="M23.472,93.182l-.044-.147.056.15Z" transform="translate(7.669 30.454)" fill="#4a938a"/>
    <path id="Trazado_147335" data-name="Trazado 147335" d="M24.591,93.182l.012,0-.056-.15,22.6,5.23-1.159,5.745,2.967.688-.473,2.347-.3,1.483-2.537,12.585L20.01,115.178,24.45,93.15Z" transform="translate(6.55 30.454)" fill="#f7dc54"/>
    <path id="Trazado_147336" data-name="Trazado 147336" d="M68.949,103.032l-.013,0,.109-.111L47.808,98l-1.157,5.746-2.923-.677-.473,2.348-.3,1.481L40.42,119.486,64.7,125.1l-.482,2.395-24.277-5.619-.206,1.018,24.277,5.617-.482,2.395-24.277-5.617-3.269,16.22,24.325,5.629,8.877-44.054Z" transform="translate(11.778 32.08)" fill="#eabe32"/>
    <path id="Trazado_147337" data-name="Trazado 147337" d="M43.755,97.831,42.3,105.067l-2.967-.686,1.493-7.407,2.967.686Z" transform="translate(12.874 31.744)" fill="#d2f3f8"/>
    <path id="Trazado_147338" data-name="Trazado 147338" d="M41.565,104.9l1.459-7.237.033-.17,2.923.677-1.492,7.407Z" transform="translate(13.606 31.913)" fill="#bce2e8"/>
    <path id="Trazado_147339" data-name="Trazado 147339" d="M38.628,112.181a1.671,1.671,0,0,0-.336-.346c-.07-.056-.146-.109-.228-.162a3.636,3.636,0,0,0-.561-.288c-.1-.042-.211-.082-.323-.121l.672-3.332a2.349,2.349,0,0,0,1.8-1.065,3.641,3.641,0,0,0,.6-1.4c.007-.031.009-.062.015-.093l-4.485-1.038c-.007.031-.016.061-.021.092a3.556,3.556,0,0,0,.248,2.231,2.284,2.284,0,0,0,.986,1.075l-.673,3.334c-.115-.017-.23-.028-.341-.035a3.4,3.4,0,0,0-.621.016,2.3,2.3,0,0,0-.271.046,1.054,1.054,0,0,0-.707.422l4.4,1.018a.773.773,0,0,0-.146-.353" transform="translate(11.253 34.153)" fill="#f9773d"/>
    <path id="Trazado_147340" data-name="Trazado 147340" d="M35.82,105.95a3.238,3.238,0,0,0-.653-.919,3.039,3.039,0,0,0-.589-.469,3.075,3.075,0,0,0-.43-.211.488.488,0,0,0-.348-.361.43.43,0,0,0-.254.02.512.512,0,0,0-.2.154,2.894,2.894,0,0,0-3.014,1.945c.028-.009.064-.02.1-.029a1.181,1.181,0,0,1,.317-.037,1.406,1.406,0,0,1,.2.023,1.255,1.255,0,0,1,.634.336,1.444,1.444,0,0,1,.532-.032c.048.007.094.015.141.024a2.306,2.306,0,0,1,.292.081,2.407,2.407,0,0,1,.312.126,1,1,0,0,1,.165.1c-.029.167-.061.344-.1.527-.049.273-.1.557-.158.839-.036.186-.073.372-.109.552-.019.09-.036.179-.053.265-.141.692-.264,1.256-.311,1.415-.021.072-.041.142-.065.211a1.86,1.86,0,0,1-.081.2,1.123,1.123,0,0,1-.264.36.625.625,0,0,1-.1.076.783.783,0,0,1-.64.073.729.729,0,0,1-.123-.054.6.6,0,0,1-.113-.082.727.727,0,0,1-.226-.447,1.8,1.8,0,0,1,.023-.478.638.638,0,0,0-.238-.053.572.572,0,0,0-.231.042.379.379,0,0,0-.235.289.98.98,0,0,0,.163.633,1.675,1.675,0,0,0,.5.528,1.111,1.111,0,0,0,.142.074,1.233,1.233,0,0,0,.226.08,1.449,1.449,0,0,0,.184.031,1.765,1.765,0,0,0,.374-.009,1.666,1.666,0,0,0,.356-.092,1.277,1.277,0,0,0,.429-.255,1.318,1.318,0,0,0,.151-.171,3.728,3.728,0,0,0,.48-1.517q.173-.854.344-1.71.117-.579.234-1.159a1.989,1.989,0,0,1,.307-.029,1.91,1.91,0,0,1,.413.041,1.8,1.8,0,0,1,.234.066,1.941,1.941,0,0,1,.36.173c.049.028.09.057.125.081a.988.988,0,0,1,.632-.041,1.024,1.024,0,0,1,.479.3,3.423,3.423,0,0,0-.133-1.009,3.353,3.353,0,0,0-.191-.5" transform="translate(9.82 34.037)" fill="#f9773d"/>
    <path id="Trazado_147341" data-name="Trazado 147341" d="M34.07,103.641a.235.235,0,0,0,.2-.2l.009-.044a.251.251,0,1,0-.488-.113l-.009.044a.26.26,0,0,0,.038.207.265.265,0,0,0,.248.108" transform="translate(11.057 33.742)" fill="#f9773d"/>
    <path id="Trazado_147342" data-name="Trazado 147342" d="M25.283,103.98a.275.275,0,0,0,.119-.06l.715-.627-1.136,5.639a.284.284,0,0,0,.232.316.267.267,0,0,0,.332-.185l1.152-5.72.542,1.014a.312.312,0,0,0,.165.141.393.393,0,0,0,.11.02.359.359,0,0,0,.11-.017.234.234,0,0,0,.157-.235.258.258,0,0,0-.029-.1l-.928-1.735a.313.313,0,0,0-.465-.094l-1.371,1.2a.216.216,0,0,0-.078.178A.263.263,0,0,0,25,103.9a.3.3,0,0,0,.11.057c.013.005.024.016.037.02a.323.323,0,0,0,.138,0" transform="translate(8.154 33.477)" fill="#f9773d"/>
    <path id="Trazado_147343" data-name="Trazado 147343" d="M29.844,108.861a.273.273,0,0,0-.13-.078l-5.084-1.176a.277.277,0,0,0-.218.042.316.316,0,0,0,.1.561l5.085,1.176a.278.278,0,0,0,.3-.123.318.318,0,0,0,.045-.111.324.324,0,0,0,0-.123.3.3,0,0,0-.093-.167" transform="translate(7.948 35.222)" fill="#f9773d"/>
    <path id="Trazado_147344" data-name="Trazado 147344" d="M33.426,104.3a.233.233,0,0,0,.295-.2l.009-.044a.252.252,0,0,0-.194-.308.233.233,0,0,0-.181.025.241.241,0,0,0-.114.17l-.009.045a.252.252,0,0,0,.194.308" transform="translate(10.876 33.959)" fill="#f9773d"/>
    <path id="Trazado_147345" data-name="Trazado 147345" d="M32.1,104.028l.081.019a.237.237,0,0,0,.288-.207.282.282,0,0,0-.023-.192.231.231,0,0,0-.159-.123l-.082-.02a.223.223,0,0,0-.254.115.27.27,0,0,0,.149.409" transform="translate(10.445 33.879)" fill="#f9773d"/>
    <path id="Trazado_147346" data-name="Trazado 147346" d="M32.922,103.6h0a.225.225,0,0,0,.255-.115.314.314,0,0,0,.011-.285.231.231,0,0,0-.159-.123.225.225,0,0,0-.255.114.317.317,0,0,0-.012.287.233.233,0,0,0,.161.123" transform="translate(10.715 33.739)" fill="#f9773d"/>
    <path id="Trazado_147347" data-name="Trazado 147347" d="M34.627,104.373a.215.215,0,0,0,.192-.041.285.285,0,0,0,.1-.166.314.314,0,0,0,.005-.1.239.239,0,0,0-.187-.218.225.225,0,0,0-.255.114.334.334,0,0,0-.035.094.3.3,0,0,0,.023.192.233.233,0,0,0,.161.123" transform="translate(11.273 33.992)" fill="#f9773d"/>
    <path id="Trazado_147348" data-name="Trazado 147348" d="M29.442,103.037a.29.29,0,0,0-.093-.1.325.325,0,0,0-.121-.054.3.3,0,0,0-.251.058l-1.372,1.2a.226.226,0,0,0-.053.273.274.274,0,0,0,.065.088.312.312,0,0,0,.146.077.287.287,0,0,0,.259-.057l.714-.628L27.6,109.539a.282.282,0,0,0,.232.313.263.263,0,0,0,.332-.185l1.152-5.717.542,1.011a.319.319,0,0,0,.385.143.253.253,0,0,0,.089-.056.228.228,0,0,0,.038-.277Z" transform="translate(9.011 33.676)" fill="#f9773d"/>
    <path id="Trazado_147349" data-name="Trazado 147349" d="M24.113,117.831l-1.542,7.649,12.05,2.789,1.544-7.648Zm11.223,3.188.406.094-1.277,6.339-.408-.094Zm-.446-.1.409.094-1.277,6.341-.41-.094Zm-1.5-.348.729.17-1.277,6.339-.731-.169Zm-.814-.188.409.1-1.277,6.341-.409-.094Zm-.689-.159.41.1-1.28,6.341-.407-.094ZM30.51,119.9l.811.188-1.277,6.341-.814-.188Zm-.69-.159.409.094-1.277,6.342-.41-.1Zm-.934-.216.409.094-1.277,6.341-.41-.094Zm-.445-.1.41.094-1.28,6.339-.407-.093Zm-.934-.216.409.094-1.277,6.341-.409-.094Zm-.443-.1.407.1-1.277,6.339-.407-.094Zm-.443-.1.407.094-1.278,6.341-.409-.094Zm-1.059-.244.41.094-1.28,6.339-.407-.094Zm-.565-.131.409.094-1.277,6.341-.41-.1Zm-.689-.159.407.093L23.435,124.9l-.407-.1Z" transform="translate(7.388 38.571)" fill="#dde5ed"/>
    <path id="Trazado_147350" data-name="Trazado 147350" d="M31.633,126.667l-.409-.094,1.278-6.341.407.1Z" transform="translate(10.221 39.357)" fill="#545057"/>
    <path id="Trazado_147351" data-name="Trazado 147351" d="M31.3,126.591l-.409-.094,1.278-6.342.409.1Z" transform="translate(10.111 39.332)" fill="#545057"/>
    <path id="Trazado_147352" data-name="Trazado 147352" d="M30.489,126.4l-.73-.169,1.278-6.341.73.17Z" transform="translate(9.741 39.246)" fill="#545057"/>
    <path id="Trazado_147353" data-name="Trazado 147353" d="M29.555,126.187l-.409-.094,1.278-6.342.409.1Z" transform="translate(9.541 39.199)" fill="#545057"/>
    <path id="Trazado_147354" data-name="Trazado 147354" d="M29.036,126.067l-.409-.094,1.278-6.342.407.1Z" transform="translate(9.371 39.16)" fill="#545057"/>
    <path id="Trazado_147355" data-name="Trazado 147355" d="M28.4,125.92l-.812-.188,1.278-6.341.811.188Z" transform="translate(9.031 39.082)" fill="#545057"/>
    <path id="Trazado_147356" data-name="Trazado 147356" d="M27.478,125.707l-.409-.094,1.278-6.342.407.1Z" transform="translate(8.861 39.042)" fill="#545057"/>
    <path id="Trazado_147357" data-name="Trazado 147357" d="M26.774,125.544l-.409-.094,1.278-6.342.409.1Z" transform="translate(8.63 38.989)" fill="#545057"/>
    <path id="Trazado_147358" data-name="Trazado 147358" d="M26.44,125.465l-.409-.093,1.278-6.342.407.1Z" transform="translate(8.521 38.964)" fill="#545057"/>
    <path id="Trazado_147359" data-name="Trazado 147359" d="M25.736,125.3l-.409-.094,1.278-6.342.407.1Z" transform="translate(8.291 38.91)" fill="#545057"/>
    <path id="Trazado_147360" data-name="Trazado 147360" d="M25.4,125.225l-.409-.094,1.278-6.341.407.1Z" transform="translate(8.181 38.885)" fill="#545057"/>
    <path id="Trazado_147361" data-name="Trazado 147361" d="M25.066,125.148l-.409-.094,1.278-6.341.409.094Z" transform="translate(8.071 38.86)" fill="#545057"/>
    <path id="Trazado_147362" data-name="Trazado 147362" d="M24.27,124.963l-.409-.094,1.278-6.341.409.1Z" transform="translate(7.811 38.799)" fill="#545057"/>
    <path id="Trazado_147363" data-name="Trazado 147363" d="M23.843,124.865l-.409-.094,1.278-6.341.407.1Z" transform="translate(7.671 38.767)" fill="#545057"/>
    <path id="Trazado_147364" data-name="Trazado 147364" d="M23.324,124.745l-.409-.094,1.278-6.341.409.094Z" transform="translate(7.501 38.728)" fill="#545057"/>
    <path id="Trazado_147365" data-name="Trazado 147365" d="M73.371,105.411c-.005.02-.009.042-.013.062-2.233,12.047-4.822,24.35-7.419,36.432h-.025c-.418,1.808-.681,3.056-.738,3.544-.175.811-.35,1.625-.524,2.434-3.005-.65-6.7-1.444-10.677-2.295-9.678-2.068-21.073-4.468-28.515-5.895l-.934,4.326c11.223,2.152,30.36,6.281,41.355,8.654a2.212,2.212,0,0,0,2.629-1.7c.02-.1.041-.19.061-.284,0,0,.414.041,1.054.108.093-.7.192-1.4.292-2.1.478.064.952.115,1.4.163,2.231.239,4.423.311,4.516.313h.065a1.989,1.989,0,0,0,1.949-1.589l4.437-21.541a12.024,12.024,0,0,0-1.318-8.361s-2.706-4.486-4.168-6.572q.462-2.407.908-4.8c.016-.069.037-.138.054-.207l-3.411-3.41a10.819,10.819,0,0,0-.973,2.713M77.5,119.652a8.053,8.053,0,0,1,.883,5.6L74.286,145.12c-1.392-.085-2.726-.218-3.778-.369,1.411-8.971,3.29-18.32,5.124-27.662Z" transform="translate(8.028 33.617)" fill="#074b68"/>
    <path id="Trazado_147366" data-name="Trazado 147366" d="M78.78,102.568a10.077,10.077,0,0,0-6.751-3.86,9.917,9.917,0,0,0-9.971,5.316l3.411,3.41a5.5,5.5,0,0,1,6.127-4.322c.048.005.1.009.145.012a5.722,5.722,0,0,1,3.531,2.14,2.276,2.276,0,0,1,.587,1.723,2.212,2.212,0,1,0,4.324.934,6.51,6.51,0,0,0-1.4-5.353" transform="translate(20.314 32.291)" fill="#185377"/>
    <path id="Trazado_147367" data-name="Trazado 147367" d="M70.288,137.946a10.215,10.215,0,0,0-17.956-.023,10.055,10.055,0,0,0-.776,1.83,10.216,10.216,0,1,0,18.733-1.808m-13.523.311a6.426,6.426,0,1,1-1.894,4.542,6.394,6.394,0,0,1,1.894-4.542" transform="translate(16.725 43.402)" fill="#333"/>
    <path id="Trazado_147368" data-name="Trazado 147368" d="M60.365,147.841a6.414,6.414,0,0,0,4.546-1.885l-9.076-9.1a6.425,6.425,0,0,0,4.53,10.982" transform="translate(17.656 44.8)" fill="#4db5ea"/>
    <path id="Trazado_147369" data-name="Trazado 147369" d="M66.338,141.88a6.427,6.427,0,0,0-10.972-4.558l9.078,9.1a6.353,6.353,0,0,0,1.894-4.541" transform="translate(18.124 44.335)" fill="#1893d1"/>
    <path id="Trazado_147370" data-name="Trazado 147370" d="M111.967,137.518h24.119a2.491,2.491,0,0,0,2.49-2.491v-13.22H111.967Z" transform="translate(36.651 39.872)" fill="#eabe32"/>
    <rect id="Rectángulo_34179" data-name="Rectángulo 34179" width="26.609" height="0.986" transform="translate(148.618 158.373)" fill="#eabe32"/>
    <rect id="Rectángulo_34180" data-name="Rectángulo 34180" width="0.049" height="2.319" transform="translate(175.229 159.359)" fill="#bce2e8"/>
    <rect id="Rectángulo_34181" data-name="Rectángulo 34181" width="25.198" height="2.319" transform="translate(123.42 159.359)" fill="#d2f3f8"/>
    <rect id="Rectángulo_34182" data-name="Rectángulo 34182" width="26.609" height="2.319" transform="translate(148.618 159.359)" fill="#bce2e8"/>
    <rect id="Rectángulo_34183" data-name="Rectángulo 34183" width="0.049" height="2.319" transform="translate(175.229 156.054)" fill="#bce2e8"/>
    <rect id="Rectángulo_34184" data-name="Rectángulo 34184" width="26.609" height="2.319" transform="translate(148.618 156.054)" fill="#bce2e8"/>
    <rect id="Rectángulo_34185" data-name="Rectángulo 34185" width="25.198" height="2.319" transform="translate(123.42 156.054)" fill="#d2f3f8"/>
    <path id="Trazado_147371" data-name="Trazado 147371" d="M93.075,101.4l.073.127h.012Z" transform="translate(30.467 33.192)" fill="#58a39a"/>
    <path id="Trazado_147372" data-name="Trazado 147372" d="M131.908,101.527l.072-.127-.085.127Z" transform="translate(43.175 33.192)" fill="#4a938a"/>
    <rect id="Rectángulo_34186" data-name="Rectángulo 34186" width="26.608" height="21.333" transform="translate(148.62 134.72)" fill="#eabe32"/>
    <path id="Trazado_147373" data-name="Trazado 147373" d="M92.947,101.5v40.18a2.491,2.491,0,0,0,2.49,2.491h22.757V128.453H93v-2.316h25.2v-.988H93v-2.32h25.2V101.5Z" transform="translate(30.425 33.224)" fill="#e8ca4d"/>
    <path id="Trazado_147374" data-name="Trazado 147374" d="M138.419,101.947H111.967V97.921h21.276Z" transform="translate(36.652 32.054)" fill="#eabe32"/>
    <path id="Trazado_147375" data-name="Trazado 147375" d="M118.131,97.921v4.026H93.139l5.175-4.026Z" transform="translate(30.488 32.054)" fill="#e8ca4d"/>
    <path id="Trazado_147376" data-name="Trazado 147376" d="M116.568,132.946h14.351v-8.5H116.568Zm.852-.827h-.486v-7.047h.486Zm.528,0h-.487v-7.047h.487Zm1.788,0h-.869v-7.047h.869Zm.968,0h-.487v-7.047h.487Zm.82,0h-.486v-7.047h.486Zm1.642,0H122.2v-7.047h.968Zm.82,0H123.5v-7.047h.486Zm1.114,0h-.486v-7.047h.486Zm.53,0h-.487v-7.047h.487Zm1.112,0h-.487v-7.047h.487Zm.528,0h-.487v-7.047h.487Zm.53,0h-.486v-7.047h.486Zm1.258,0h-.486v-7.047h.486Zm.676,0h-.487v-7.047h.487Zm.82,0h-.487v-7.047h.487Z" transform="translate(38.158 40.737)" fill="#dde5ed"/>
    <rect id="Rectángulo_34187" data-name="Rectángulo 34187" width="0.486" height="7.047" transform="translate(155.091 165.809)" fill="#545057"/>
    <rect id="Rectángulo_34188" data-name="Rectángulo 34188" width="0.487" height="7.047" transform="translate(155.62 165.809)" fill="#545057"/>
    <rect id="Rectángulo_34189" data-name="Rectángulo 34189" width="0.869" height="7.047" transform="translate(157.024 165.809)" fill="#545057"/>
    <rect id="Rectángulo_34190" data-name="Rectángulo 34190" width="0.487" height="7.047" transform="translate(158.374 165.809)" fill="#545057"/>
    <rect id="Rectángulo_34191" data-name="Rectángulo 34191" width="0.486" height="7.047" transform="translate(159.196 165.809)" fill="#545057"/>
    <rect id="Rectángulo_34192" data-name="Rectángulo 34192" width="0.968" height="7.047" transform="translate(160.357 165.809)" fill="#545057"/>
    <rect id="Rectángulo_34193" data-name="Rectángulo 34193" width="0.486" height="7.047" transform="translate(161.658 165.809)" fill="#545057"/>
    <rect id="Rectángulo_34194" data-name="Rectángulo 34194" width="0.486" height="7.047" transform="translate(162.771 165.809)" fill="#545057"/>
    <rect id="Rectángulo_34195" data-name="Rectángulo 34195" width="0.487" height="7.047" transform="translate(163.3 165.809)" fill="#545057"/>
    <rect id="Rectángulo_34196" data-name="Rectángulo 34196" width="0.487" height="7.047" transform="translate(164.412 165.809)" fill="#545057"/>
    <rect id="Rectángulo_34197" data-name="Rectángulo 34197" width="0.487" height="7.047" transform="translate(164.942 165.809)" fill="#545057"/>
    <rect id="Rectángulo_34198" data-name="Rectángulo 34198" width="0.486" height="7.047" transform="translate(165.472 165.809)" fill="#545057"/>
    <rect id="Rectángulo_34199" data-name="Rectángulo 34199" width="0.486" height="7.047" transform="translate(166.73 165.809)" fill="#545057"/>
    <rect id="Rectángulo_34200" data-name="Rectángulo 34200" width="0.487" height="7.047" transform="translate(167.404 165.809)" fill="#545057"/>
    <rect id="Rectángulo_34201" data-name="Rectángulo 34201" width="0.487" height="7.047" transform="translate(168.226 165.809)" fill="#545057"/>
    <path id="Trazado_147377" data-name="Trazado 147377" d="M126.7,111.236v3.228c-.948.081-1.687.414-1.834.832h4.562c-.147-.418-.887-.751-1.834-.832v-3.228a2.765,2.765,0,0,0,1.885-2.8c0-.031,0-.058,0-.089h-4.655c0,.031,0,.058,0,.089a2.763,2.763,0,0,0,1.885,2.8" transform="translate(40.858 35.467)" fill="#ea5f21"/>
    <path id="Trazado_147378" data-name="Trazado 147378" d="M121.232,111.286a1.53,1.53,0,0,1,.522-.143,2.418,2.418,0,0,1,.966.109c.037,1.29.028,3.171,0,3.486a1.42,1.42,0,0,1-.252.8.811.811,0,0,1-.966.22.665.665,0,0,1-.313-.366,1.563,1.563,0,0,1-.074-.447.64.64,0,0,0-.466.092c-.342.234-.119.638.114.868a1.63,1.63,0,0,0,.6.381,1.2,1.2,0,0,0,.4.062,1.684,1.684,0,0,0,1.268-.587,2.757,2.757,0,0,0,.289-1.7v-2.778a1.964,1.964,0,0,1,.715-.143,2.012,2.012,0,0,1,.776.143,1.031,1.031,0,0,1,1.152,0,3.08,3.08,0,0,0-2.6-2.445.467.467,0,0,0-.835,0,2.946,2.946,0,0,0-2.6,2.446,1.3,1.3,0,0,1,1.3,0" transform="translate(39.257 35.543)" fill="#ea5f21"/>
    <path id="Trazado_147379" data-name="Trazado 147379" d="M121.439,108.794h.085a.254.254,0,0,0,0-.507h-.085a.254.254,0,0,0,0,.507" transform="translate(39.672 35.447)" fill="#ea5f21"/>
    <path id="Trazado_147380" data-name="Trazado 147380" d="M122.171,108.222a.254.254,0,0,0,0-.507.254.254,0,0,0,0,.507" transform="translate(39.912 35.26)" fill="#ea5f21"/>
    <path id="Trazado_147381" data-name="Trazado 147381" d="M123.063,108.518v-.041a.254.254,0,0,0-.507,0v.041a.254.254,0,0,0,.507,0" transform="translate(40.118 35.429)" fill="#ea5f21"/>
    <path id="Trazado_147382" data-name="Trazado 147382" d="M123.476,107.786v-.041a.254.254,0,0,0-.507,0v.041a.254.254,0,0,0,.507,0" transform="translate(40.253 35.189)" fill="#ea5f21"/>
    <path id="Trazado_147383" data-name="Trazado 147383" d="M124.016,108.572a.254.254,0,0,0,0-.507.254.254,0,0,0,0,.507" transform="translate(40.516 35.374)" fill="#ea5f21"/>
    <path id="Trazado_147384" data-name="Trazado 147384" d="M117.034,110.273a.318.318,0,0,0,.159.039.309.309,0,0,0,.244-.109l.584-.731v5.462a.3.3,0,0,0,.587,0v-5.539l.738.82a.337.337,0,0,0,.41.05.216.216,0,0,0,.06-.338l-1.265-1.4a.34.34,0,0,0-.243-.1.311.311,0,0,0-.238.109l-1.12,1.406a.216.216,0,0,0,.084.334" transform="translate(38.267 35.492)" fill="#ea5f21"/>
    <path id="Trazado_147385" data-name="Trazado 147385" d="M114.317,110.273a.323.323,0,0,0,.161.039.309.309,0,0,0,.244-.109l.584-.731v5.462a.3.3,0,0,0,.585,0v-5.539l.739.82a.335.335,0,0,0,.409.05.216.216,0,0,0,.061-.338l-1.268-1.4a.338.338,0,0,0-.243-.1.31.31,0,0,0-.236.109l-1.12,1.406a.217.217,0,0,0,.084.334" transform="translate(37.377 35.492)" fill="#ea5f21"/>
    <path id="Trazado_147386" data-name="Trazado 147386" d="M120.024,113.709h-5.277a.292.292,0,1,0,0,.584h5.277a.292.292,0,1,0,0-.584" transform="translate(37.466 37.222)" fill="#ea5f21"/>
    <rect id="Rectángulo_34202" data-name="Rectángulo 34202" width="2.087" height="4.026" transform="translate(146.58 129.949)" fill="#d2f3f8"/>
    <path id="Trazado_147387" data-name="Trazado 147387" d="M114.118,97.9H112v4.026h2.222Z" transform="translate(36.663 32.047)" fill="#bce2e8"/>
    <path id="Trazado_147388" data-name="Trazado 147388" d="M110.384,101.476v3.448l.617-.681.828.681.7-.85v-2.6Z" transform="translate(36.133 33.217)" fill="#d2f3f8"/>
    <path id="Trazado_147389" data-name="Trazado 147389" d="M112,101.476v2.6l.693,1.253.973-.634.733.634v-3.852Z" transform="translate(36.663 33.217)" fill="#bce2e8"/>
    <path id="Trazado_147390" data-name="Trazado 147390" d="M92.945,125.619V129.2h2.2v-3.577Z" transform="translate(30.425 41.12)" fill="#d2f3f8"/>
    <path id="Trazado_147391" data-name="Trazado 147391" d="M96.912,127.5l.55-.535-.338-.775.064-.576H94.6V129.2h2.312l-.447-.484,1-.652Z" transform="translate(30.966 41.12)" fill="#bce2e8"/>
    <rect id="Rectángulo_34203" data-name="Rectángulo 34203" width="14.808" height="0.471" transform="translate(129.381 142.829)" fill="#545057"/>
    <rect id="Rectángulo_34204" data-name="Rectángulo 34204" width="14.808" height="0.471" transform="translate(129.381 144.334)" fill="#545057"/>
    <rect id="Rectángulo_34205" data-name="Rectángulo 34205" width="14.808" height="0.471" transform="translate(129.381 145.84)" fill="#545057"/>
    <rect id="Rectángulo_34206" data-name="Rectángulo 34206" width="14.808" height="0.471" transform="translate(129.381 147.346)" fill="#545057"/>
    <rect id="Rectángulo_34207" data-name="Rectángulo 34207" width="14.808" height="0.471" transform="translate(129.381 148.849)" fill="#545057"/>
    <path id="Trazado_147392" data-name="Trazado 147392" d="M91.444,134.842a2.92,2.92,0,0,0-2.919,2.919v3.706h4.869v-3.336h13.559v3.336h4.869v-3.336h5.988v-3.289Z" transform="translate(28.978 44.139)" fill="#4d4d4d"/>
    <path id="Trazado_147393" data-name="Trazado 147393" d="M138.534,134.842H110.587v3.289h7.57v3.336h4.869v-3.336h13.559v3.336h4.869v-3.706a2.92,2.92,0,0,0-2.919-2.919" transform="translate(36.2 44.139)" fill="#333"/>
  </g>
</svg>
