<svg id="Grupo_237793" data-name="Grupo 237793" xmlns="http://www.w3.org/2000/svg" xmlns:xlink="http://www.w3.org/1999/xlink" width="315" height="263.3" viewBox="0 0 315 263.3">
  <defs>
    <clipPath id="clip-path">
      <rect id="Rectángulo_34017" data-name="Rectángulo 34017" width="315" height="263.3" fill="none"/>
    </clipPath>
  </defs>
  <g id="Grupo_237792" data-name="Grupo 237792" clip-path="url(#clip-path)">
    <path id="Trazado_146490" data-name="Trazado 146490" d="M144.983,53.039c1.616,8.8,1.1,18.823-1.648,29.648a112.348,112.348,0,0,1-9.271,23.989l19.927,20.26a95.515,95.515,0,0,0-9.008-73.9" transform="translate(113.875 45.052)" fill="#3db6f3"/>
    <path id="Trazado_146491" data-name="Trazado 146491" d="M99.489,128.064l20.39,20.73a94.368,94.368,0,0,0,37.1-21.5l-23.554-23.948a151.889,151.889,0,0,1-33.94,24.715" transform="translate(84.507 87.785)" fill="#3db6f3"/>
    <path id="Trazado_146492" data-name="Trazado 146492" d="M109,80.54,79.4,109.661l33.735,34.3a146.949,146.949,0,0,0,34.1-24.558Z" transform="translate(67.44 68.411)" fill="#3db6f3"/>
    <path id="Trazado_146493" data-name="Trazado 146493" d="M162.206,46.287c-15.167-13.464-41.127-12.55-67.562.264l33.09,33.641,0,0,34.473-33.907Z" transform="translate(80.391 31.055)" fill="#3db6f3"/>
    <path id="Trazado_146494" data-name="Trazado 146494" d="M148.777,43.618,114.3,77.523,147.4,111.169c13.245-26.223,14.59-52.164,1.38-67.551" transform="translate(97.09 37.049)" fill="#3db6f3"/>
    <path id="Trazado_146495" data-name="Trazado 146495" d="M119.638,116.219h0l23.554,23.948h0a94.36,94.36,0,0,0,21.455-34.806L143.985,84.352a153.077,153.077,0,0,1-24.347,31.867" transform="translate(101.621 71.649)" fill="#3db6f3"/>
    <path id="Trazado_146496" data-name="Trazado 146496" d="M74.768,66.839,112.99,105.7l28.305-27.843L107.17,43.161a147.974,147.974,0,0,0-32.4,23.676Z" transform="translate(63.508 36.661)" fill="#3db6f3"/>
    <path id="Trazado_146497" data-name="Trazado 146497" d="M135.426,130.422l0,0a148.081,148.081,0,0,0,24.211-32l-34.129-34.7L97.2,91.559Z" transform="translate(82.564 54.122)" fill="#3db6f3"/>
    <path id="Trazado_146498" data-name="Trazado 146498" d="M83.822,74.757a153.292,153.292,0,0,1,32.259-23.82L95.418,29.927A94.342,94.342,0,0,0,60.263,50.8h0Z" transform="translate(51.186 25.42)" fill="#3db6f3"/>
    <path id="Trazado_146499" data-name="Trazado 146499" d="M68.619,42.982A94.381,94.381,0,0,0,46.511,79.728l20.39,20.73a152.187,152.187,0,0,1,25.278-33.52Z" transform="translate(39.507 36.509)" fill="#72cfff"/>
    <path id="Trazado_146500" data-name="Trazado 146500" d="M84.508,57.731a146.953,146.953,0,0,0-25.12,33.681l33.735,34.3v0L122.73,96.591Z" transform="translate(50.444 49.037)" fill="#3db6f3"/>
    <path id="Trazado_146501" data-name="Trazado 146501" d="M62.149,144.126h0L95.321,111.5,62.676,78.309c-12.445,25.622-13.453,50.766-.527,65.817" transform="translate(44.925 66.516)" fill="#72cfff"/>
    <path id="Trazado_146502" data-name="Trazado 146502" d="M56.7,137.481c-1.613-8.8-1.1-18.823,1.65-29.648a110.459,110.459,0,0,1,8.4-22.267L47.136,65.619A95.514,95.514,0,0,0,56.7,137.481" transform="translate(37.38 55.737)" fill="#72cfff"/>
    <path id="Trazado_146503" data-name="Trazado 146503" d="M125.484,131.247,92.835,98.052,59.664,130.679c14.834,13.173,39.992,12.581,65.82.568" transform="translate(50.679 83.286)" fill="#72cfff"/>
    <path id="Trazado_146504" data-name="Trazado 146504" d="M68.967,127.1a95.5,95.5,0,0,0,71.694,10.754L121.041,117.9a110.336,110.336,0,0,1-22.4,8.036c-10.869,2.565-20.9,2.92-29.672,1.158" transform="translate(58.581 100.147)" fill="#72cfff"/>
    <path id="Trazado_146505" data-name="Trazado 146505" d="M155.963,40.93c-8.764-1.822-18.794-1.535-29.679.958a112.26,112.26,0,0,0-24.2,8.711L82.3,30.2A95.522,95.522,0,0,1,155.963,40.93" transform="translate(69.903 23.023)" fill="#3db6f3"/>
    <path id="Trazado_146506" data-name="Trazado 146506" d="M30.1,87.288l-1.676.205c.37,2.021.8,4.063,1.28,6.068l1.653-.29c-.47-1.977-.893-3.989-1.258-5.983" transform="translate(24.143 74.143)" fill="#a0d7ef"/>
    <path id="Trazado_146507" data-name="Trazado 146507" d="M36.466,105.626l-1.452.692c.947,1.727,1.947,3.445,2.976,5.106l1.4-.756c-1.008-1.639-1.994-3.334-2.922-5.041" transform="translate(29.741 89.719)" fill="#a0d7ef"/>
    <path id="Trazado_146508" data-name="Trazado 146508" d="M29.89,86.815c-.264-2.033-.475-4.083-.629-6.1l-1.705.026c.155,2.044.372,4.128.638,6.188Z" transform="translate(23.406 68.561)" fill="#a0d7ef"/>
    <path id="Trazado_146509" data-name="Trazado 146509" d="M36.173,105.286c-.853-1.783-1.672-3.612-2.43-5.437l-1.548.544c.775,1.851,1.609,3.706,2.478,5.511Z" transform="translate(27.347 84.812)" fill="#a0d7ef"/>
    <path id="Trazado_146510" data-name="Trazado 146510" d="M28.227,67.381c-.27,2.023-.492,4.078-.655,6.107l1.705.242c.159-2,.377-4.028.644-6.02Z" transform="translate(23.42 57.234)" fill="#a0d7ef"/>
    <path id="Trazado_146511" data-name="Trazado 146511" d="M33.481,55.437l-1.587-.657c-.675,1.824-1.309,3.712-1.888,5.607l1.622.581c.57-1.872,1.193-3.732,1.853-5.532" transform="translate(25.487 46.53)" fill="#a0d7ef"/>
    <path id="Trazado_146512" data-name="Trazado 146512" d="M29.978,94.08c.581,1.962,1.221,3.928,1.9,5.842l1.589-.462c-.669-1.886-1.3-3.825-1.866-5.757Z" transform="translate(25.463 79.592)" fill="#a0d7ef"/>
    <path id="Trazado_146513" data-name="Trazado 146513" d="M30.127,67.255c.37-1.955.793-3.915,1.263-5.826l-1.653-.5c-.477,1.936-.908,3.924-1.285,5.907Z" transform="translate(24.166 51.756)" fill="#a0d7ef"/>
    <path id="Trazado_146514" data-name="Trazado 146514" d="M27.41,74.019c-.03,1.093-.044,2.19-.044,3.285q0,1.456.035,2.917l1.713.063q-.036-1.437-.035-2.872,0-1.623.044-3.238Z" transform="translate(23.245 62.872)" fill="#a0d7ef"/>
    <path id="Trazado_146515" data-name="Trazado 146515" d="M36.156,49.827l-1.5-.8c-.858,1.692-1.683,3.449-2.452,5.221l1.546.731c.756-1.748,1.566-3.479,2.408-5.149" transform="translate(27.353 41.641)" fill="#a0d7ef"/>
    <path id="Trazado_146516" data-name="Trazado 146516" d="M51.268,123.633c-1.326-1.139-2.65-2.338-3.934-3.562l-1.1,1.012c1.306,1.237,2.652,2.449,4,3.6Z" transform="translate(39.27 101.989)" fill="#a0d7ef"/>
    <path id="Trazado_146517" data-name="Trazado 146517" d="M55.716,126.791c-1.385-.956-2.776-1.97-4.13-3.015l-.971,1.078c1.376,1.054,2.787,2.077,4.193,3.04Z" transform="translate(42.993 105.136)" fill="#a0d7ef"/>
    <path id="Trazado_146518" data-name="Trazado 146518" d="M42.117,116.716c1.213,1.415,2.471,2.806,3.736,4.133l1.161-.971c-1.243-1.315-2.478-2.689-3.671-4.089Z" transform="translate(35.774 98.352)" fill="#a0d7ef"/>
    <path id="Trazado_146519" data-name="Trazado 146519" d="M38.351,111.777c1.084,1.566,2.225,3.129,3.394,4.644l1.285-.873c-1.148-1.5-2.271-3.04-3.336-4.588Z" transform="translate(32.576 94.25)" fill="#a0d7ef"/>
    <path id="Trazado_146520" data-name="Trazado 146520" d="M60.6,129.4l-.71,1.158c1.457.682,2.937,1.326,4.394,1.912l.647-1.167c-1.437-.584-2.894-1.224-4.331-1.9" transform="translate(50.871 109.911)" fill="#a0d7ef"/>
    <path id="Trazado_146521" data-name="Trazado 146521" d="M55.19,128.013c1.422.867,2.878,1.7,4.324,2.478l.779-1.145c-1.426-.773-2.861-1.6-4.261-2.46Z" transform="translate(46.879 107.779)" fill="#a0d7ef"/>
    <path id="Trazado_146522" data-name="Trazado 146522" d="M30.835,41.2l-1.548-.949c-1.026,1.642-2.023,3.338-2.961,5.043l1.6.886c.921-1.683,1.9-3.359,2.909-4.98" transform="translate(22.361 34.188)" fill="#a0d7ef"/>
    <path id="Trazado_146523" data-name="Trazado 146523" d="M22.851,58.817l-1.79-.522c-.485,2.021-.925,4.091-1.306,6.151l1.814.436c.375-2.031.806-4.072,1.282-6.066" transform="translate(16.78 49.516)" fill="#a0d7ef"/>
    <path id="Trazado_146524" data-name="Trazado 146524" d="M21.363,65.36,19.53,65c-.281,2.084-.51,4.22-.684,6.347l1.846.268c.172-2.1.4-4.2.671-6.26" transform="translate(16.008 55.216)" fill="#a0d7ef"/>
    <path id="Trazado_146525" data-name="Trazado 146525" d="M20.466,76.122q0-2.022.065-4.039L18.678,71.9c-.044,1.365-.065,2.728-.065,4.1q0,1.173.02,2.351l1.855.091c-.015-.771-.02-1.548-.022-2.319" transform="translate(15.81 61.076)" fill="#a0d7ef"/>
    <path id="Trazado_146526" data-name="Trazado 146526" d="M46.33,129.727c1.439,1.019,2.924,2.014,4.413,2.959l.941-1.156c-1.467-.938-2.929-1.925-4.348-2.937Z" transform="translate(39.353 109.228)" fill="#a0d7ef"/>
    <path id="Trazado_146527" data-name="Trazado 146527" d="M37.265,121.792c1.306,1.376,2.659,2.737,4.026,4.043l1.2-1.041c-1.345-1.295-2.678-2.641-3.963-4Z" transform="translate(31.653 102.601)" fill="#a0d7ef"/>
    <path id="Trazado_146528" data-name="Trazado 146528" d="M51.134,132.8c1.487.841,3.005,1.652,4.518,2.408l.808-1.189c-1.489-.751-2.987-1.557-4.452-2.393Z" transform="translate(43.434 111.801)" fill="#a0d7ef"/>
    <path id="Trazado_146529" data-name="Trazado 146529" d="M41.684,126.055c1.391,1.208,2.822,2.388,4.252,3.508L47,128.456c-1.406-1.111-2.815-2.28-4.185-3.477Z" transform="translate(35.407 106.158)" fill="#a0d7ef"/>
    <path id="Trazado_146530" data-name="Trazado 146530" d="M26.08,105.732c.934,1.84,1.925,3.678,2.946,5.467l1.554-.731c-1-1.768-1.977-3.584-2.894-5.4Z" transform="translate(22.152 89.245)" fill="#a0d7ef"/>
    <path id="Trazado_146531" data-name="Trazado 146531" d="M29.386,111.591c1.078,1.7,2.216,3.392,3.377,5.034l1.443-.854c-1.141-1.622-2.258-3.3-3.318-4.975Z" transform="translate(24.961 94.111)" fill="#a0d7ef"/>
    <path id="Trazado_146532" data-name="Trazado 146532" d="M33.14,116.96c1.2,1.541,2.46,3.074,3.738,4.555l1.324-.958c-1.256-1.465-2.493-2.981-3.675-4.505Z" transform="translate(28.149 98.575)" fill="#a0d7ef"/>
    <path id="Trazado_146533" data-name="Trazado 146533" d="M23.534,51.319l1.69.751c.755-1.827,1.565-3.653,2.41-5.421l-1.648-.821c-.86,1.792-1.685,3.64-2.452,5.491" transform="translate(19.99 38.927)" fill="#a0d7ef"/>
    <path id="Trazado_146534" data-name="Trazado 146534" d="M20.625,78.884H18.776c.146,2.134.35,4.3.6,6.445l1.836-.087c-.25-2.114-.449-4.252-.592-6.358" transform="translate(15.948 67.005)" fill="#a0d7ef"/>
    <path id="Trazado_146535" data-name="Trazado 146535" d="M21.424,85.739l-1.82.176c.361,2.118.78,4.252,1.247,6.343l1.8-.263c-.457-2.064-.867-4.169-1.222-6.257" transform="translate(16.652 72.827)" fill="#a0d7ef"/>
    <path id="Trazado_146536" data-name="Trazado 146536" d="M22.89,92.457l-1.77.348.333,1.178q.716,2.5,1.537,4.962l1.735-.435q-.8-2.427-1.509-4.892Z" transform="translate(17.939 78.533)" fill="#a0d7ef"/>
    <path id="Trazado_146537" data-name="Trazado 146537" d="M23.3,99.445c.766,1.964,1.585,3.928,2.441,5.84l1.652-.592c-.84-1.886-1.646-3.825-2.4-5.765Z" transform="translate(19.79 84.031)" fill="#a0d7ef"/>
    <path id="Trazado_146538" data-name="Trazado 146538" d="M21.328,57.734l1.764.6c.573-1.957,1.2-3.9,1.864-5.785l-1.729-.677c-.675,1.9-1.313,3.878-1.9,5.861" transform="translate(18.116 44.061)" fill="#a0d7ef"/>
    <path id="Trazado_146539" data-name="Trazado 146539" d="M123.036,124.017l.61,1.627c1.842-.862,3.684-1.79,5.482-2.756l-.694-1.579c-1.77.949-3.586,1.861-5.4,2.708" transform="translate(104.507 103.041)" fill="#bee1f4"/>
    <path id="Trazado_146540" data-name="Trazado 146540" d="M138.813,113.811l1.041,1.252c1.383-1.343,2.743-2.733,4.037-4.135l-1.091-1.176c-1.28,1.374-2.621,2.741-3.987,4.059" transform="translate(117.909 93.224)" fill="#bee1f4"/>
    <path id="Trazado_146541" data-name="Trazado 146541" d="M122.642,124.08c-1.879.758-3.789,1.468-5.68,2.112l.433,1.709c1.92-.655,3.862-1.378,5.77-2.147Z" transform="translate(99.348 105.394)" fill="#bee1f4"/>
    <path id="Trazado_146542" data-name="Trazado 146542" d="M138.586,114.053c-1.467,1.269-2.989,2.515-4.525,3.7l.921,1.394c1.557-1.213,3.1-2.482,4.588-3.775Z" transform="translate(113.872 96.877)" fill="#bee1f4"/>
    <path id="Trazado_146543" data-name="Trazado 146543" d="M104.364,130.216c2-.218,4.013-.494,5.992-.823l-.155-1.779c-1.949.324-3.936.6-5.9.814Z" transform="translate(88.594 108.396)" fill="#bee1f4"/>
    <path id="Trazado_146544" data-name="Trazado 146544" d="M91.942,128.005l-.3,1.753c1.879.237,3.81.418,5.739.542l.216-1.774c-1.9-.118-3.8-.294-5.652-.522" transform="translate(77.839 108.728)" fill="#bee1f4"/>
    <path id="Trazado_146545" data-name="Trazado 146545" d="M129.547,122.709c1.725-1.054,3.434-2.167,5.082-3.307l-.849-1.461c-1.626,1.119-3.309,2.21-5.006,3.244Z" transform="translate(109.381 100.18)" fill="#bee1f4"/>
    <path id="Trazado_146546" data-name="Trazado 146546" d="M103.858,128.314c-1.947.1-3.91.15-5.831.142l-.124,1.785c1.953.011,3.947-.035,5.922-.137Z" transform="translate(83.159 108.991)" fill="#bee1f4"/>
    <path id="Trazado_146547" data-name="Trazado 146547" d="M110.925,129.434q1.581-.352,3.157-.755,1.4-.352,2.783-.745l-.342-1.74q-1.368.386-2.739.734-1.554.394-3.109.742Z" transform="translate(94.008 107.19)" fill="#bee1f4"/>
    <path id="Trazado_146548" data-name="Trazado 146548" d="M86.134,126.918l-.468,1.7c1.777.449,3.608.853,5.445,1.2l.387-1.727c-1.809-.335-3.614-.727-5.363-1.165" transform="translate(72.765 107.805)" fill="#bee1f4"/>
    <path id="Trazado_146549" data-name="Trazado 146549" d="M151.624,95.45c-.692,1.515-1.443,3.044-2.229,4.546l1.248.8c.792-1.528,1.546-3.081,2.241-4.62Z" transform="translate(126.897 81.076)" fill="#bee1f4"/>
    <path id="Trazado_146550" data-name="Trazado 146550" d="M153.29,90.53c-.5,1.509-1.052,3.039-1.644,4.548l1.271.649c.594-1.531,1.148-3.085,1.648-4.616Z" transform="translate(128.809 76.897)" fill="#bee1f4"/>
    <path id="Trazado_146551" data-name="Trazado 146551" d="M147.709,105.773c.993-1.5,1.951-3.027,2.846-4.548l-1.23-.875c-.888,1.494-1.838,3-2.822,4.472Z" transform="translate(124.44 85.239)" fill="#bee1f4"/>
    <path id="Trazado_146552" data-name="Trazado 146552" d="M144.107,110.565c1.184-1.424,2.343-2.9,3.451-4.389l-1.174-1.026c-1.095,1.461-2.241,2.915-3.412,4.313Z" transform="translate(121.44 89.315)" fill="#bee1f4"/>
    <path id="Trazado_146553" data-name="Trazado 146553" d="M154.291,85.271l1.259.377c.218-1.483.4-2.974.525-4.427l-1.245-.313c-.137,1.433-.318,2.9-.54,4.363" transform="translate(131.056 68.724)" fill="#bee1f4"/>
    <path id="Trazado_146554" data-name="Trazado 146554" d="M154.545,90.654c.4-1.511.764-3.042,1.075-4.55l-1.269-.444c-.314,1.487-.677,2.994-1.08,4.483Z" transform="translate(130.189 72.761)" fill="#bee1f4"/>
    <path id="Trazado_146555" data-name="Trazado 146555" d="M78.99,134.642l-.62,1.807c1.766.647,3.579,1.252,5.393,1.794l.544-1.849c-1.788-.529-3.577-1.121-5.317-1.751" transform="translate(66.568 114.366)" fill="#bee1f4"/>
    <path id="Trazado_146556" data-name="Trazado 146556" d="M97.347,137.879l-.12,1.979c2.058,0,4.156-.05,6.232-.163l.026-1.983c-2.047.111-4.111.168-6.138.166" transform="translate(82.585 116.974)" fill="#bee1f4"/>
    <path id="Trazado_146557" data-name="Trazado 146557" d="M103.956,137.827l.068,1.984c2.081-.224,4.2-.512,6.3-.856l-.163-1.973c-2.069.338-4.159.623-6.208.845" transform="translate(88.301 116.353)" fill="#bee1f4"/>
    <path id="Trazado_146558" data-name="Trazado 146558" d="M114.589,136.112q-1.956.5-3.924.927l.261,1.96q2-.438,3.984-.943c.758-.194,1.518-.394,2.275-.6l-.355-1.934c-.743.205-1.492.4-2.24.594" transform="translate(93.999 115.11)" fill="#bee1f4"/>
    <path id="Trazado_146559" data-name="Trazado 146559" d="M158.679,98.713c.536-1.6,1.038-3.227,1.489-4.845l-1.346-.6c-.453,1.594-.952,3.2-1.491,4.771Z" transform="translate(133.638 79.218)" fill="#bee1f4"/>
    <path id="Trazado_146560" data-name="Trazado 146560" d="M153.863,109.39c.927-1.592,1.824-3.225,2.663-4.853l-1.322-.9c-.836,1.6-1.727,3.209-2.647,4.775Z" transform="translate(129.583 88.026)" fill="#bee1f4"/>
    <path id="Trazado_146561" data-name="Trazado 146561" d="M160.133,93.389c.351-1.578.664-3.175.928-4.749l-1.332-.468c-.268,1.552-.584,3.127-.94,4.683Z" transform="translate(134.877 74.894)" fill="#bee1f4"/>
    <path id="Trazado_146562" data-name="Trazado 146562" d="M156.6,104.071c.732-1.616,1.43-3.259,2.069-4.882l-1.345-.751c-.638,1.6-1.332,3.216-2.06,4.807Z" transform="translate(131.88 83.614)" fill="#bee1f4"/>
    <path id="Trazado_146563" data-name="Trazado 146563" d="M141.737,124.207c1.509-1.385,3-2.824,4.431-4.278l-1.128-1.37c-1.415,1.43-2.887,2.843-4.376,4.2Z" transform="translate(119.481 100.705)" fill="#bee1f4"/>
    <path id="Trazado_146564" data-name="Trazado 146564" d="M146.423,119.558c1.319-1.481,2.617-3.016,3.858-4.561l-1.217-1.215c-1.226,1.517-2.513,3.026-3.817,4.481Z" transform="translate(123.374 96.647)" fill="#bee1f4"/>
    <path id="Trazado_146565" data-name="Trazado 146565" d="M150.471,114.585c1.124-1.55,2.223-3.148,3.264-4.751l-1.282-1.058c-1.032,1.574-2.121,3.148-3.235,4.67Z" transform="translate(126.747 92.395)" fill="#bee1f4"/>
    <path id="Trazado_146566" data-name="Trazado 146566" d="M90.074,139.44l.385-1.922c-1.909-.327-3.821-.712-5.687-1.145l-.464,1.89c1.89.444,3.832.84,5.766,1.176" transform="translate(71.612 115.837)" fill="#bee1f4"/>
    <path id="Trazado_146567" data-name="Trazado 146567" d="M117.3,135.516l.448,1.9c2.032-.675,4.085-1.42,6.1-2.21l-.54-1.868c-1.981.777-4,1.509-6.005,2.173" transform="translate(99.633 113.262)" fill="#bee1f4"/>
    <path id="Trazado_146568" data-name="Trazado 146568" d="M123.726,133.279l.627,1.824c1.959-.89,3.917-1.846,5.82-2.837l-.714-1.774c-1.875.975-3.8,1.91-5.733,2.787" transform="translate(105.094 110.841)" fill="#bee1f4"/>
    <path id="Trazado_146569" data-name="Trazado 146569" d="M129.832,130.366l.8,1.718,1.05-.627q2.225-1.348,4.387-2.783l-.877-1.655q-2.128,1.412-4.32,2.732Z" transform="translate(110.28 107.891)" fill="#bee1f4"/>
    <path id="Trazado_146570" data-name="Trazado 146570" d="M136.453,128.419c1.687-1.254,3.357-2.563,4.964-3.893l-1.013-1.518c-1.587,1.3-3.235,2.591-4.9,3.823Z" transform="translate(115.098 104.484)" fill="#bee1f4"/>
    <path id="Trazado_146571" data-name="Trazado 146571" d="M96.677,139.909l.211-1.968c-2.007-.111-4.013-.279-5.962-.5l-.3,1.946c1.977.229,4.013.405,6.049.523" transform="translate(76.98 116.742)" fill="#bee1f4"/>
    <path id="Trazado_146572" data-name="Trazado 146572" d="M102.831,102.05a56.049,56.049,0,0,1-4.442,4.169c5.569.264,19.883-2.419,33.363-8.15,13.578-5.426,26.324-13.9,31-18.157a78.9,78.9,0,0,1-16.069,13.95A112.019,112.019,0,0,1,95.2,112.329a30.785,30.785,0,0,0,1.448,3.947c-9.345-1.9-16.084-5.65-20.393-10.164a67.961,67.961,0,0,0,26.58-4.061" transform="translate(64.768 67.875)" fill="#074b68"/>
    <path id="Trazado_146573" data-name="Trazado 146573" d="M61.275,77.866A39.92,39.92,0,0,1,56.6,75.114c-1.341,4.427-.368,15.208,4.747,24.791,4.7,9.715,13.538,18.231,18.292,21.152.194-.185-7.359-2.491-15.435-10.155-7.945-7.477-16.415-20.308-15.052-37.21q-2.724.816-5.434,1.842A48.406,48.406,0,0,1,60.684,57.68a29.348,29.348,0,0,0,.592,20.186" transform="translate(37.135 48.994)" fill="#074b68"/>
    <path id="Trazado_146574" data-name="Trazado 146574" d="M136.264,78.143a39.941,39.941,0,0,1,4.677,2.752c1.339-4.427.366-15.208-4.749-24.791-4.7-9.715-13.538-18.231-18.291-21.154-.2.187,7.357,2.493,15.433,10.157,7.947,7.475,16.415,20.308,15.052,37.21q2.724-.816,5.434-1.842a48.4,48.4,0,0,1-16.965,17.852,29.332,29.332,0,0,0-.592-20.184" transform="translate(100.143 29.687)" fill="#074b68"/>
    <path id="Trazado_146575" data-name="Trazado 146575" d="M101.039,49.148a16.277,16.277,0,0,1,16.278-16.278V18.936a30.215,30.215,0,0,0-30.23,30.212c0,20.538,30.23,61.219,30.23,61.219V65.428a16.278,16.278,0,0,1-16.278-16.28" transform="translate(73.972 16.084)" fill="#f9773d"/>
    <path id="Trazado_146576" data-name="Trazado 146576" d="M118.278,40.887a16.244,16.244,0,0,1-14.845,9.654V95.479s28.283-36.631,30.116-59.018a44.109,44.109,0,0,0-5,.858,56.288,56.288,0,0,0-10.266,3.568" transform="translate(87.857 30.97)" fill="#ea5f21"/>
    <path id="Trazado_146577" data-name="Trazado 146577" d="M119.062,44.695A49.129,49.129,0,0,1,133.536,47a30.19,30.19,0,0,0-30.1-28.063V32.868a16.25,16.25,0,0,1,15.629,11.827" transform="translate(87.857 16.084)" fill="#ea5f21"/>
    <path id="Trazado_146578" data-name="Trazado 146578" d="M126.718,35.168a49.069,49.069,0,0,0-14.473-2.3,16.146,16.146,0,0,1-.784,11.078,56.3,56.3,0,0,1,10.266-3.569,44.094,44.094,0,0,1,5-.856c.061-.749.1-1.485.1-2.2s-.059-1.435-.109-2.147" transform="translate(94.675 27.915)" fill="#ea5f21"/>
    <path id="Trazado_146579" data-name="Trazado 146579" d="M151.7,114.687h31.166a3.219,3.219,0,0,0,3.218-3.218V94.386H151.7Z" transform="translate(128.854 80.172)" fill="#eabe32"/>
    <rect id="Rectángulo_33970" data-name="Rectángulo 33970" width="34.384" height="1.274" transform="translate(280.553 170.288)" fill="#eabe32"/>
    <rect id="Rectángulo_33971" data-name="Rectángulo 33971" width="0.063" height="2.996" transform="translate(314.937 171.562)" fill="#bce2e8"/>
    <rect id="Rectángulo_33972" data-name="Rectángulo 33972" width="32.559" height="2.996" transform="translate(247.994 171.562)" fill="#d2f3f8"/>
    <rect id="Rectángulo_33973" data-name="Rectángulo 33973" width="34.384" height="2.996" transform="translate(280.553 171.562)" fill="#bce2e8"/>
    <rect id="Rectángulo_33974" data-name="Rectángulo 33974" width="0.063" height="2.996" transform="translate(314.937 167.292)" fill="#bce2e8"/>
    <rect id="Rectángulo_33975" data-name="Rectángulo 33975" width="34.384" height="2.996" transform="translate(280.553 167.292)" fill="#bce2e8"/>
    <rect id="Rectángulo_33976" data-name="Rectángulo 33976" width="32.559" height="2.996" transform="translate(247.994 167.292)" fill="#d2f3f8"/>
    <path id="Trazado_146580" data-name="Trazado 146580" d="M134.18,75.462l.094.165h.017Z" transform="translate(113.973 64.098)" fill="#58a39a"/>
    <path id="Trazado_146581" data-name="Trazado 146581" d="M170.2,75.626l.092-.165-.109.165Z" transform="translate(144.552 64.098)" fill="#4a938a"/>
    <rect id="Rectángulo_33977" data-name="Rectángulo 33977" width="34.38" height="27.565" transform="translate(280.555 139.724)" fill="#eabe32"/>
    <path id="Trazado_146582" data-name="Trazado 146582" d="M134.06,75.55v51.918a3.219,3.219,0,0,0,3.22,3.22h29.4v-20.3H134.125v-2.992h32.559v-1.276H134.125v-3h32.559V75.55Z" transform="translate(113.871 64.173)" fill="#e8ca4d"/>
    <path id="Trazado_146583" data-name="Trazado 146583" d="M185.877,77.438H151.7v-5.2h27.49Z" transform="translate(128.855 61.358)" fill="#eabe32"/>
    <path id="Trazado_146584" data-name="Trazado 146584" d="M166.532,72.236v5.2H134.239l6.686-5.2Z" transform="translate(114.024 61.358)" fill="#e8ca4d"/>
    <path id="Trazado_146585" data-name="Trazado 146585" d="M155.966,107.819H174.51V96.835H155.966Zm1.1-1.071h-.629v-9.1h.629Zm.684,0h-.629v-9.1h.629Zm2.31,0h-1.123v-9.1h1.123Zm1.25,0h-.629v-9.1h.629Zm1.06,0h-.629v-9.1h.629Zm2.121,0h-1.25v-9.1h1.25Zm1.062,0h-.629v-9.1h.629Zm1.437,0h-.629v-9.1h.629Zm.684,0h-.629v-9.1h.629Zm1.437,0h-.629v-9.1h.629Zm.684,0h-.629v-9.1h.629Zm.684,0h-.629v-9.1h.629Zm1.626,0h-.629v-9.1h.629Zm.873,0h-.629v-9.1h.629Zm1.06,0h-.629v-9.1h.629Z" transform="translate(132.478 82.252)" fill="#dde5ed"/>
    <rect id="Rectángulo_33978" data-name="Rectángulo 33978" width="0.629" height="9.105" transform="translate(288.916 179.895)" fill="#545057"/>
    <rect id="Rectángulo_33979" data-name="Rectángulo 33979" width="0.629" height="9.105" transform="translate(289.6 179.895)" fill="#545057"/>
    <rect id="Rectángulo_33980" data-name="Rectángulo 33980" width="1.123" height="9.105" transform="translate(291.415 179.895)" fill="#545057"/>
    <rect id="Rectángulo_33981" data-name="Rectángulo 33981" width="0.629" height="9.105" transform="translate(293.16 179.895)" fill="#545057"/>
    <rect id="Rectángulo_33982" data-name="Rectángulo 33982" width="0.629" height="9.105" transform="translate(294.22 179.895)" fill="#545057"/>
    <rect id="Rectángulo_33983" data-name="Rectángulo 33983" width="1.25" height="9.105" transform="translate(295.722 179.895)" fill="#545057"/>
    <rect id="Rectángulo_33984" data-name="Rectángulo 33984" width="0.629" height="9.105" transform="translate(297.403 179.895)" fill="#545057"/>
    <rect id="Rectángulo_33985" data-name="Rectángulo 33985" width="0.629" height="9.105" transform="translate(298.84 179.895)" fill="#545057"/>
    <rect id="Rectángulo_33986" data-name="Rectángulo 33986" width="0.629" height="9.105" transform="translate(299.524 179.895)" fill="#545057"/>
    <rect id="Rectángulo_33987" data-name="Rectángulo 33987" width="0.629" height="9.105" transform="translate(300.961 179.895)" fill="#545057"/>
    <rect id="Rectángulo_33988" data-name="Rectángulo 33988" width="0.629" height="9.105" transform="translate(301.645 179.895)" fill="#545057"/>
    <rect id="Rectángulo_33989" data-name="Rectángulo 33989" width="0.629" height="9.105" transform="translate(302.33 179.895)" fill="#545057"/>
    <rect id="Rectángulo_33990" data-name="Rectángulo 33990" width="0.629" height="9.105" transform="translate(303.955 179.895)" fill="#545057"/>
    <rect id="Rectángulo_33991" data-name="Rectángulo 33991" width="0.629" height="9.105" transform="translate(304.828 179.895)" fill="#545057"/>
    <rect id="Rectángulo_33992" data-name="Rectángulo 33992" width="0.629" height="9.105" transform="translate(305.888 179.895)" fill="#545057"/>
    <path id="Trazado_146586" data-name="Trazado 146586" d="M166.052,85.635v4.172c-1.226.105-2.18.534-2.371,1.075h5.9c-.191-.54-1.145-.969-2.371-1.075V85.635a3.569,3.569,0,0,0,2.436-3.612c0-.039,0-.078-.006-.117h-6.014c0,.039-.006.078-.006.117a3.569,3.569,0,0,0,2.436,3.612" transform="translate(138.976 69.572)" fill="#ea5f21"/>
    <path id="Trazado_146587" data-name="Trazado 146587" d="M160.767,85.616a2.062,2.062,0,0,1,.675-.185,3.178,3.178,0,0,1,1.248.141c.046,1.668.037,4.1,0,4.5a1.84,1.84,0,0,1-.327,1.038,1.046,1.046,0,0,1-1.248.285.881.881,0,0,1-.405-.473,2.05,2.05,0,0,1-.094-.579.845.845,0,0,0-.6.118c-.442.3-.154.825.146,1.123a2.121,2.121,0,0,0,.782.492,1.588,1.588,0,0,0,.512.081,2.171,2.171,0,0,0,1.635-.758,3.558,3.558,0,0,0,.375-2.2v-3.59a2.6,2.6,0,0,1,1.927,0,1.339,1.339,0,0,1,1.491,0,3.984,3.984,0,0,0-3.36-3.159.6.6,0,0,0-1.08,0,3.8,3.8,0,0,0-3.359,3.159,1.684,1.684,0,0,1,.784-.226,1.7,1.7,0,0,1,.9.226" transform="translate(135.125 69.755)" fill="#ea5f21"/>
    <path id="Trazado_146588" data-name="Trazado 146588" d="M160.573,82.5h.109a.328.328,0,0,0,0-.655h-.109a.328.328,0,0,0,0,.655" transform="translate(136.123 69.524)" fill="#ea5f21"/>
    <path id="Trazado_146589" data-name="Trazado 146589" d="M161.251,81.974a.328.328,0,0,0,0-.655.328.328,0,0,0,0,.655" transform="translate(136.699 69.073)" fill="#ea5f21"/>
    <path id="Trazado_146590" data-name="Trazado 146590" d="M162.174,82.168v-.055a.328.328,0,0,0-.655,0v.055a.328.328,0,0,0,.655,0" transform="translate(137.195 69.479)" fill="#ea5f21"/>
    <path id="Trazado_146591" data-name="Trazado 146591" d="M162.558,81.489v-.054a.328.328,0,0,0-.655,0v.054a.328.328,0,0,0,.655,0" transform="translate(137.521 68.903)" fill="#ea5f21"/>
    <path id="Trazado_146592" data-name="Trazado 146592" d="M162.962,82.3a.328.328,0,0,0,0-.655.328.328,0,0,0,0,.655" transform="translate(138.152 69.349)" fill="#ea5f21"/>
    <path id="Trazado_146593" data-name="Trazado 146593" d="M156.445,84.366a.433.433,0,0,0,.207.05.4.4,0,0,0,.316-.139l.755-.949v7.059a.386.386,0,0,0,.756,0V83.23l.956,1.06a.431.431,0,0,0,.527.065.276.276,0,0,0,.08-.435L158.406,82.1a.442.442,0,0,0-.314-.126.4.4,0,0,0-.305.141l-1.45,1.818a.28.28,0,0,0,.109.431" transform="translate(132.741 69.631)" fill="#ea5f21"/>
    <path id="Trazado_146594" data-name="Trazado 146594" d="M153.927,84.366a.423.423,0,0,0,.207.05.4.4,0,0,0,.316-.139l.755-.949v7.059a.386.386,0,0,0,.756,0V83.23l.954,1.06a.434.434,0,0,0,.529.065.275.275,0,0,0,.078-.435L155.885,82.1a.435.435,0,0,0-.314-.126.405.405,0,0,0-.305.141l-1.448,1.818a.279.279,0,0,0,.109.431" transform="translate(130.601 69.631)" fill="#ea5f21"/>
    <path id="Trazado_146595" data-name="Trazado 146595" d="M161.2,86.877h-6.821a.378.378,0,0,0,0,.756H161.2a.378.378,0,0,0,0-.756" transform="translate(130.814 73.794)" fill="#ea5f21"/>
    <rect id="Rectángulo_33993" data-name="Rectángulo 33993" width="2.696" height="5.202" transform="translate(277.919 133.56)" fill="#d2f3f8"/>
    <path id="Trazado_146596" data-name="Trazado 146596" d="M154.465,72.218h-2.732v5.2h2.872Z" transform="translate(128.883 61.343)" fill="#bce2e8"/>
    <path id="Trazado_146597" data-name="Trazado 146597" d="M150.231,75.533v4.453l.8-.878,1.071.878.908-1.1,0-3.357Z" transform="translate(127.607 64.158)" fill="#d2f3f8"/>
    <path id="Trazado_146598" data-name="Trazado 146598" d="M151.734,75.533l0,3.357.9,1.618,1.259-.819.945.819V75.533Z" transform="translate(128.882 64.158)" fill="#bce2e8"/>
    <path id="Trazado_146599" data-name="Trazado 146599" d="M134.059,97.922v4.624H136.9V97.922Z" transform="translate(113.87 83.175)" fill="#d2f3f8"/>
    <path id="Trazado_146600" data-name="Trazado 146600" d="M138.581,100.359l.71-.692-.438-1,.081-.745h-3.34v4.624h2.987l-.579-.627,1.289-.843Z" transform="translate(115.174 83.175)" fill="#bce2e8"/>
    <rect id="Rectángulo_33994" data-name="Rectángulo 33994" width="19.134" height="0.61" transform="translate(255.695 150.203)" fill="#545057"/>
    <rect id="Rectángulo_33995" data-name="Rectángulo 33995" width="19.134" height="0.61" transform="translate(255.695 152.147)" fill="#545057"/>
    <rect id="Rectángulo_33996" data-name="Rectángulo 33996" width="19.134" height="0.61" transform="translate(255.695 154.092)" fill="#545057"/>
    <rect id="Rectángulo_33997" data-name="Rectángulo 33997" width="19.134" height="0.61" transform="translate(255.695 156.036)" fill="#545057"/>
    <rect id="Rectángulo_33998" data-name="Rectángulo 33998" width="19.134" height="0.61" transform="translate(255.695 157.982)" fill="#545057"/>
    <path id="Trazado_146601" data-name="Trazado 146601" d="M161.465,118.707l-7.731-4.213a2.148,2.148,0,0,1-2.77.583l-20.981-11.435A2.145,2.145,0,0,1,128.969,101l-7.731-4.215a4.778,4.778,0,0,0-6.521,1.759L86.956,149.487a4.777,4.777,0,0,0,2.057,6.432l40.228,21.921a4.788,4.788,0,0,0,6.53-1.753l27.761-50.944a4.786,4.786,0,0,0-2.068-6.436" transform="translate(73.396 81.682)" fill="#e4f4ff"/>
    <path id="Trazado_146602" data-name="Trazado 146602" d="M164.445,117.415l-7.729-4.213a2.083,2.083,0,0,1-.092.222l-1.263,2.317a1.893,1.893,0,0,1-.141.2l7.731,4.211a4.787,4.787,0,0,1,2.068,6.438l-27.761,50.944a4.787,4.787,0,0,1-6.53,1.751L90.5,157.367a4.779,4.779,0,0,1-2.058-6.432L116.2,99.991a4.776,4.776,0,0,1,6.521-1.757l7.731,4.213a2.2,2.2,0,0,1,.1-.227l1.261-2.317a1.879,1.879,0,0,1,.137-.2l-7.73-4.213a7.98,7.98,0,0,0-10.887,2.935L85.57,149.371a7.978,7.978,0,0,0,3.436,10.738l40.226,21.921a7.985,7.985,0,0,0,10.895-2.928l27.763-50.944a7.987,7.987,0,0,0-3.445-10.743" transform="translate(71.909 80.231)" fill="#4d4d4d"/>
    <path id="Trazado_146603" data-name="Trazado 146603" d="M134.736,108.962l-1.868-1.017.632-1.16a2.141,2.141,0,0,0-.919-2.872L119.164,96.6a2.138,2.138,0,0,0-2.911.784l-.631,1.16-1.868-1.019a2.15,2.15,0,0,0-2.776.588,1.868,1.868,0,0,0-.135.2l-1.263,2.317a1.845,1.845,0,0,0-.094.227A2.145,2.145,0,0,0,110.5,103.5l20.982,11.435a2.142,2.142,0,0,0,2.769-.583,1.51,1.51,0,0,0,.141-.2l1.265-2.317a2.065,2.065,0,0,0,.091-.222,2.147,2.147,0,0,0-1.01-2.65" transform="translate(92.88 81.82)" fill="#4d4d4d"/>
    <path id="Trazado_146604" data-name="Trazado 146604" d="M132.315,108.668,112.932,98.106a1.745,1.745,0,0,0-2.362.7l-.041.076a1.743,1.743,0,0,0,.7,2.36L130.608,111.8a1.749,1.749,0,0,0,2.362-.7l.041-.076a1.746,1.746,0,0,0-.7-2.362" transform="translate(93.704 83.152)" fill="#d0d5d8"/>
    <path id="Trazado_146605" data-name="Trazado 146605" d="M127.861,103.794l-12.311-6.71a1.166,1.166,0,0,0-1.576.464l-.028.05a1.168,1.168,0,0,0,.464,1.578l12.311,6.708a1.164,1.164,0,0,0,1.576-.464l.028-.05a1.164,1.164,0,0,0-.464-1.576" transform="translate(96.668 82.345)" fill="#d0d5d8"/>
    <path id="Trazado_146606" data-name="Trazado 146606" d="M131.772,124.022l-24.187-13.179a.878.878,0,0,0-1.189.35l-.02.037a.881.881,0,0,0,.351,1.191L130.912,125.6a.879.879,0,0,0,1.189-.351l.02-.039a.879.879,0,0,0-.35-1.189" transform="translate(90.266 94.06)" fill="#1893d1"/>
    <path id="Trazado_146607" data-name="Trazado 146607" d="M99.979,111.872l7.862,4.285,4.2-7.7-7.862-4.283Zm4.629-6.242,5.97,3.253-3.168,5.811-5.97-3.251Z" transform="translate(84.923 88.482)" fill="#455256"/>
    <path id="Trazado_146608" data-name="Trazado 146608" d="M127.974,130.992l-24.187-13.179a.878.878,0,0,0-1.189.35l-.02.037a.881.881,0,0,0,.351,1.191l24.185,13.179a.878.878,0,0,0,1.189-.35l.02-.039a.878.878,0,0,0-.35-1.189" transform="translate(87.04 99.98)" fill="#1893d1"/>
    <path id="Trazado_146609" data-name="Trazado 146609" d="M96.181,118.841l7.862,4.285,4.2-7.7-7.862-4.285Zm4.629-6.242,5.97,3.253-3.168,5.813-5.97-3.253Z" transform="translate(81.697 94.4)" fill="#455256"/>
    <path id="Trazado_146610" data-name="Trazado 146610" d="M124.178,137.96,99.989,124.781a.876.876,0,0,0-1.187.35l-.022.037a.88.88,0,0,0,.353,1.191l24.183,13.181a.88.88,0,0,0,1.189-.351l.02-.039a.879.879,0,0,0-.348-1.189" transform="translate(83.814 105.899)" fill="#1893d1"/>
    <path id="Trazado_146611" data-name="Trazado 146611" d="M92.383,125.811l7.862,4.285,4.2-7.7-7.862-4.285Zm4.629-6.242,5.97,3.253-3.166,5.811-5.97-3.253Z" transform="translate(78.471 100.32)" fill="#455256"/>
    <path id="Trazado_146612" data-name="Trazado 146612" d="M105.576,118.775a.9.9,0,0,0-1.271-.089l-8.147,7.08.163-7.71a.9.9,0,1,0-1.8-.039l-.209,9.737a.9.9,0,0,0,.468.81l.048.024a.9.9,0,0,0,.973-.137l9.68-8.407a.9.9,0,0,0,.091-1.269" transform="translate(80.113 99.498)" fill="#ea5f21"/>
    <path id="Trazado_146613" data-name="Trazado 146613" d="M108.664,113.107a.9.9,0,0,0-1.269-.089l-8.148,7.08.165-7.71a.9.9,0,0,0-1.8-.039l-.207,9.737a.9.9,0,0,0,.468.808.4.4,0,0,0,.048.026.9.9,0,0,0,.971-.137l9.682-8.407a.9.9,0,0,0,.089-1.269" transform="translate(82.738 94.683)" fill="#ea5f21"/>
    <path id="Trazado_146614" data-name="Trazado 146614" d="M112.91,105.314a.9.9,0,0,0-1.269-.089l-8.148,7.08.165-7.71a.9.9,0,1,0-1.8-.037l-.209,9.735a.9.9,0,0,0,.468.808l.048.026a.9.9,0,0,0,.973-.135l9.68-8.409a.9.9,0,0,0,.089-1.269" transform="translate(86.345 88.064)" fill="#ea5f21"/>
    <path id="Trazado_146615" data-name="Trazado 146615" d="M139.589,106.53l-1.722-2.053a1.734,1.734,0,0,0-2.412-.377l-1.733,1.455,2.878,3.49Z" transform="translate(113.585 88.136)" fill="#4db5ea"/>
    <path id="Trazado_146616" data-name="Trazado 146616" d="M139.631,109.427a1.786,1.786,0,0,0,.033-2.5l-1.4-1.663-2.989,2.515,2.589,3.14Z" transform="translate(114.907 89.408)" fill="#1893d1"/>
    <path id="Trazado_146617" data-name="Trazado 146617" d="M103.534,130.15l-.263.22.067.113Z" transform="translate(87.719 110.551)" fill="#ea5f21"/>
    <path id="Trazado_146618" data-name="Trazado 146618" d="M106.036,134.34l-.337.107.07.118Z" transform="translate(89.781 114.109)" fill="#f9773d"/>
    <path id="Trazado_146619" data-name="Trazado 146619" d="M155.456,113.064l4.376-3.684-2.859-3.516-3.1,2.6-50.461,42.32,2.4,4.078Z" transform="translate(87.84 89.921)" fill="#4db5ea"/>
    <path id="Trazado_146620" data-name="Trazado 146620" d="M158.153,113.587l3.148-2.658-2.573-3.164-4.376,3.684-49.64,41.795,2.162,3.669Z" transform="translate(88.943 91.536)" fill="#1893d1"/>
    <path id="Trazado_146621" data-name="Trazado 146621" d="M138.489,110.213l.536-.453-2.591-3.14-.531.448-1.984,1.67,2.573,3.164Z" transform="translate(113.751 90.563)" fill="#e4f4ff"/>
    <path id="Trazado_146622" data-name="Trazado 146622" d="M137.216,108.671l.531-.448-2.878-3.492-.529.442-1.966,1.65,2.857,3.518Z" transform="translate(112.439 88.96)" fill="#dde5ed"/>
    <path id="Trazado_146623" data-name="Trazado 146623" d="M105.676,135.06l-1.578-2.73-4.274,7.3.692-.222Z" transform="translate(84.791 112.402)" fill="#a4b5bc"/>
    <path id="Trazado_146624" data-name="Trazado 146624" d="M105.358,133.807l-5.16,4.344,6.473-2.069Z" transform="translate(85.109 113.656)" fill="#58595b"/>
    <path id="Trazado_146625" data-name="Trazado 146625" d="M106.636,134.452l.264-.224-2.4-4.078-.2.335-2.168,3.7,1.578,2.73Z" transform="translate(86.754 110.55)" fill="#dde5ed"/>
    <path id="Trazado_146626" data-name="Trazado 146626" d="M108,136.132l.337-.107-2.162-3.669-.264.222-2.924,2.462,1.313,2.275Z" transform="translate(87.479 112.424)" fill="#e4f4ff"/>
    <path id="Trazado_146627" data-name="Trazado 146627" d="M169.231,44.658l.19,4.416-1.16-26.889a5.173,5.173,0,0,0-5.073-4.938h-11.81a.829.829,0,0,0-.827.845,3.292,3.292,0,0,1-.936,2.341,3.224,3.224,0,0,1-2.319.978H144.75V44.658ZM148.885,22.166h14.043a3.642,3.642,0,0,1,3.562,3.5l.516,13a3.481,3.481,0,0,1-3.4,3.715h-14.56a3.654,3.654,0,0,1-3.553-3.715l-.022-13a3.464,3.464,0,0,1,3.418-3.5" transform="translate(122.951 14.651)" fill="#b0b4b7"/>
    <path id="Trazado_146628" data-name="Trazado 146628" d="M156.138,21.415h-2.857a3.265,3.265,0,0,1-3.255-3.322.851.851,0,0,0-.239-.6.827.827,0,0,0-.59-.246h-11.81a5.17,5.17,0,0,0-5.073,4.938l-.971,22.472h24.795ZM151.531,42.38h-14.56a3.478,3.478,0,0,1-3.4-3.714l.514-13a3.642,3.642,0,0,1,3.562-3.5h14.043a3.463,3.463,0,0,1,3.418,3.5l-.02,13a3.656,3.656,0,0,1-3.555,3.714" transform="translate(111.563 14.651)" fill="#c0d1e1"/>
    <path id="Trazado_146629" data-name="Trazado 146629" d="M156.333,34.539H131.342l-.229,5.339h25.22Z" transform="translate(111.368 29.338)" fill="#c0d1e1"/>
    <path id="Trazado_146630" data-name="Trazado 146630" d="M144.75,39.878h24.908l-.229-5.339H144.75Z" transform="translate(122.951 29.338)" fill="#b0b4b7"/>
    <path id="Trazado_146631" data-name="Trazado 146631" d="M170.131,46.177l-.263-6.123H144.75V52.036h20.292a5.36,5.36,0,0,0,5.09-5.859m-6.7,1.38a.886.886,0,0,1-.882.882h-10.4a.886.886,0,0,1-.882-.882V44.03a.884.884,0,0,1,.882-.88h10.4a.884.884,0,0,1,.882.88Z" transform="translate(122.951 34.022)" fill="#b0b4b7"/>
    <path id="Trazado_146632" data-name="Trazado 146632" d="M131.123,40.053l-.264,6.127a5.363,5.363,0,0,0,5.091,5.859h20.6V40.053Zm17.725,8.385h-10.4a.885.885,0,0,1-.884-.882V44.031a.884.884,0,0,1,.884-.88h10.4a.884.884,0,0,1,.882.88v3.525a.884.884,0,0,1-.882.882" transform="translate(111.147 34.021)" fill="#c0d1e1"/>
    <path id="Trazado_146633" data-name="Trazado 146633" d="M144.111,15.4a3.355,3.355,0,0,0-2.138,1.824,5.724,5.724,0,0,0-.046,3.316,3.337,3.337,0,0,0,2.142,1.851,17.413,17.413,0,0,0,3.268.279v-7.54a17.262,17.262,0,0,0-3.225.27" transform="translate(120.364 12.854)" fill="#f9773d"/>
    <path id="Trazado_146634" data-name="Trazado 146634" d="M149.847,20.543a5.723,5.723,0,0,0-.046-3.316,3.36,3.36,0,0,0-2.138-1.824,17.434,17.434,0,0,0-2.913-.27v7.54a17.39,17.39,0,0,0,2.955-.279,3.336,3.336,0,0,0,2.142-1.851" transform="translate(122.951 12.854)" fill="#ea5f21"/>
    <path id="Trazado_146635" data-name="Trazado 146635" d="M145.159,36.407a3.655,3.655,0,0,0,3.555,3.714h14.56a3.477,3.477,0,0,0,3.4-3.714l-.516-13a3.637,3.637,0,0,0-3.56-3.5H148.555a3.461,3.461,0,0,0-3.416,3.5Z" transform="translate(123.282 16.91)" fill="#1893d1"/>
    <path id="Trazado_146636" data-name="Trazado 146636" d="M150.668,19.907H136.625a3.642,3.642,0,0,0-3.562,3.5l-.516,13a3.481,3.481,0,0,0,3.4,3.715h14.56a3.654,3.654,0,0,0,3.553-3.715l.022-13a3.464,3.464,0,0,0-3.418-3.5" transform="translate(112.584 16.909)" fill="#4db5ea"/>
    <path id="Trazado_146637" data-name="Trazado 146637" d="M144.75,32.069v4.568h24.678l-.007-.15-.19-4.418Z" transform="translate(122.951 27.239)" fill="#ea5f21"/>
    <path id="Trazado_146638" data-name="Trazado 146638" d="M156.228,32.069H131.435l-.2,4.568h24.991Z" transform="translate(111.473 27.239)" fill="#f9773d"/>
    <path id="Trazado_146639" data-name="Trazado 146639" d="M144.75,42.286h25.635v-4.86H144.75Z" transform="translate(122.951 31.79)" fill="#ea5f21"/>
    <path id="Trazado_146640" data-name="Trazado 146640" d="M156.667,37.426H130.72v4.86h25.947Z" transform="translate(111.034 31.79)" fill="#f9773d"/>
    <path id="Trazado_146641" data-name="Trazado 146641" d="M145.768,41.728h-10.4a.885.885,0,0,0-.884.882v3.525a.885.885,0,0,0,.884.882h10.4a.884.884,0,0,0,.882-.882V42.61a.884.884,0,0,0-.882-.882" transform="translate(114.227 35.444)" fill="#ea5f21"/>
    <path id="Trazado_146642" data-name="Trazado 146642" d="M159.558,41.728h-10.4a.884.884,0,0,0-.882.882v3.525a.884.884,0,0,0,.882.882h10.4a.884.884,0,0,0,.882-.882V42.61a.884.884,0,0,0-.882-.882" transform="translate(125.942 35.444)" fill="#ea5f21"/>
    <path id="Trazado_146643" data-name="Trazado 146643" d="M140.392,54.244l3.181-4.718H138.4l-9.1,11.383a1.941,1.941,0,0,0-.133.187h6.612l1.685-2.5h20.534V54.244Z" transform="translate(109.71 42.068)" fill="#185377"/>
    <path id="Trazado_146644" data-name="Trazado 146644" d="M173.136,60.909l-9.1-11.383h-5.175l3.179,4.718H144.749V58.6H164.97l1.685,2.5h6.614c-.041-.063-.083-.126-.133-.189" transform="translate(122.951 42.068)" fill="#074b68"/>
    <path id="Trazado_146645" data-name="Trazado 146645" d="M152.866,47.2l-.1.018h.614a1.405,1.405,0,0,0-.51-.018" transform="translate(129.757 40.078)" fill="#4d4d4d"/>
    <path id="Trazado_146646" data-name="Trazado 146646" d="M136.746,47.2a1.4,1.4,0,0,0-.51.018h.614Z" transform="translate(115.72 40.078)" fill="#4d4d4d"/>
    <path id="Trazado_146647" data-name="Trazado 146647" d="M155.033,51.5V47.2H133.526a.884.884,0,0,0-.882.882v2.534a.883.883,0,0,0,.882.882h21.507Z" transform="translate(112.669 40.094)" fill="#4db5ea"/>
    <path id="Trazado_146648" data-name="Trazado 146648" d="M158.855,51.5h7.089a.884.884,0,0,0,.882-.882V48.084a.886.886,0,0,0-.882-.882H144.75v4.3Z" transform="translate(122.951 40.094)" fill="#1893d1"/>
    <rect id="Rectángulo_33999" data-name="Rectángulo 33999" width="31.425" height="48.31" transform="translate(86.09 173.508)" fill="#eabe32"/>
    <rect id="Rectángulo_34000" data-name="Rectángulo 34000" width="31.425" height="48.31" transform="translate(54.665 173.508)" fill="#f7dc54"/>
    <path id="Trazado_146649" data-name="Trazado 146649" d="M82.847,116.519H82.7V122.2a.645.645,0,0,1-.018.146h.168a1.059,1.059,0,0,0,1.056-1.056v-3.717a1.059,1.059,0,0,0-1.056-1.056" transform="translate(70.228 98.972)" fill="#ea5f21"/>
    <path id="Trazado_146650" data-name="Trazado 146650" d="M82.364,119.94h-.026c.007.018.017.017.026,0" transform="translate(69.938 101.878)" fill="#4db5ea"/>
    <path id="Trazado_146651" data-name="Trazado 146651" d="M96.74,127.277c-.3-.756-10.532-25.231-20.1-25.231H65.026v26.128H97a5.9,5.9,0,0,0-.261-.9m-21.988-1.818H67.939V123.58h6.813ZM68.6,120.577V106.351h7.6c3.923-.124,7.316,3.494,9.719,7.111a43.117,43.117,0,0,1,3.758,7.115Z" transform="translate(55.233 86.678)" fill="#ea5f21"/>
    <path id="Trazado_146652" data-name="Trazado 146652" d="M97.69,116.812v-.418l-.311-.22H65.026v6.965H97.084a.614.614,0,0,0,.588-.5.646.646,0,0,0,.018-.146Z" transform="translate(55.233 98.679)" fill="#4db5ea"/>
    <path id="Trazado_146653" data-name="Trazado 146653" d="M74.558,104.375h-7.6v7.111H84.277c-2.4-3.617-5.794-7.235-9.719-7.111" transform="translate(56.877 88.654)" fill="#dde5ed"/>
    <path id="Trazado_146654" data-name="Trazado 146654" d="M36.112,123.68v-1.755h-6.7v6h6.7V123.68Z" transform="translate(24.984 103.564)" fill="#333"/>
    <path id="Trazado_146655" data-name="Trazado 146655" d="M45.57,124.024a7.991,7.991,0,0,1,1.367,1.829,7.991,7.991,0,0,0-1.367-1.829" transform="translate(38.707 105.347)" fill="#4890ac"/>
    <path id="Trazado_146656" data-name="Trazado 146656" d="M46.634,125.783a7.911,7.911,0,0,1,.357,2.362,7.911,7.911,0,0,0-.357-2.362" transform="translate(39.611 106.841)" fill="#4890ac"/>
    <path id="Trazado_146657" data-name="Trazado 146657" d="M38.24,128.145h0a7.911,7.911,0,0,1,.357-2.362,7.911,7.911,0,0,0-.357,2.362" transform="translate(32.481 106.841)" fill="#4890ac"/>
    <path id="Trazado_146658" data-name="Trazado 146658" d="M38.758,125.853a7.951,7.951,0,0,1,1.367-1.829,7.951,7.951,0,0,0-1.367,1.829" transform="translate(32.921 105.347)" fill="#4890ac"/>
    <path id="Trazado_146659" data-name="Trazado 146659" d="M77.752,128.371H88.8v-4.015H76.383a9.436,9.436,0,0,1,1.369,4.015" transform="translate(64.88 105.629)" fill="#ea5f21"/>
    <path id="Trazado_146660" data-name="Trazado 146660" d="M48.3,128.371h35.47a9.457,9.457,0,0,1,1.365-4.015h-38.2a9.486,9.486,0,0,1,1.369,4.015" transform="translate(39.863 105.629)" fill="#ea5f21"/>
    <path id="Trazado_146661" data-name="Trazado 146661" d="M33.036,122.9v1.755H45.02a9.508,9.508,0,0,1,11.163,0H99.489a9.505,9.505,0,0,1,11.161,0h14.971v-3.88H33.036Z" transform="translate(28.061 102.588)" fill="#ea5f21"/>
    <path id="Trazado_146662" data-name="Trazado 146662" d="M33.036,124.356v4.015H41.1a9.461,9.461,0,0,1,1.369-4.015Z" transform="translate(28.061 105.629)" fill="#ea5f21"/>
    <path id="Trazado_146663" data-name="Trazado 146663" d="M82.617,126.922a8.062,8.062,0,0,0-1.369-1.831,7.943,7.943,0,0,0-11.23,0,8.062,8.062,0,0,0-1.369,1.831,7.944,7.944,0,1,0,13.967,0m-10.518.255a5,5,0,1,1-1.468,3.534,4.968,4.968,0,0,1,1.468-3.534" transform="translate(57.498 104.278)" fill="#333"/>
    <path id="Trazado_146664" data-name="Trazado 146664" d="M74.284,133.688a5,5,0,0,0,3.534-1.468l-7.068-7.068a5,5,0,0,0,3.534,8.537" transform="translate(58.848 106.304)" fill="#f7dc54"/>
    <path id="Trazado_146665" data-name="Trazado 146665" d="M78.612,129.36a5,5,0,0,0-8.537-3.534l7.068,7.068a4.95,4.95,0,0,0,1.468-3.534" transform="translate(59.522 105.63)" fill="#eabe32"/>
    <rect id="Rectángulo_34001" data-name="Rectángulo 34001" width="6.813" height="1.879" transform="translate(123.174 210.259)" fill="#333"/>
    <path id="Trazado_146666" data-name="Trazado 146666" d="M66.961,108.219v7.115H88.035a43.035,43.035,0,0,0-3.758-7.115Z" transform="translate(56.877 91.922)" fill="#e4f4ff"/>
    <path id="Trazado_146667" data-name="Trazado 146667" d="M33.036,122.874v2.741H42.47a9.467,9.467,0,0,1,2.55-2.741Z" transform="translate(28.061 104.37)" fill="#074b68"/>
    <path id="Trazado_146668" data-name="Trazado 146668" d="M48.1,125.615H86.3a9.473,9.473,0,0,1,2.552-2.741h-43.3a9.492,9.492,0,0,1,2.55,2.741" transform="translate(38.692 104.37)" fill="#074b68"/>
    <path id="Trazado_146669" data-name="Trazado 146669" d="M77.555,125.615H89.974v-2.741H75a9.473,9.473,0,0,1,2.552,2.741" transform="translate(63.708 104.37)" fill="#074b68"/>
    <path id="Trazado_146670" data-name="Trazado 146670" d="M53.163,126.922a8,8,0,0,0-1.367-1.831,7.979,7.979,0,1,0,1.367,1.831m-10.516.255a5,5,0,1,1-1.468,3.534,4.968,4.968,0,0,1,1.468-3.534" transform="translate(32.481 104.278)" fill="#333"/>
    <path id="Trazado_146671" data-name="Trazado 146671" d="M44.831,133.688a5,5,0,0,0,3.534-1.468L41.3,125.151a5,5,0,0,0,3.534,8.537" transform="translate(33.83 106.304)" fill="#f7dc54"/>
    <path id="Trazado_146672" data-name="Trazado 146672" d="M49.159,129.36a5,5,0,0,0-8.537-3.534l7.068,7.068a4.95,4.95,0,0,0,1.468-3.534" transform="translate(34.505 105.63)" fill="#eabe32"/>
    <path id="Trazado_146673" data-name="Trazado 146673" d="M59.405,119.44a9.958,9.958,0,0,1-1.842-.174,9.194,9.194,0,0,1-5.84-3.673,8.032,8.032,0,0,1-1.348-6.438,8.858,8.858,0,0,1,6.4-6.49l-1.5,1.1a1,1,0,0,0-.3,1.369,1.082,1.082,0,0,0,.544.392,1.311,1.311,0,0,0,.209.044,1.119,1.119,0,0,0,.8-.205l4.424-3.264a.956.956,0,0,0,.4-.849.985.985,0,0,0-.533-.782L56.283,98a.984.984,0,0,0-.342-.105,1.1,1.1,0,0,0-1,.438.819.819,0,0,0,.242,1.228l1.568.938a11.021,11.021,0,0,0-8.578,8.239,10,10,0,0,0,1.677,8.012,11.457,11.457,0,0,0,7.268,4.57,12.324,12.324,0,0,0,2.284.215A11.66,11.66,0,0,0,69.551,115.8H66.936a9.438,9.438,0,0,1-7.531,3.64" transform="translate(40.718 83.146)" fill="#074b68"/>
    <path id="Trazado_146674" data-name="Trazado 146674" d="M50.645,110.122v.9h5.748v-1.309H54.306c-.414,0-.975.054-1.417.092,1.685-1.777,3.089-3.327,3.089-4.838a2.486,2.486,0,0,0-2.687-2.608,3.48,3.48,0,0,0-2.713,1.311l.854.854a2.357,2.357,0,0,1,1.659-.949,1.319,1.319,0,0,1,1.4,1.47c0,1.3-1.485,2.794-3.85,5.08" transform="translate(42.961 86.94)" fill="#074b68"/>
    <path id="Trazado_146675" data-name="Trazado 146675" d="M54.176,108.751h3.758v2.192h1.443v-2.192h1.071V107.56H59.377v-5.119H57.546l-3.37,5.267Zm3.077-3.556c.239-.455.479-.882.694-1.322H58c-.028.494-.067,1.269-.067,1.764v1.923H55.7Z" transform="translate(46.017 87.014)" fill="#074b68"/>
    <path id="Trazado_146676" data-name="Trazado 146676" d="M60.372,105.1a2.16,2.16,0,0,0-1.555.8l.041-1.021v-1.953H57.718V110.5h1.139v-3.68c.405-.431.682-.655,1.108-.655.534,0,.762.322.762,1.191V110.5h1.139v-3.3c0-1.332-.455-2.094-1.494-2.094" transform="translate(49.026 87.425)" fill="#074b68"/>
    <rect id="Rectángulo_34002" data-name="Rectángulo 34002" width="5.898" height="11.797" transform="translate(31.244 110.694)" fill="#1893d1"/>
    <rect id="Rectángulo_34003" data-name="Rectángulo 34003" width="5.898" height="11.797" transform="translate(25.344 110.694)" fill="#4db5ea"/>
    <rect id="Rectángulo_34004" data-name="Rectángulo 34004" width="5.898" height="11.797" transform="translate(16.378 110.694)" fill="#1893d1"/>
    <rect id="Rectángulo_34005" data-name="Rectángulo 34005" width="5.898" height="11.797" transform="translate(10.481 110.694)" fill="#4db5ea"/>
    <path id="Trazado_146677" data-name="Trazado 146677" d="M27.006,77.862h0V66.424h-5.9V77.862Z" transform="translate(17.93 56.42)" fill="#1893d1"/>
    <rect id="Rectángulo_34006" data-name="Rectángulo 34006" width="5.898" height="11.439" transform="translate(33.139 122.843)" fill="#4db5ea"/>
    <rect id="Rectángulo_34007" data-name="Rectángulo 34007" width="5.898" height="11.439" transform="translate(24.174 122.843)" fill="#1893d1"/>
    <rect id="Rectángulo_34008" data-name="Rectángulo 34008" width="5.898" height="11.439" transform="translate(18.274 122.843)" fill="#4db5ea"/>
    <rect id="Rectángulo_34009" data-name="Rectángulo 34009" width="5.898" height="11.439" transform="translate(9.308 122.845)" fill="#1893d1"/>
    <rect id="Rectángulo_34010" data-name="Rectángulo 34010" width="5.898" height="11.439" transform="translate(3.41 122.843)" fill="#4db5ea"/>
    <path id="Trazado_146678" data-name="Trazado 146678" d="M56.137,71.775V65.064a3.359,3.359,0,0,0-.62-1.955.506.506,0,0,0-.109-.133H27.877a1.185,1.185,0,0,0-.1.133,3.292,3.292,0,0,0-.632,1.955v6.717h.194c.013,0,.026-.006.039-.006Zm-6.188-6.562a1.935,1.935,0,0,1,.355-.307,2,2,0,0,1,.29-.141,1.878,1.878,0,0,1,.8-.2,1.9,1.9,0,0,1,.673.126,2.024,2.024,0,0,1,.568.331,2.306,2.306,0,0,1,.189.192,1.272,1.272,0,0,1,.1.1,2.075,2.075,0,0,1,.233.416,1.87,1.87,0,0,1,.194.79,1.893,1.893,0,0,1-.081.547l-.007.03a1.83,1.83,0,0,1-.242.507l0,0a1.948,1.948,0,1,1-3.124-2.319c.022-.024.035-.055.057-.08M43.8,64.907a1.972,1.972,0,0,1,.392-.19,1.926,1.926,0,0,1,.7-.146,1.974,1.974,0,0,1,1.241.457c.009.009.018.024.03.033a1.765,1.765,0,0,1,.253.259,2.058,2.058,0,0,1,.153.272,1.842,1.842,0,0,1,.279.934,1.959,1.959,0,0,1-1.957,1.957,1.956,1.956,0,0,1-1.955-1.957,1.925,1.925,0,0,1,.239-.928,1.952,1.952,0,0,1,.627-.69m-6.813.263a1.945,1.945,0,0,1,.3-.263,2.107,2.107,0,0,1,.3-.144,1.917,1.917,0,0,1,.8-.192,1.972,1.972,0,0,1,1.237.457,1.94,1.94,0,0,1,.285.292,2.056,2.056,0,0,1,.185.331,1.862,1.862,0,0,1,.242.875A1.942,1.942,0,0,1,40,67.609a2.032,2.032,0,0,1-.307.359,1.942,1.942,0,0,1-3.081-2.253c.019-.039.028-.081.048-.12l0,0a1.929,1.929,0,0,1,.318-.422m-6.2-.263a2.459,2.459,0,0,1,1.089-.337,1.988,1.988,0,0,1,1.526.749,1.991,1.991,0,0,1,.189.337,1.84,1.84,0,0,1,.242.869,1.979,1.979,0,0,1-.331,1.087,1.952,1.952,0,1,1-2.715-2.706" transform="translate(23.06 53.492)" fill="#e6e6e6"/>
    <path id="Trazado_146679" data-name="Trazado 146679" d="M65.722,70.449a2.716,2.716,0,0,0-2.715-2.715H28.4c-.013,0-.024.006-.039.006a2.455,2.455,0,0,0-2.419,2.454v6.554H65.722Zm-32.666,2.3-.009.041c-.007.044-.018.089-.03.133s-.015.072-.024.109-.022.044-.03.068a1.92,1.92,0,0,1-.135.294c-.013.022-.018.048-.031.072a.507.507,0,0,0-.035.052l-.05.068c-.015.022-.031.043-.05.068s-.05.054-.074.081a1.936,1.936,0,0,1-.932.586,1.876,1.876,0,0,1-.523.081h0a1.914,1.914,0,0,1-1.187-.412.183.183,0,0,1-.028-.026,2.028,2.028,0,0,1-.272-.263,1.928,1.928,0,0,1-.466-1.252A1.949,1.949,0,0,1,31.7,70.586a1.8,1.8,0,0,1,.52.248h0a1.952,1.952,0,0,1,.858,1.618l0,.046a1.592,1.592,0,0,1-.02.252M37.637,74.4a1.911,1.911,0,0,1-.834-.191,2.005,2.005,0,0,1-.655-.51,1.933,1.933,0,0,1,2.175-3.066,1.905,1.905,0,0,1,.411.2,1.862,1.862,0,0,1,.287.253,1.961,1.961,0,0,1,.335.435,1.924,1.924,0,0,1,.237.928A1.954,1.954,0,0,1,37.637,74.4m8.444-1.7-.02.129-.006.028-.013.055-.048.159a.52.52,0,0,1-.033.083c-.013.035-.026.068-.043.1a1.121,1.121,0,0,1-.057.128c-.031.055-.063.111-.094.159h0c-.007.011-.018.018-.026.031l-.011.015a.137.137,0,0,1-.031.046,1.408,1.408,0,0,1-.1.109,1.79,1.79,0,0,1-.237.222l-.02.017L45.325,74a1.708,1.708,0,0,1-.152.105.784.784,0,0,1-.1.063,1.281,1.281,0,0,1-.124.061.547.547,0,0,1-.057.026l-.03.017-.142.046c-.035.011-.078.019-.115.028s-.067.017-.1.022-.035.011-.054.013h-.017a1.625,1.625,0,0,1-.283.024h-.009a1.9,1.9,0,0,1-1.278-.5,1.877,1.877,0,0,1-.2-.2,1.918,1.918,0,0,1-.466-1.252A1.952,1.952,0,0,1,44.145,70.5a1.926,1.926,0,0,1,.954.268,1.354,1.354,0,0,1,.139.067c.03.02.054.048.081.07a1.94,1.94,0,0,1,.779,1.548v.017c0,.076-.007.157-.017.233m4.574,1.7a1.866,1.866,0,0,1-.512-.078,1.918,1.918,0,0,1-.677-.335,2.339,2.339,0,0,1-.3-.288A1.951,1.951,0,0,1,48.7,72.45a1.953,1.953,0,0,1,3.046-1.616,1.963,1.963,0,0,1,.629.7,1.914,1.914,0,0,1,.237.919A1.956,1.956,0,0,1,50.655,74.4m6.508,0h0a1.9,1.9,0,0,1-1.232-.457,2.109,2.109,0,0,1-.253-.244,1.928,1.928,0,0,1-.466-1.252A1.953,1.953,0,0,1,57.163,70.5a1.929,1.929,0,0,1,.866.226,1.98,1.98,0,0,1,.227.109,2.293,2.293,0,0,1,.176.152,1.966,1.966,0,0,1,.449.538,1.979,1.979,0,0,1,.235.928A1.953,1.953,0,0,1,57.163,74.4" transform="translate(22.038 57.534)" fill="#c1daec"/>
    <path id="Trazado_146680" data-name="Trazado 146680" d="M68.8,72.608H25.945V76.4H70.264l.405-1.357a1.815,1.815,0,0,0-1.868-2.43" transform="translate(22.038 61.674)" fill="#1893d1"/>
    <path id="Trazado_146681" data-name="Trazado 146681" d="M47.983,72.608H1.431c-1.439,0-1.859,1.119-.958,2.443L1.387,76.4h46.6Z" transform="translate(0 61.674)" fill="#4db5ea"/>
    <path id="Trazado_146682" data-name="Trazado 146682" d="M4.44,80.1l7.89,11.629a3.7,3.7,0,0,0,2.787,1.332l29.095-.03V80.1Z" transform="translate(3.771 68.037)" fill="#4db5ea"/>
    <path id="Trazado_146683" data-name="Trazado 146683" d="M25.945,93.031l35.579-.037a2.387,2.387,0,0,0,2.271-1.332L67.251,80.1H25.945Z" transform="translate(22.038 68.037)" fill="#1893d1"/>
    <path id="Trazado_146684" data-name="Trazado 146684" d="M46.362,76.363H1.908l2.61,3.852H46.362Z" transform="translate(1.621 64.863)" fill="#4db5ea"/>
    <path id="Trazado_146685" data-name="Trazado 146685" d="M25.945,80.215H68.169l1.152-3.852H25.945Z" transform="translate(22.038 64.863)" fill="#1893d1"/>
    <path id="Trazado_146686" data-name="Trazado 146686" d="M25.945,77.814H69.321l.943-3.159H25.945Z" transform="translate(22.038 63.413)" fill="#ea5f21"/>
    <path id="Trazado_146687" data-name="Trazado 146687" d="M47.346,74.655H.75l2.142,3.159H47.346Z" transform="translate(0.637 63.413)" fill="#f9773d"/>
    <path id="Trazado_146688" data-name="Trazado 146688" d="M45.164,78.446H3.319L5.392,81.5H45.164Z" transform="translate(2.819 66.632)" fill="#f9773d"/>
    <path id="Trazado_146689" data-name="Trazado 146689" d="M25.945,81.505H67.251l.917-3.059H25.945Z" transform="translate(22.038 66.633)" fill="#ea5f21"/>
    <path id="Trazado_146690" data-name="Trazado 146690" d="M30.6,67.744a1.955,1.955,0,0,0,1.953-1.953,1.86,1.86,0,0,0-.24-.869,1.991,1.991,0,0,0-.189-.337,1.864,1.864,0,0,0-.287-.292A1.936,1.936,0,0,0,30.6,63.84a2.406,2.406,0,0,0-1.091.333A1.952,1.952,0,0,0,30.6,67.744" transform="translate(24.331 54.226)" fill="#1893d1"/>
    <path id="Trazado_146691" data-name="Trazado 146691" d="M32.354,64.981a1.923,1.923,0,0,0-.189.81,1.953,1.953,0,0,0,3.27,1.443,2.032,2.032,0,0,0,.307-.359,1.942,1.942,0,0,0,.329-1.084,1.862,1.862,0,0,0-.242-.875,2.064,2.064,0,0,0-.187-.331,2.041,2.041,0,0,0-.287-.292,1.856,1.856,0,0,0-2.031-.264,2.107,2.107,0,0,0-.3.144,1.958,1.958,0,0,0-.3.263,1.936,1.936,0,0,0-.32.422l0,0c-.02.039-.03.081-.048.12" transform="translate(27.321 54.226)" fill="#1893d1"/>
    <path id="Trazado_146692" data-name="Trazado 146692" d="M37.637,67.744a1.955,1.955,0,0,0,1.953-1.953,1.888,1.888,0,0,0-.276-.936,2.265,2.265,0,0,0-.153-.27,1.974,1.974,0,0,0-.253-.259c-.013-.009-.02-.022-.033-.033a1.932,1.932,0,0,0-1.237-.453,1.907,1.907,0,0,0-.7.142,1.8,1.8,0,0,0-1.019.878,1.931,1.931,0,0,0-.237.93,1.953,1.953,0,0,0,1.953,1.953" transform="translate(30.31 54.226)" fill="#1893d1"/>
    <path id="Trazado_146693" data-name="Trazado 146693" d="M39.705,67.088a1.942,1.942,0,0,0,3.072-.209l0,0a1.884,1.884,0,0,0,.242-.507l.006-.03a1.969,1.969,0,0,0,.081-.547,1.87,1.87,0,0,0-.194-.79,1.973,1.973,0,0,0-.235-.418c-.028-.035-.065-.065-.1-.1a2.308,2.308,0,0,0-.189-.192,2.034,2.034,0,0,0-.57-.331,1.863,1.863,0,0,0-.669-.122,1.9,1.9,0,0,0-.8.192,2.123,2.123,0,0,0-.292.141,1.924,1.924,0,0,0-.353.307c-.022.024-.037.055-.057.08a1.92,1.92,0,0,0,.052,2.528" transform="translate(33.3 54.226)" fill="#1893d1"/>
    <path id="Trazado_146694" data-name="Trazado 146694" d="M30.737,69.564h0a1.96,1.96,0,0,0-.522-.248,1.945,1.945,0,0,0-2.058,3.118,2.028,2.028,0,0,0,.272.263c.011.007.018.018.028.026a1.918,1.918,0,0,0,1.187.412h0a1.914,1.914,0,0,0,.527-.081,1.943,1.943,0,0,0,.932-.588,1.847,1.847,0,0,0,.122-.148c.017-.024.035-.046.05-.07s.044-.083.068-.124a2.082,2.082,0,0,0,.133-.292c.02-.059.039-.118.055-.179.011-.044.02-.087.03-.133a1.861,1.861,0,0,0,.028-.29.447.447,0,0,0,.006-.046,1.951,1.951,0,0,0-.86-1.618" transform="translate(23.523 58.803)" fill="#1893d1"/>
    <path id="Trazado_146695" data-name="Trazado 146695" d="M35.117,71.182a1.945,1.945,0,0,0-.235-.93,1.971,1.971,0,0,0-.335-.436,1.89,1.89,0,0,0-.29-.252,1.966,1.966,0,0,0-.407-.2,1.924,1.924,0,0,0-.686-.139,1.943,1.943,0,0,0-1.487,3.205,2.023,2.023,0,0,0,.653.51,1.9,1.9,0,0,0,.834.191,1.953,1.953,0,0,0,1.953-1.953" transform="translate(26.511 58.803)" fill="#1893d1"/>
    <path id="Trazado_146696" data-name="Trazado 146696" d="M37.858,69.634c-.031-.022-.054-.05-.083-.07s-.094-.043-.139-.068a1.925,1.925,0,0,0-.954-.266,1.952,1.952,0,0,0-1.951,1.953,1.926,1.926,0,0,0,.466,1.252,2.018,2.018,0,0,0,.2.2,1.922,1.922,0,0,0,1.283.5,1.887,1.887,0,0,0,.359-.037,1.007,1.007,0,0,0,.1-.024,1.75,1.75,0,0,0,.285-.089.584.584,0,0,0,.059-.028,1.858,1.858,0,0,0,.224-.122c.054-.033.1-.07.152-.107L37.9,72.7a2.065,2.065,0,0,0,.237-.222,1.781,1.781,0,0,0,.141-.172l.026-.031a1.718,1.718,0,0,0,.155-.287.981.981,0,0,0,.043-.1,1.82,1.82,0,0,0,.094-.3l0-.028a1.8,1.8,0,0,0,.037-.362l0-.015a1.944,1.944,0,0,0-.777-1.548" transform="translate(29.501 58.803)" fill="#1893d1"/>
    <path id="Trazado_146697" data-name="Trazado 146697" d="M42.156,71.182a1.954,1.954,0,0,0-.231-.921,1.98,1.98,0,0,0-.629-.7,1.947,1.947,0,0,0-2.58,2.87,2.01,2.01,0,0,0,.3.288,1.91,1.91,0,0,0,.675.335,1.865,1.865,0,0,0,.512.078,1.953,1.953,0,0,0,1.953-1.953" transform="translate(32.49 58.803)" fill="#1893d1"/>
    <path id="Trazado_146698" data-name="Trazado 146698" d="M45.439,70.254a1.931,1.931,0,0,0-.449-.536,1.738,1.738,0,0,0-.176-.153,1.98,1.98,0,0,0-.227-.109,1.923,1.923,0,0,0-.866-.226,1.952,1.952,0,0,0-1.951,1.953,1.918,1.918,0,0,0,.466,1.252,1.849,1.849,0,0,0,.252.244,1.908,1.908,0,0,0,1.234.457,1.956,1.956,0,0,0,1.892-2.441,2.021,2.021,0,0,0-.174-.44" transform="translate(35.48 58.803)" fill="#1893d1"/>
    <rect id="Rectángulo_34011" data-name="Rectángulo 34011" width="7.244" height="1.191" transform="translate(67.119 105.2)" fill="#c1daec"/>
    <rect id="Rectángulo_34012" data-name="Rectángulo 34012" width="7.244" height="1.198" transform="translate(67.119 102.701)" fill="#c1daec"/>
    <path id="Trazado_146699" data-name="Trazado 146699" d="M43.536,54.832a1,1,0,0,0-1-1H37.291a1,1,0,0,0-1,1v.841h7.244Z" transform="translate(30.827 45.724)" fill="#e6e6e6"/>
    <rect id="Rectángulo_34013" data-name="Rectángulo 34013" width="7.246" height="7.462" transform="translate(67.119 107.693)" fill="#e6e6e6"/>
    <rect id="Rectángulo_34014" data-name="Rectángulo 34014" width="7.244" height="1.302" transform="translate(67.119 101.399)" fill="#ea5f21"/>
    <rect id="Rectángulo_34015" data-name="Rectángulo 34015" width="7.244" height="1.302" transform="translate(67.119 103.898)" fill="#ea5f21"/>
    <rect id="Rectángulo_34016" data-name="Rectángulo 34016" width="7.244" height="1.302" transform="translate(67.119 106.391)" fill="#ea5f21"/>
    <path id="Trazado_146700" data-name="Trazado 146700" d="M52.416,62.266h-22.2a3.374,3.374,0,0,0-2.672,1.311H55.075a3.351,3.351,0,0,0-2.659-1.311" transform="translate(23.395 52.889)" fill="#ea5f21"/>
    <path id="Trazado_146701" data-name="Trazado 146701" d="M68.8,54.6a14.793,14.793,0,0,1-11.979-2.014c.906-8.128,1.3-11.355,1.3-11.355s7.531.076,12.051,1.383A41.011,41.011,0,0,1,68.8,54.6" transform="translate(48.262 35.022)" fill="#333"/>
    <path id="Trazado_146702" data-name="Trazado 146702" d="M62.159,47.648c-.381,3.31.592,6.14,2.173,6.321S67.5,51.615,67.879,48.3s-.594-6.14-2.173-6.321-3.168,2.354-3.547,5.665" transform="translate(52.728 35.653)" fill="#f7dc54"/>
    <path id="Trazado_146703" data-name="Trazado 146703" d="M49.926,1.534,50.409,3.8l17.05,20.7c.568-.475,1.134-.954,1.705-1.418Z" transform="translate(42.407 1.303)" fill="#ea5f21"/>
    <path id="Trazado_146704" data-name="Trazado 146704" d="M83.622,14.573,59.445,1.105A4.521,4.521,0,0,0,55.576.638L49.926,2.5,69.164,24.045a68.3,68.3,0,0,1,14.459-9.473" transform="translate(42.407 0.341)" fill="#4db5ea"/>
    <path id="Trazado_146705" data-name="Trazado 146705" d="M74.355,43.181a11.312,11.312,0,0,1-9.162-1.541c.694-6.216,1-8.685,1-8.685a44.029,44.029,0,0,1,9.217,1.058,31.344,31.344,0,0,1-1.052,9.168" transform="translate(55.375 27.993)" fill="#333"/>
    <path id="Trazado_146706" data-name="Trazado 146706" d="M69.278,37.864c-.29,2.532.453,4.7,1.661,4.834s2.423-1.8,2.715-4.333-.453-4.7-1.663-4.834-2.423,1.8-2.713,4.333" transform="translate(58.792 28.476)" fill="#f7dc54"/>
    <path id="Trazado_146707" data-name="Trazado 146707" d="M75.731,9.416a68.249,68.249,0,0,0-14.457,9.471c-.57.466-1.132.945-1.7,1.42-.1.083-.22.183-.361.294,7.081.268,21.4-1.65,37.2-12.835C89.026,5.406,82.2,6.472,75.731,9.416" transform="translate(50.295 5.5)" fill="#f9773d"/>
    <path id="Trazado_146708" data-name="Trazado 146708" d="M145.716,12.682l-7.7-.882a8.8,8.8,0,0,1-3.913-1.476c-.089-.059-.176-.115-.272-.174-.246-.157-.516-.331-.823-.52-.866-.547-1.994-1.2-3.408-1.949-.49-.185-.978-.353-1.461-.509-15.8,11.185-30.116,13.1-37.2,12.835-4.089,3.275-25.7,18.982-36.918,21.742-6.63-.181-17.333-8.37-24.8-14.436l-7.364.93c.666.886,1.369,1.792,2.118,2.713l.024.03c.279.344.566.692.858,1.038l.105.126q.4.48.821.96c.054.063.111.126.166.189q.391.449.8.9c.078.087.159.174.239.263.252.276.5.553.764.829l.3.314c.246.259.492.518.743.777l.361.364c.239.24.473.479.718.718.139.137.283.274.424.411.229.222.459.444.694.666.159.148.322.3.483.444.222.205.442.409.668.612.183.163.368.324.553.485.211.187.424.374.638.557.2.166.4.329.594.494s.424.353.638.529.42.331.632.5.418.331.631.494.457.338.686.509c.2.15.407.3.614.451.24.172.486.338.731.509.2.139.4.281.6.418.253.168.512.333.769.5.2.129.4.263.6.39.263.163.529.32.8.477.2.122.405.248.612.366.274.157.553.307.829.459.2.113.405.227.612.337.281.15.57.29.856.433.207.1.411.211.62.313.289.139.583.268.875.4.211.1.422.2.634.289.3.129.6.25.908.37.211.087.422.178.634.259.309.118.625.226.938.337.213.076.424.157.638.229.329.109.664.207,1,.309.2.061.4.129.608.187.353.1.712.187,1.069.277.19.048.379.1.573.148q.827.194,1.67.348a36.144,36.144,0,0,0,19.853-2.1c12.487-4.834,24.754-8.8,35.862-12.655q3.357-1.165,6.567-2.327c.559-.2,1.1-.407,1.657-.612.5-.183,1-.364,1.492-.549a153.5,153.5,0,0,0,16.889-7.3l.015-.007c.727-.379,1.43-.766,2.123-1.154.1-.055.209-.111.309-.166.6-.338,1.171-.684,1.742-1.03.185-.111.381-.22.562-.333.472-.292.919-.592,1.374-.89.264-.174.54-.344.8-.52.361-.246.7-.5,1.047-.751.329-.237.668-.468.986-.708.274-.207.525-.422.79-.634.368-.292.745-.581,1.095-.88.205-.176.39-.357.59-.534.388-.344.779-.688,1.145-1.039.152-.148.287-.3.435-.453.394-.4.792-.8,1.156-1.2a7,7,0,0,0-4.472-2.426" transform="translate(18.567 6.093)" fill="#ea5f21"/>
    <path id="Trazado_146709" data-name="Trazado 146709" d="M23.879,21.81l7.364-.93c-2.776-2.256-5.108-4.22-6.613-5.369a3.6,3.6,0,0,0-3.3-.6l-1.844.564c.052.081.109.166.163.25l.006.006c1.132,1.757,2.55,3.843,4.23,6.077" transform="translate(16.547 12.526)" fill="#f9773d"/>
    <path id="Trazado_146710" data-name="Trazado 146710" d="M154.343,13.69l-.875-2.023a.331.331,0,0,0-.581-.1c-.344.385-.719.756-1.091,1.13-.148.148-.283.3-.435.451-.366.353-.756.7-1.143,1.041-.2.176-.387.359-.592.533-.35.3-.725.588-1.095.882-.264.211-.516.425-.79.632-.318.24-.657.473-.986.71-.348.25-.686.5-1.047.749-.259.178-.534.346-.8.522-.455.3-.9.6-1.374.89-.181.113-.377.22-.562.333-.571.346-1.145.69-1.742,1.03-.1.055-.207.109-.307.166-.7.388-1.4.773-2.125,1.152l-.015.007A152.981,152.981,0,0,1,121.9,29.1c-.492.183-.995.366-1.492.549-.551.2-1.1.409-1.657.61q-3.207,1.165-6.567,2.328c-11.108,3.858-23.373,7.821-35.86,12.655a36.169,36.169,0,0,1-19.855,2.1q-.843-.155-1.67-.35c-.194-.044-.383-.1-.573-.148-.357-.089-.716-.176-1.069-.276-.205-.059-.405-.128-.608-.189-.335-.1-.669-.2-1-.309-.215-.072-.424-.152-.638-.227-.313-.111-.629-.218-.938-.337-.213-.083-.424-.174-.634-.259-.3-.122-.608-.24-.908-.37-.213-.092-.424-.194-.634-.29-.292-.131-.586-.261-.873-.4-.211-.1-.414-.209-.621-.313-.287-.142-.573-.285-.856-.433-.207-.109-.409-.226-.612-.338-.276-.152-.555-.3-.829-.457-.205-.12-.409-.246-.612-.368-.266-.159-.533-.313-.8-.477-.2-.128-.4-.259-.6-.388-.257-.166-.516-.329-.769-.5-.2-.137-.4-.277-.6-.418-.244-.168-.49-.337-.731-.507-.207-.15-.409-.3-.614-.453-.229-.17-.461-.337-.686-.509s-.42-.329-.631-.494-.425-.329-.632-.5-.425-.351-.638-.527-.4-.327-.592-.494c-.216-.185-.427-.372-.64-.559-.185-.161-.37-.32-.553-.485-.226-.2-.446-.407-.668-.61-.161-.148-.324-.3-.483-.446-.235-.222-.464-.444-.694-.666-.141-.137-.285-.272-.424-.409-.242-.239-.479-.479-.718-.719-.12-.122-.242-.242-.361-.364-.252-.257-.5-.516-.742-.775l-.3-.314c-.259-.277-.51-.553-.764-.83-.08-.087-.161-.176-.239-.263q-.405-.449-.8-.9c-.055-.063-.113-.126-.166-.189-.279-.32-.551-.64-.819-.958l-.107-.128c-.292-.346-.577-.692-.858-1.038l-.024-.03q-1.124-1.382-2.121-2.711l-6.016.76c5,6.538,14.638,18.594,23.793,26.985,3.849,3.521,7.612,6.4,10.91,7.932,6.1,2.848,14.457,4.442,26.95.943.534-.152,1.076-.3,1.631-.473,5.188-1.589,11.335-3.7,18.8-6.362,49.555-15,52.558-29.234,54.254-37.134a5.993,5.993,0,0,0-.6-3.586" transform="translate(15.802 9.711)" fill="#1893d1"/>
    <path id="Trazado_146711" data-name="Trazado 146711" d="M22.045,15.361A.384.384,0,0,0,21.6,15.2l-4.561,1.376a.652.652,0,0,0-.255.986s1.3,1.805,3.477,4.646l6.016-.76c-1.685-2.24-3.1-4.324-4.231-6.083" transform="translate(14.146 12.893)" fill="#4db5ea"/>
    <path id="Trazado_146712" data-name="Trazado 146712" d="M99.894,11.4a1.432,1.432,0,0,1-.322.755c-5.685,8.1-12.876,9.391-17.477,9.371a12.159,12.159,0,0,1-7.4-3.257A1.452,1.452,0,0,1,74.232,17a1.1,1.1,0,0,1,.878-.949c6.739-.727,11.255-3.264,13.427-7.547.307.189.579.361.825.52.1.057.183.115.27.174a8.831,8.831,0,0,0,3.915,1.474Z" transform="translate(63.035 7.222)" fill="#333"/>
    <path id="Trazado_146713" data-name="Trazado 146713" d="M106.389,21.2,61.545,71.138a9.409,9.409,0,0,1-8.8,3.316l-5.25-1.038,1.557,2.306,4.7.636a9.543,9.543,0,0,0,8.285-3.333l45.44-49.7Z" transform="translate(40.341 18.007)" fill="#ea5f21"/>
    <path id="Trazado_146714" data-name="Trazado 146714" d="M106.389,21.2,75.413,30.484,47.493,73.416l6.164,1.219a7.673,7.673,0,0,0,7.176-2.7Z" transform="translate(40.341 18.007)" fill="#4db5ea"/>
    <path id="Trazado_146715" data-name="Trazado 146715" d="M74.716,16.97c5,3.1,11.729,3.5,18.559-1.226L88.931,8.783c-1.7,3.4-5.43,7.237-14.215,8.187" transform="translate(63.464 7.46)" fill="#dde5ed"/>
    <path id="Trazado_146716" data-name="Trazado 146716" d="M92.009,11.054l-5.421-.621a8.812,8.812,0,0,1-3.915-1.476c-.087-.057-.176-.115-.27-.174l4.342,6.961a30.165,30.165,0,0,0,5.263-4.69" transform="translate(69.994 7.46)" fill="#e4f4ff"/>
    <path id="Trazado_146717" data-name="Trazado 146717" d="M69.328,42.759c-12.495,3.5-20.845,1.9-26.95-.945-3.3-1.535-7.061-4.409-10.91-7.932,7.78-1.949,28.433.043,37.859,8.877" transform="translate(26.73 28.199)" fill="#333"/>
    <path id="Trazado_146718" data-name="Trazado 146718" d="M49.815,28.192l-.105-.98c-.142-1.529-1.267-2.569-2.5-2.312l-.183.067a2.967,2.967,0,0,0-1.983,3.249l.126,1.178.113,1.045c.142,1.529,1.267,2.569,2.5,2.31l.181-.067a2.962,2.962,0,0,0,1.984-3.249Z" transform="translate(38.248 21.117)" fill="#333"/>
    <path id="Trazado_146719" data-name="Trazado 146719" d="M54.73,26.3l-.1-.731c-.172-1.52-1.317-2.524-2.547-2.23l-.364.131a2.994,2.994,0,0,0-1.92,3.3l.179,1.352.153,1.163c.17,1.52,1.317,2.524,2.545,2.23l.364-.131a3,3,0,0,0,1.922-3.3Z" transform="translate(42.284 19.779)" fill="#333"/>
    <path id="Trazado_146720" data-name="Trazado 146720" d="M59.929,23.929l-.078-.509c-.2-1.513-1.367-2.482-2.589-2.151l-.546.2a3.021,3.021,0,0,0-1.861,3.351l.2,1.3.229,1.505c.2,1.511,1.367,2.48,2.589,2.151l.547-.2a3.022,3.022,0,0,0,1.859-3.351Z" transform="translate(46.569 18.012)" fill="#333"/>
    <path id="Trazado_146721" data-name="Trazado 146721" d="M65.093,21.594l-.137-.808c-.229-1.507-1.415-2.438-2.634-2.073l-.729.266a3.054,3.054,0,0,0-1.8,3.4l.285,1.685.237,1.415c.229,1.5,1.417,2.436,2.634,2.068l.729-.261a3.055,3.055,0,0,0,1.8-3.4Z" transform="translate(50.758 15.827)" fill="#333"/>
    <path id="Trazado_146722" data-name="Trazado 146722" d="M69.721,19.7,69.4,17.95c-.259-1.5-1.465-2.393-2.678-1.99l-.912.329a3.085,3.085,0,0,0-1.737,3.455l.481,2.637.137.753c.259,1.5,1.463,2.395,2.678,1.992l.912-.331a3.084,3.084,0,0,0,1.735-3.453Z" transform="translate(54.385 13.475)" fill="#333"/>
    <path id="Trazado_146723" data-name="Trazado 146723" d="M51.071,27.553a3.406,3.406,0,0,0-2.72-3.309,2.59,2.59,0,0,0-.817.039,1.091,1.091,0,0,0-.111.031l-.131.048c-1.72.4-2.946,2.441-2.745,4.605l.237,2.2A3.407,3.407,0,0,0,47.5,34.479a2.605,2.605,0,0,0,.819-.041.773.773,0,0,0,.107-.03l.135-.048c1.716-.4,2.944-2.441,2.745-4.605Z" transform="translate(37.819 20.58)" fill="#333"/>
    <path id="Trazado_146724" data-name="Trazado 146724" d="M55.99,25.88a3.4,3.4,0,0,0-2.709-3.212,2.666,2.666,0,0,0-.98.083l-.277.107a3.411,3.411,0,0,0-2.1,1.683,4.91,4.91,0,0,0-.612,3.013l.329,2.491a3.392,3.392,0,0,0,2.709,3.211,2.588,2.588,0,0,0,.98-.083l.277-.105c1.742-.416,2.961-2.515,2.715-4.7Z" transform="translate(41.855 19.242)" fill="#333"/>
    <path id="Trazado_146725" data-name="Trazado 146725" d="M61.2,23.708a3.339,3.339,0,0,0-2.7-3.12,2.629,2.629,0,0,0-1.034.1l-.481.178a3.468,3.468,0,0,0-2.073,1.744,4.919,4.919,0,0,0-.555,3.026l.424,2.782a3.337,3.337,0,0,0,2.7,3.118,2.619,2.619,0,0,0,1.032-.094L59,31.259a3.472,3.472,0,0,0,2.071-1.744,4.914,4.914,0,0,0,.555-3.027Z" transform="translate(46.141 17.474)" fill="#333"/>
    <path id="Trazado_146726" data-name="Trazado 146726" d="M66.307,21.045a3.328,3.328,0,0,0-2.685-3.027,2.63,2.63,0,0,0-1.086.109l-.686.252a3.526,3.526,0,0,0-2.042,1.8,4.929,4.929,0,0,0-.5,3.035l.52,3.077a3.33,3.33,0,0,0,2.685,3.027v0A2.635,2.635,0,0,0,63.6,29.21l.686-.252a3.519,3.519,0,0,0,2.042-1.8,4.928,4.928,0,0,0,.5-3.035Z" transform="translate(50.328 15.29)" fill="#333"/>
    <path id="Trazado_146727" data-name="Trazado 146727" d="M70.748,18.184a3.32,3.32,0,0,0-2.672-2.937,2.654,2.654,0,0,0-1.139.126l-.888.324a3.576,3.576,0,0,0-2.01,1.862,4.917,4.917,0,0,0-.446,3.037l.616,3.379a3.32,3.32,0,0,0,2.672,2.939,2.616,2.616,0,0,0,1.137-.128l.891-.322c1.722-.571,2.822-2.765,2.454-4.9Z" transform="translate(53.955 12.937)" fill="#333"/>
    <path id="Trazado_146728" data-name="Trazado 146728" d="M76.307,20.207l-.986-5.1a3.311,3.311,0,0,0-2.659-2.848,2.613,2.613,0,0,0-1.191.144l-1.093.4c-1.714.621-2.778,2.846-2.369,4.956l.986,5.1a3.317,3.317,0,0,0,2.659,2.85,2.586,2.586,0,0,0,1.191-.146l1.093-.4a3.638,3.638,0,0,0,1.981-1.922,4.923,4.923,0,0,0,.388-3.037" transform="translate(57.693 10.398)" fill="#333"/>
    <path id="Trazado_146729" data-name="Trazado 146729" d="M74.968,20l-.457-2.351-.533-2.75a2.137,2.137,0,0,0-2.72-1.91l-1.093.4a3.12,3.12,0,0,0-1.676,3.5l.7,3.641.283,1.459c.288,1.489,1.515,2.351,2.722,1.91l1.093-.4A3.121,3.121,0,0,0,74.968,20" transform="translate(58.123 10.936)" fill="#333"/>
    <path id="Trazado_146730" data-name="Trazado 146730" d="M47.5,24.614l-.183.067a2.961,2.961,0,0,0-1.981,3.249l.126,1.178c1.169-.233,2.685-.6,4.644-1.2l-.1-.98c-.144-1.531-1.269-2.571-2.5-2.312" transform="translate(38.492 20.874)" fill="#e4f4ff"/>
    <path id="Trazado_146731" data-name="Trazado 146731" d="M45.5,28.622c.142,1.529,1.269,2.569,2.5,2.31l.183-.067a2.962,2.962,0,0,0,1.983-3.248l-.133-1.243c-1.959.6-3.475.969-4.646,1.2Z" transform="translate(38.556 22.403)" fill="#dde5ed"/>
    <path id="Trazado_146732" data-name="Trazado 146732" d="M50.33,27.614c.172,1.52,1.317,2.524,2.545,2.23l.364-.133a2.991,2.991,0,0,0,1.922-3.3l-.237-1.785c-1.746.706-3.325,1.311-4.747,1.825Z" transform="translate(42.62 20.918)" fill="#dde5ed"/>
    <path id="Trazado_146733" data-name="Trazado 146733" d="M52.375,23.049l-.364.133a2.994,2.994,0,0,0-1.922,3.3l.179,1.354q2.131-.768,4.747-1.824l-.1-.732c-.172-1.52-1.317-2.523-2.545-2.23" transform="translate(42.527 19.535)" fill="#e4f4ff"/>
    <path id="Trazado_146734" data-name="Trazado 146734" d="M57.549,20.984l-.547.2a3.025,3.025,0,0,0-1.859,3.351l.2,1.3q2.28-.993,4.875-2.193l-.078-.509c-.2-1.513-1.365-2.482-2.589-2.151" transform="translate(46.813 17.769)" fill="#e4f4ff"/>
    <path id="Trazado_146735" data-name="Trazado 146735" d="M55.465,26.089c.2,1.513,1.367,2.48,2.589,2.151l.547-.2a3.026,3.026,0,0,0,1.859-3.353l-.35-2.3q-2.6,1.2-4.875,2.192Z" transform="translate(46.918 19.02)" fill="#dde5ed"/>
    <path id="Trazado_146736" data-name="Trazado 146736" d="M62.61,18.427l-.731.264a3.057,3.057,0,0,0-1.8,3.4l.285,1.687c1.585-.766,3.268-1.6,5.014-2.473l-.137-.81c-.229-1.505-1.415-2.438-2.634-2.071" transform="translate(51.001 15.584)" fill="#e4f4ff"/>
    <path id="Trazado_146737" data-name="Trazado 146737" d="M60.457,23.834c.229,1.505,1.415,2.438,2.634,2.071l.729-.264a3.053,3.053,0,0,0,1.8-3.4l-.385-2.29c-1.746.877-3.429,1.707-5.014,2.473Z" transform="translate(51.15 16.944)" fill="#dde5ed"/>
    <path id="Trazado_146738" data-name="Trazado 146738" d="M64.737,21.085c.259,1.5,1.465,2.393,2.678,1.992l.912-.331a3.084,3.084,0,0,0,1.737-3.453l-.3-1.64c-1.8.947-3.5,1.831-5.164,2.678Z" transform="translate(54.872 14.995)" fill="#dde5ed"/>
    <path id="Trazado_146739" data-name="Trazado 146739" d="M67.012,15.673,66.1,16a3.089,3.089,0,0,0-1.737,3.455l.481,2.637c1.659-.847,3.366-1.731,5.164-2.68l-.318-1.75c-.259-1.5-1.465-2.395-2.678-1.992" transform="translate(54.629 13.231)" fill="#e4f4ff"/>
    <path id="Trazado_146740" data-name="Trazado 146740" d="M74.446,15.17q-2.755,1.509-5.317,2.883l.281,1.457c.288,1.491,1.513,2.351,2.722,1.912l1.093-.4A3.12,3.12,0,0,0,74.9,17.521Z" transform="translate(58.719 12.885)" fill="#dde5ed"/>
    <path id="Trazado_146741" data-name="Trazado 146741" d="M74.267,14.615c-.289-1.491-1.513-2.351-2.722-1.912l-1.093.4a3.12,3.12,0,0,0-1.676,3.5l.7,3.641q2.569-1.376,5.317-2.883Z" transform="translate(58.367 10.692)" fill="#e4f4ff"/>
    <path id="Trazado_146742" data-name="Trazado 146742" d="M54.579,34.166l.647,1.8L39.708,52.32a4.467,4.467,0,0,1-3.686,1.52,5.963,5.963,0,0,1-1.877-.523l-2.658-.884-.708-1.487Z" transform="translate(26.144 29.021)" fill="#ea5f21"/>
    <path id="Trazado_146743" data-name="Trazado 146743" d="M54.579,34.314,39.3,51.166a4.3,4.3,0,0,1-3.384,1.542,6.306,6.306,0,0,1-1.631-.276l-3.51-1.339,12.7-17.1Z" transform="translate(26.144 28.873)" fill="#4db5ea"/>
    <path id="Trazado_146744" data-name="Trazado 146744" d="M144.293,20.608a43.639,43.639,0,0,1,5.672-3.066c-4.322-4.292-17.138-10.336-30.839-11.285C105.5,4.786,91,8.413,85.094,11.448c.105.324,6.832-6.025,19.948-9.415a61.816,61.816,0,0,1,50.583,8.692c.366-2.247.653-4.533.847-6.861a64.853,64.853,0,0,1,11.154,29.343,42.784,42.784,0,0,0-23.332-12.6" transform="translate(72.279 0)" fill="#f7dc54"/>
  </g>
</svg>
