<svg xmlns="http://www.w3.org/2000/svg" xmlns:xlink="http://www.w3.org/1999/xlink" width="1320" height="506.835" viewBox="0 0 1320 506.835">
  <defs>
    <linearGradient id="linear-gradient" x1="0.822" y1="0.238" x2="0.15" y2="1" gradientUnits="objectBoundingBox">
      <stop offset="0" stop-color="#675892"/>
      <stop offset="1" stop-color="#46327a"/>
    </linearGradient>
    <clipPath id="clip-path">
      <path id="Rectangle_652" data-name="Rectangle 652" d="M20.787,0H1299.213C1310.693,0,1320,8.4,1320,18.772V488.063c0,10.367-9.307,18.772-20.787,18.772H20.787C9.307,506.835,0,498.431,0,488.063V18.772C0,8.4,9.307,0,20.787,0Z" fill="none"/>
    </clipPath>
  </defs>
  <g id="Grupo_240006" data-name="Grupo 240006" transform="translate(-140.333 -70)">
    <path id="Rectangle_652-2" data-name="Rectangle 652" d="M1299.213,0H20.787C9.307,0,0,8.4,0,18.772V488.063c0,10.367,9.307,18.772,20.787,18.772H1299.213c11.48,0,20.787-8.4,20.787-18.772V18.772C1320,8.4,1310.693,0,1299.213,0Z" transform="translate(140.333 70)" fill="url(#linear-gradient)"/>
    <g id="Enmascarar_grupo_45" data-name="Enmascarar grupo 45" transform="translate(140.333 70)" clip-path="url(#clip-path)">
      <g id="Grupo_78299" data-name="Grupo 78299" transform="translate(1421.653 781.694) rotate(172)">
        <path id="Trazado_113499" data-name="Trazado 113499" d="M15.112,287.169c17.715-34.453,50.7-57.089,87.588-67.785,43.738-12.681,85.825-5.917,129.709.813,40.462,6.207,85.463,7.935,119.6-18.36C405,161.023,410.064,81.949,458.584,36.195A134.306,134.306,0,0,1,548.268.007c36.475-.4,82.633,15.473,101.287,49.128,18.115,32.679-.243,65.219,6.189,98.672,12.581,65.429,102.934,61.541,146.591,94.017,20.859,15.518,34.9,38.672,44.514,62.826,10.673,26.809,16.486,56.674,9.26,84.61-11.967,46.276-56.921,63.6-100.7,65.261-32.532,1.236-64.873-7.137-94.749-20.072-26.423-11.44-51.276-26.449-78.3-36.386-66.738-24.537-132.48,6.775-190.061,40.442-73.917,43.219-150.259,84.882-238.635,70.014C86.133,497.156,16.049,455.615,2.8,383.4c-5.607-30.549-3.007-62.946,9.88-91.206Q13.841,289.641,15.112,287.169Z" transform="translate(564.713 766.841)" fill="#fff" opacity="0.17" style="mix-blend-mode: overlay;isolation: isolate"/>
        <path id="Trazado_113500" data-name="Trazado 113500" d="M632.125,127.541c-3.382,29.741-20.932,54.914-44.53,72.432-27.977,20.768-60.041,26.955-93.386,33.637-30.745,6.161-63.537,16.779-80.927,44.921-26.994,43.68-9.185,102.547-31.628,148.641a101.5,101.5,0,0,1-54.6,50c-26.09,9.918-63.548,10.548-86.073-9.015-21.874-19-17.512-47.516-31.2-70.159-26.779-44.284-90.623-17.612-130.787-29.721-19.192-5.785-35.553-18.927-49.011-33.962C15.04,317.622,2.765,297.427.379,275.194c-3.952-36.827,23.638-61.292,54.633-74.055,23.031-9.484,48.532-11.927,73.5-10.4,22.081,1.35,44,5.713,66.108,5.811,54.59.241,93.319-39.89,125.547-79.58C361.536,66.018,405.07,15.559,472.58,3.055,524.167-6.5,585.771,5.23,614.875,54.275c12.311,20.747,19.231,45.005,17.637,68.967Q632.368,125.406,632.125,127.541Z" transform="translate(0 507.532)" fill="#5b4794" opacity="0.15" style="mix-blend-mode: color-burn;isolation: isolate"/>
        <path id="Trazado_113529" data-name="Trazado 113529" d="M892.845,180.145c-4.776,42.007-29.565,77.564-62.9,102.306-39.516,29.334-84.8,38.072-131.9,47.51-43.426,8.7-89.743,23.7-114.306,63.449-38.127,61.7-12.973,144.842-44.672,209.948a143.37,143.37,0,0,1-77.125,70.617c-36.851,14.008-89.759,14.9-121.574-12.733-30.9-26.831-24.735-67.114-44.074-99.1-37.824-62.548-128-24.876-184.729-41.979-27.108-8.172-50.216-26.733-69.225-47.97-21.1-23.572-38.434-52.1-41.8-83.5C-5.048,336.68,33.923,302.126,77.7,284.1c32.53-13.4,68.548-16.846,103.812-14.69,31.188,1.907,62.152,8.069,93.374,8.207,77.105.341,131.809-56.342,177.328-112.4,58.436-71.967,119.926-143.237,215.28-160.9C740.358-9.18,827.372,7.387,868.479,76.66c17.389,29.3,27.163,63.568,24.911,97.412Q893.188,177.13,892.845,180.145Z" transform="matrix(-0.966, -0.259, 0.259, -0.966, 884.249, 676.393)" fill="#5b4794" opacity="0.15" style="mix-blend-mode: color-burn;isolation: isolate"/>
        <path id="Trazado_113530" data-name="Trazado 113530" d="M892.845,180.145c-4.776,42.007-29.565,77.564-62.9,102.306-39.516,29.334-84.8,38.072-131.9,47.51-43.426,8.7-89.743,23.7-114.306,63.449-38.127,61.7-12.973,144.842-44.672,209.948a143.37,143.37,0,0,1-77.125,70.617c-36.851,14.008-89.759,14.9-121.574-12.733-30.9-26.831-24.735-67.114-44.074-99.1-37.824-62.548-128-24.876-184.729-41.979-27.108-8.172-50.216-26.733-69.225-47.97-21.1-23.572-38.434-52.1-41.8-83.5C-5.048,336.68,33.923,302.126,77.7,284.1c32.53-13.4,68.548-16.846,103.812-14.69,31.188,1.907,62.152,8.069,93.374,8.207,77.105.341,131.809-56.342,177.328-112.4,58.436-71.967,119.926-143.237,215.28-160.9C740.358-9.18,827.372,7.387,868.479,76.66c17.389,29.3,27.163,63.568,24.911,97.412Q893.188,177.13,892.845,180.145Z" transform="matrix(-0.848, -0.53, 0.53, -0.848, 778.799, 745.849)" fill="#5b4794" opacity="0.15" style="mix-blend-mode: color-burn;isolation: isolate"/>
        <path id="Trazado_113561" data-name="Trazado 113561" d="M892.845,180.145c-4.776,42.007-29.565,77.564-62.9,102.306-39.516,29.334-84.8,38.072-131.9,47.51-43.426,8.7-89.743,23.7-114.306,63.449-38.127,61.7-12.973,144.842-44.672,209.948a143.37,143.37,0,0,1-77.125,70.617c-36.851,14.008-89.759,14.9-121.574-12.733-30.9-26.831-24.735-67.114-44.074-99.1-37.824-62.548-128-24.876-184.729-41.979-27.108-8.172-50.216-26.733-69.225-47.97-21.1-23.572-38.434-52.1-41.8-83.5C-5.048,336.68,33.923,302.126,77.7,284.1c32.53-13.4,68.548-16.846,103.812-14.69,31.188,1.907,62.152,8.069,93.374,8.207,77.105.341,131.809-56.342,177.328-112.4,58.436-71.967,119.926-143.237,215.28-160.9C740.358-9.18,827.372,7.387,868.479,76.66c17.389,29.3,27.163,63.568,24.911,97.412Q893.188,177.13,892.845,180.145Z" transform="matrix(-0.951, -0.309, 0.309, -0.951, 1385.585, 1274.875)" fill="#5b4794" opacity="0.15" style="mix-blend-mode: color-burn;isolation: isolate"/>
        <circle id="Elipse_4692" data-name="Elipse 4692" cx="24.819" cy="24.819" r="24.819" transform="translate(583.612 746.202)" fill="#524480" opacity="0.23" style="mix-blend-mode: color-dodge;isolation: isolate"/>
        <ellipse id="Elipse_4693" data-name="Elipse 4693" cx="12.41" cy="12.41" rx="12.41" ry="12.41" transform="translate(568.854 828.418) rotate(99.217)" fill="#fff" opacity="0.17" style="mix-blend-mode: overlay;isolation: isolate"/>
        <ellipse id="Elipse_4694" data-name="Elipse 4694" cx="12.41" cy="12.41" rx="12.41" ry="12.41" transform="translate(579.813 484.305) rotate(100.476)" fill="#fff" opacity="0.17" style="mix-blend-mode: overlay;isolation: isolate"/>
        <circle id="Elipse_4695" data-name="Elipse 4695" cx="24.819" cy="24.819" r="24.819" transform="translate(582.531 416.117)" fill="#fff" opacity="0.17" style="mix-blend-mode: overlay;isolation: isolate"/>
        <path id="Trazado_113525" data-name="Trazado 113525" d="M62.631,0A62.631,62.631,0,1,1,0,62.631,62.631,62.631,0,0,1,62.631,0Z" transform="translate(1197.28 574.039) rotate(97.033)" fill="#5b4794" opacity="0.15" style="mix-blend-mode: color-dodge;isolation: isolate"/>
        <ellipse id="Elipse_4697" data-name="Elipse 4697" cx="62.631" cy="62.631" rx="62.631" ry="62.631" transform="translate(292.839 772.152) rotate(97.065)" fill="#fff" opacity="0.17" style="mix-blend-mode: overlay;isolation: isolate"/>
        <rect id="Rectángulo_33709" data-name="Rectángulo 33709" width="942.874" height="628.582" transform="translate(222.43 318.341)" fill="none"/>
      </g>
    </g>
    <g id="Layer_1" data-name="Layer 1" transform="translate(102.25 1559.549)">
      <g id="Grupo_80115" data-name="Grupo 80115" transform="translate(73.75 -1450.096)" opacity="0.38">
        <path id="Trazado_113548" data-name="Trazado 113548" d="M1230.049-481.712a2.021,2.021,0,0,1,2.022,2.022v13.955a2.021,2.021,0,0,1-2.022,2.022,2.022,2.022,0,0,1-2.022-2.022V-479.69A2.021,2.021,0,0,1,1230.049-481.712Z" transform="translate(-783.627 854.542)" fill="#fff" style="mix-blend-mode: overlay;isolation: isolate"/>
        <path id="Trazado_113549" data-name="Trazado 113549" d="M1211.926-463.589h13.954a2.021,2.021,0,0,1,2.022,2.022,2.021,2.021,0,0,1-2.022,2.022h-13.954a2.021,2.021,0,0,1-2.022-2.022A2.021,2.021,0,0,1,1211.926-463.589Z" transform="translate(-772.482 843.397)" fill="#fff" style="mix-blend-mode: overlay;isolation: isolate"/>
        <path id="Trazado_113550" data-name="Trazado 113550" d="M1139.733-1413.75a1.878,1.878,0,0,1,1.878,1.878v12.965a1.878,1.878,0,0,1-1.878,1.879,1.878,1.878,0,0,1-1.879-1.879v-12.965A1.878,1.878,0,0,1,1139.733-1413.75Z" transform="translate(-728.171 1427.743)" fill="#fff" style="mix-blend-mode: overlay;isolation: isolate"/>
        <path id="Trazado_113551" data-name="Trazado 113551" d="M1122.9-1396.913h12.964a1.878,1.878,0,0,1,1.879,1.878,1.878,1.878,0,0,1-1.879,1.878H1122.9a1.878,1.878,0,0,1-1.879-1.878A1.878,1.878,0,0,1,1122.9-1396.913Z" transform="translate(-717.816 1417.389)" fill="#fff" style="mix-blend-mode: overlay;isolation: isolate"/>
        <path id="Trazado_113552" data-name="Trazado 113552" d="M440.31-410.362a2.023,2.023,0,0,1,2.022,2.022v13.955a2.023,2.023,0,0,1-2.022,2.022,2.022,2.022,0,0,1-2.022-2.022V-408.34A2.022,2.022,0,0,1,440.31-410.362Z" transform="translate(-297.94 810.662)" fill="#fff" style="mix-blend-mode: overlay;isolation: isolate"/>
        <path id="Trazado_113553" data-name="Trazado 113553" d="M422.187-392.239h13.955a2.022,2.022,0,0,1,2.022,2.022,2.023,2.023,0,0,1-2.022,2.022H422.187a2.023,2.023,0,0,1-2.022-2.022A2.022,2.022,0,0,1,422.187-392.239Z" transform="translate(-286.794 799.517)" fill="#fff" style="mix-blend-mode: overlay;isolation: isolate"/>
        <path id="Trazado_113554" data-name="Trazado 113554" d="M971.053-355a6.747,6.747,0,0,1,6.739,6.739,6.747,6.747,0,0,1-6.739,6.739,6.747,6.747,0,0,1-6.739-6.739A6.747,6.747,0,0,1,971.053-355Zm0,9.435a2.7,2.7,0,0,0,2.7-2.7,2.7,2.7,0,0,0-2.7-2.7,2.7,2.7,0,0,0-2.7,2.7A2.7,2.7,0,0,0,971.053-345.566Z" transform="translate(-621.445 776.615)" fill="#fff" style="mix-blend-mode: overlay;isolation: isolate"/>
        <path id="Trazado_113555" data-name="Trazado 113555" d="M1066.636-725.464a4.2,4.2,0,0,1,4.2,4.2,4.2,4.2,0,0,1-4.2,4.2,4.2,4.2,0,0,1-4.2-4.2A4.2,4.2,0,0,1,1066.636-725.464Z" transform="translate(-681.789 1004.449)" fill="#fff" style="mix-blend-mode: overlay;isolation: isolate"/>
        <path id="Trazado_113556" data-name="Trazado 113556" d="M1265.55-1045.928a2.3,2.3,0,0,1,2.292,2.292,2.294,2.294,0,0,1-2.292,2.292,2.294,2.294,0,0,1-2.292-2.292A2.3,2.3,0,0,1,1265.55-1045.928Z" transform="translate(-805.294 1201.534)" fill="#fff" style="mix-blend-mode: overlay;isolation: isolate"/>
        <path id="Trazado_113557" data-name="Trazado 113557" d="M122.664-1450.1a4.2,4.2,0,0,1,4.2,4.2,4.2,4.2,0,0,1-4.2,4.2,4.2,4.2,0,0,1-4.2-4.2A4.2,4.2,0,0,1,122.664-1450.1Z" transform="translate(-101.249 1450.096)" fill="#fff" style="mix-blend-mode: overlay;isolation: isolate"/>
        <path id="Trazado_113558" data-name="Trazado 113558" d="M77.95-387.11a4.2,4.2,0,0,1,4.2,4.2,4.2,4.2,0,0,1-4.2,4.2,4.2,4.2,0,0,1-4.2-4.2A4.2,4.2,0,0,1,77.95-387.11Z" transform="translate(-73.75 796.362)" fill="#fff" style="mix-blend-mode: overlay;isolation: isolate"/>
        <circle id="Elipse_4717" data-name="Elipse 4717" cx="3.798" cy="3.798" r="3.798" transform="translate(201.704 14.951) rotate(-45)" fill="#fff" style="mix-blend-mode: overlay;isolation: isolate"/>
      </g>
    </g>
    <g id="Grupo_92893" data-name="Grupo 92893" transform="translate(753.679 109.453)" style="isolation: isolate">
      <path id="Unión_4" data-name="Unión 4" d="M12009.806,11608.875v-6.134h-6.131a2.021,2.021,0,0,1,0-4.043h6.131v-6.131a2.023,2.023,0,0,1,4.046,0v6.131h6.131a2.021,2.021,0,0,1,0,4.043h-6.131v6.134a2.023,2.023,0,0,1-4.046,0Z" transform="translate(-11507.27 -11508.059)" fill="#fff" stroke="rgba(0,0,0,0)" stroke-miterlimit="10" stroke-width="1" style="mix-blend-mode: overlay;isolation: isolate"/>
      <path id="Unión_7" data-name="Unión 7" d="M12008.631,11606.523v-4.956h-4.953a2.021,2.021,0,1,1,0-4.042h4.953v-4.956a2.022,2.022,0,0,1,4.045,0v4.956h4.956a2.021,2.021,0,1,1,0,4.042h-4.956v4.956a2.022,2.022,0,0,1-4.045,0Z" transform="translate(-11473.527 -11226.007)" fill="#fff" stroke="rgba(0,0,0,0)" stroke-miterlimit="10" stroke-width="1" style="mix-blend-mode: overlay;isolation: isolate"/>
      <path id="Unión_8" data-name="Unión 8" d="M12007.468,11603.86v-4.13h-4.128a1.684,1.684,0,1,1,0-3.368h4.128v-4.13a1.685,1.685,0,0,1,3.37,0v4.13h4.131a1.684,1.684,0,1,1,0,3.368h-4.131v4.13a1.685,1.685,0,0,1-3.37,0Z" transform="translate(-11554.105 -11335.007)" fill="#fff" stroke="rgba(0,0,0,0)" stroke-miterlimit="10" stroke-width="1" style="mix-blend-mode: overlay;isolation: isolate"/>
      <path id="Unión_6" data-name="Unión 6" d="M12008.138,11605.392v-4.606h-4.6a1.877,1.877,0,1,1,0-3.755h4.6v-4.605a1.877,1.877,0,0,1,3.755,0v4.605h4.605a1.877,1.877,0,1,1,0,3.755h-4.605v4.606a1.877,1.877,0,0,1-3.755,0Z" transform="translate(-11877.056 -11497.245)" fill="#fff" stroke="rgba(0,0,0,0)" stroke-miterlimit="10" stroke-width="1" style="mix-blend-mode: overlay;isolation: isolate"/>
      <path id="Unión_5" data-name="Unión 5" d="M12008.632,11606.524v-4.956h-4.956a2.022,2.022,0,0,1,0-4.045h4.956v-4.956a2.021,2.021,0,1,1,4.042,0v4.956h4.956a2.022,2.022,0,1,1,0,4.045h-4.956v4.956a2.021,2.021,0,1,1-4.042,0Z" transform="translate(-11753.476 -11497.883)" fill="#fff" stroke="rgba(0,0,0,0)" stroke-miterlimit="10" stroke-width="1" style="mix-blend-mode: overlay;isolation: isolate"/>
      <path id="Trazado_113540" data-name="Trazado 113540" d="M1856.786-1436.617a6.747,6.747,0,0,1-6.74-6.739,6.747,6.747,0,0,1,6.74-6.74,6.747,6.747,0,0,1,6.739,6.74A6.747,6.747,0,0,1,1856.786-1436.617Zm0-9.435a2.7,2.7,0,0,0-2.7,2.7,2.7,2.7,0,0,0,2.7,2.7,2.7,2.7,0,0,0,2.7-2.7A2.7,2.7,0,0,0,1856.786-1446.052Z" transform="translate(-1743.846 1450.096)" fill="#fff" style="mix-blend-mode: overlay;isolation: isolate"/>
      <path id="Trazado_113541" data-name="Trazado 113541" d="M3126.985-1114.5a6.747,6.747,0,0,1-6.739-6.739,6.747,6.747,0,0,1,6.739-6.74,6.747,6.747,0,0,1,6.739,6.74A6.747,6.747,0,0,1,3126.985-1114.5Zm0-9.435a2.7,2.7,0,0,0-2.7,2.7,2.7,2.7,0,0,0,2.7,2.7,2.7,2.7,0,0,0,2.7-2.7A2.7,2.7,0,0,0,3126.985-1123.933Z" transform="translate(-2525.016 1251.994)" fill="#fff" style="mix-blend-mode: overlay;isolation: isolate"/>
      <path id="Trazado_113542" data-name="Trazado 113542" d="M1769.315-1058.043a4.2,4.2,0,0,1-4.2-4.2,4.2,4.2,0,0,1,4.2-4.2,4.2,4.2,0,0,1,4.2,4.2A4.2,4.2,0,0,1,1769.315-1058.043Z" transform="translate(-1691.615 1214.15)" fill="#fff" style="mix-blend-mode: overlay;isolation: isolate"/>
      <path id="Trazado_113543" data-name="Trazado 113543" d="M1576.5-731.483a2.3,2.3,0,0,1-2.292-2.292,2.294,2.294,0,0,1,2.292-2.292,2.3,2.3,0,0,1,2.292,2.292A2.3,2.3,0,0,1,1576.5-731.483Z" transform="translate(-1574.205 1010.97)" fill="#fff" style="mix-blend-mode: overlay;isolation: isolate"/>
      <path id="Trazado_113544" data-name="Trazado 113544" d="M2713.287-333.411a4.2,4.2,0,0,1-4.2-4.2,4.2,4.2,0,0,1,4.2-4.2,4.2,4.2,0,0,1,4.2,4.2A4.2,4.2,0,0,1,2713.287-333.411Z" transform="translate(-2285.155 697.953)" fill="#fff" style="mix-blend-mode: overlay;isolation: isolate"/>
      <path id="Trazado_113545" data-name="Trazado 113545" d="M2758-1396.4a4.205,4.205,0,0,1-4.2-4.2,4.2,4.2,0,0,1,4.2-4.2,4.2,4.2,0,0,1,4.2,4.2A4.2,4.2,0,0,1,2758-1396.4Z" transform="translate(-2299.653 1422.237)" fill="#fff" style="mix-blend-mode: overlay;isolation: isolate"/>
      <path id="Trazado_113546" data-name="Trazado 113546" d="M3193.7-389.674a5.493,5.493,0,0,1-5.486-5.487,5.493,5.493,0,0,1,5.486-5.487,5.493,5.493,0,0,1,5.487,5.487A5.493,5.493,0,0,1,3193.7-389.674Zm0-6.93a1.445,1.445,0,0,0-1.443,1.444,1.445,1.445,0,0,0,1.443,1.443,1.445,1.445,0,0,0,1.443-1.443A1.445,1.445,0,0,0,3193.7-396.6Z" transform="translate(-2566.819 804.688)" fill="#fff" style="mix-blend-mode: overlay;isolation: isolate"/>
      <circle id="Elipse_4716" data-name="Elipse 4716" cx="3.798" cy="3.798" r="3.798" transform="translate(292.101 356.142) rotate(-45)" fill="#fff" style="mix-blend-mode: overlay;isolation: isolate"/>
      <path id="Trazado_113547" data-name="Trazado 113547" d="M3287.731-833.466a2.121,2.121,0,0,1-2.122,2.121,2.121,2.121,0,0,1-2.122-2.121,2.121,2.121,0,0,1,2.122-2.121A2.122,2.122,0,0,1,3287.731-833.466Z" transform="translate(-2625.41 1072.174)" fill="#fff" style="mix-blend-mode: overlay;isolation: isolate"/>
    </g>
  </g>
</svg>
